<?xml version="1.0" encoding="utf-8"?>
<!-- Generator: Adobe Illustrator 24.1.1, SVG Export Plug-In . SVG Version: 6.00 Build 0)  -->
<svg version="1.1" id="Layer_1" xmlns="http://www.w3.org/2000/svg" xmlns:xlink="http://www.w3.org/1999/xlink" x="0px" y="0px"
	 width="400px" height="400px" viewBox="0 0 400 400" enable-background="new 0 0 400 400" xml:space="preserve">
<path fill="#6AA9FF" d="M123,252v48c0,0,0,28,29,37s46-15,46-15l-8-26c0,0,3,18-20,26c0,0-26,6-30-22v-50L123,252z"/>
<rect x="190" y="119" fill="#E6ECF2" width="141" height="134"/>
<rect x="48" y="70" fill="#B3B3FF" width="142" height="50"/>
<rect x="190" y="70" fill="#8095FF" width="141" height="50"/>
<rect x="48" y="120" fill="#FFF4F4" width="142" height="133"/>
<g>
	<rect x="223" y="178" fill="#FF3377" width="50" height="16"/>
	<rect x="223" y="178" transform="matrix(6.123234e-17 -1 1 6.123234e-17 62 434)" fill="#FF3377" width="50" height="16"/>
</g>
<rect x="97" y="53" fill="#604080" width="18" height="34"/>
<rect x="180" y="53" fill="#604080" width="9" height="34"/>
<rect x="264" y="53" fill="#522866" width="18" height="34"/>
<rect x="189" y="53" fill="#522866" width="9" height="34"/>
<rect x="82" y="153" fill="#7ED8F6" width="33" height="16"/>
<rect x="148" y="153" fill="#7ED8F6" width="33" height="16"/>
<path fill="#7ED8F6" d="M98,167v38c0,0,2,38,46,29c0,0,18-5,21-28v-38l16-0.043V208c0,0-2,35-40,44s-56-30-56-30s-2-3-3-12v-44
	L98,167z"/>
<path fill="#4895FF" d="M190,330v-55c0,0,1-21,20-31s35-4,35-4s15,5,23,21s4,39,4,39h-17l1-11v-14c0,0-2-14-16-19s-25,4-25,4
	s-8,7-9,17v25C206,302,205,318,190,330z"/>
<g>
	<circle fill="#E6ECF2" cx="264.25" cy="310.75" r="25"/>
	<circle fill="#CFD7E6" cx="264.25" cy="310.75" r="6.5"/>
</g>
<rect x="123" y="249" fill="#7ED8F6" width="17" height="9"/>
<g>
</g>
<g>
</g>
<g>
</g>
<g>
</g>
<g>
</g>
<g>
</g>
<g>
</g>
<g>
</g>
<g>
</g>
<g>
</g>
<g>
</g>
<g>
</g>
<g>
</g>
<g>
</g>
<g>
</g>
</svg>
