<?xml version="1.0" encoding="utf-8"?>
<!-- Generator: Adobe Illustrator 24.1.1, SVG Export Plug-In . SVG Version: 6.00 Build 0)  -->
<svg version="1.1" id="Layer_1" xmlns="http://www.w3.org/2000/svg" xmlns:xlink="http://www.w3.org/1999/xlink" x="0px" y="0px"
	 width="400px" height="400px" viewBox="0 0 400 400" enable-background="new 0 0 400 400" xml:space="preserve">
<path fill="#3FBBFE" d="M368,224H87c-13.255,0-24-10.745-24-24v0c0-13.255,10.745-24,24-24h281c13.255,0,24,10.745,24,24v0
	C392,213.255,381.255,224,368,224z"/>
<path fill="#14E0FE" d="M100.931,97.977l-85.454,85.454c-9.125,9.125-9.125,23.921,0,33.046l0,0c9.125,9.125,23.921,9.125,33.046,0
	l85.454-85.454c9.125-9.125,9.125-23.921,0-33.046l0,0C124.852,88.852,110.056,88.852,100.931,97.977z"/>
<path fill="#3ABFFE" d="M134.269,268.653l-85.454-85.454c-9.125-9.125-23.921-9.125-33.046,0l0,0
	c-9.125,9.125-9.125,23.921,0,33.046l85.454,85.454c9.125,9.125,23.921,9.125,33.046,0l0,0
	C143.394,292.573,143.394,277.778,134.269,268.653z"/>
<g>
</g>
<g>
</g>
<g>
</g>
<g>
</g>
<g>
</g>
<g>
</g>
<g>
</g>
<g>
</g>
<g>
</g>
<g>
</g>
<g>
</g>
<g>
</g>
<g>
</g>
<g>
</g>
<g>
</g>
</svg>
