<?xml version="1.0" encoding="utf-8"?>
<!-- Generator: Adobe Illustrator 24.1.1, SVG Export Plug-In . SVG Version: 6.00 Build 0)  -->
<svg version="1.1" id="Layer_1" xmlns="http://www.w3.org/2000/svg" xmlns:xlink="http://www.w3.org/1999/xlink" x="0px" y="0px"
	 width="400px" height="400px" viewBox="0 0 400 400" enable-background="new 0 0 400 400" xml:space="preserve">
<g>
	<g>
		<path fill="#3498DB" d="M325.056,115H74.611c-2.55,0-4.736-1.647-5.439-4.098c-0.704-2.451,0.276-5.006,2.438-6.359
			l125.221-78.383c1.825-1.141,4.182-1.142,6.007,0.001l125.22,78.382c2.161,1.352,3.141,3.907,2.438,6.358S327.605,115,325.056,115
			z M82.763,107h234.141l-117.07-73.281L82.763,107z"/>
	</g>
	<g>
		<g>
			<path fill="#3498DB" d="M296.302,141H103.365c-4.429,0-8.032-3.603-8.032-8.032v-12.937c0-4.429,3.603-8.032,8.032-8.032h192.937
				c4.429,0,8.031,3.603,8.031,8.032v12.937C304.333,137.397,300.73,141,296.302,141z M103.365,119
				c-0.569,0-1.032,0.463-1.032,1.032v12.937c0,0.569,0.463,1.032,1.032,1.032h192.937c0.568,0,1.031-0.463,1.031-1.032v-12.937
				c0-0.569-0.463-1.032-1.031-1.032H103.365z"/>
		</g>
		<g>
			<g>
				<path fill="#3498DB" d="M294.304,292h-146.47v-7h146.47c0.567,0,1.029-0.462,1.029-1.03V258.03c0-0.568-0.462-1.03-1.029-1.03
					h-192.94c-0.568,0-1.03,0.462-1.03,1.03v25.939c0,0.568,0.462,1.03,1.03,1.03h30.47v7h-30.47c-4.428,0-8.03-3.603-8.03-8.03
					V258.03c0-4.428,3.602-8.03,8.03-8.03h192.94c4.428,0,8.029,3.603,8.029,8.03v25.939C302.333,288.397,298.731,292,294.304,292z"
					/>
			</g>
			<g>
				<path fill="#3498DB" d="M214.45,377h-30.234c-10.412,0-18.883-8.471-18.883-18.883v-30.234c0-10.412,8.471-18.883,18.883-18.883
					h30.234c10.412,0,18.883,8.471,18.883,18.883v30.234C233.333,368.529,224.862,377,214.45,377z M184.216,316
					c-6.552,0-11.883,5.331-11.883,11.883v30.234c0,6.552,5.331,11.883,11.883,11.883h30.234c6.552,0,11.883-5.331,11.883-11.883
					v-30.234c0-6.552-5.331-11.883-11.883-11.883H184.216z"/>
			</g>
			<g>
				<path fill="#3498DB" d="M165.333,349h-84c-3.309,0-6-2.691-6-6s2.691-6,6-6h84c3.309,0,6,2.691,6,6S168.642,349,165.333,349z"/>
			</g>
			<g>
				<path fill="#3498DB" d="M318.333,349h-84c-3.309,0-6-2.691-6-6s2.691-6,6-6h84c3.309,0,6,2.691,6,6S321.642,349,318.333,349z"/>
			</g>
			<g>
				<rect x="194.333" y="288.5" fill="#3498DB" width="7" height="24"/>
			</g>
		</g>
		<g>
			<rect x="108.578" y="137.5" fill="#3498DB" width="7" height="116"/>
		</g>
		<g>
			<rect x="136.152" y="137.5" fill="#3498DB" width="7" height="116"/>
		</g>
		<g>
			<rect x="180.067" y="137.5" fill="#3498DB" width="7" height="116"/>
		</g>
		<g>
			<rect x="207.982" y="137.5" fill="#3498DB" width="7" height="116"/>
		</g>
		<g>
			<rect x="252.237" y="137.5" fill="#3498DB" width="7" height="116"/>
		</g>
		<g>
			<rect x="279.134" y="137.5" fill="#3498DB" width="7" height="24"/>
		</g>
		<g>
			<rect x="279.134" y="176.5" fill="#3498DB" width="7" height="77"/>
		</g>
	</g>
	<g>
		<path fill="#3498DB" d="M199.833,96c-11.58,0-21-9.42-21-21s9.42-21,21-21s21,9.42,21,21S211.413,96,199.833,96z M199.833,62
			c-7.168,0-13,5.832-13,13s5.832,13,13,13c7.167,0,13-5.832,13-13S207.001,62,199.833,62z"/>
	</g>
</g>
<g>
</g>
<g>
</g>
<g>
</g>
<g>
</g>
<g>
</g>
<g>
</g>
<g>
</g>
<g>
</g>
<g>
</g>
<g>
</g>
<g>
</g>
<g>
</g>
<g>
</g>
<g>
</g>
<g>
</g>
</svg>
