<?xml version="1.0" encoding="utf-8"?>
<!-- Generator: Adobe Illustrator 24.1.1, SVG Export Plug-In . SVG Version: 6.00 Build 0)  -->
<svg version="1.1" id="Layer_1" xmlns="http://www.w3.org/2000/svg" xmlns:xlink="http://www.w3.org/1999/xlink" x="0px" y="0px"
	 width="500px" height="500px" viewBox="0 0 500 500" enable-background="new 0 0 500 500" xml:space="preserve">
<path fill="none" stroke="#000000" stroke-miterlimit="10" d="M671.655,222"/>
<g>
	<g>
		<ellipse fill="#CD0000" cx="311.53" cy="323.59" rx="135" ry="129.5"/>
		<path fill="#A80000" d="M446.618,323.59c0,71.52-60.44,129.5-135,129.5h-0.45v-259h0.45
			C386.178,194.09,446.618,252.07,446.618,323.59z"/>
		<path fill="#CD0000" d="M311.168,113.59c0,0-103,99-127,163s12,97,12,97h115V113.59z"/>
		<path fill="#A80000" d="M310.918,113.59c0,0,103,99,127,163s-12,97-12,97h-115V113.59z"/>
	</g>
	<g>
		<g>
			<ellipse fill="#FF8066" cx="188.363" cy="257.5" rx="135" ry="129.5"/>
			<path fill="#FF4D4D" d="M323.45,257.5c0,71.52-60.44,129.5-135,129.5H188V128h0.45C263.01,128,323.45,185.98,323.45,257.5z"/>
			<g>
				<path fill="#FF8066" d="M188,47.5c0,0-103,99-127,163s12,97,12,97h115V47.5z"/>
				<path fill="#FF4D4D" d="M187.75,47.5c0,0,103,99,127,163s-12,97-12,97h-115V47.5z"/>
			</g>
		</g>
		<g>
			<g>
				<circle fill="#FFF5F5" cx="188.25" cy="257.875" r="79"/>
				<path fill="#ECE6F2" d="M266.75,257.875c0,43.63-35.37,79-79,79v-158C231.38,178.875,266.75,214.245,266.75,257.875z"/>
			</g>
			<g>
				<rect x="176.25" y="223.875" fill="#FF4D4D" width="12" height="68"/>
				
					<rect x="154.25" y="246.875" transform="matrix(6.123234e-17 -1 1 6.123234e-17 -92.625 423.125)" fill="#FF4D4D" width="22" height="22"/>
				
					<rect x="200.25" y="246.875" transform="matrix(6.123234e-17 -1 1 6.123234e-17 -46.625 469.125)" fill="#CD0000" width="22" height="22"/>
				<rect x="188.25" y="223.875" fill="#CD0000" width="12" height="68"/>
			</g>
		</g>
	</g>
</g>
<g>
</g>
<g>
</g>
<g>
</g>
<g>
</g>
<g>
</g>
<g>
</g>
<g>
</g>
<g>
</g>
<g>
</g>
<g>
</g>
<g>
</g>
<g>
</g>
<g>
</g>
<g>
</g>
<g>
</g>
</svg>
