<?xml version="1.0" encoding="utf-8"?>
<!-- Generator: Adobe Illustrator 24.1.1, SVG Export Plug-In . SVG Version: 6.00 Build 0)  -->
<svg version="1.1" id="Layer_1" xmlns="http://www.w3.org/2000/svg" xmlns:xlink="http://www.w3.org/1999/xlink" x="0px" y="0px"
	 width="500px" height="500px" viewBox="0 0 500 500" enable-background="new 0 0 500 500" xml:space="preserve">
<path fill="#459DD6" d="M181,158c0,0-30,30-12,58c0,0,11,33,63,74s58,32,84,20s89,88,89,88s2,28-47,35s-106-28-106-28s-69-44-110-89
	s-65-87-65-87S12,118,81,73S181,158,181,158z"/>
<path fill="#2BB9EB" d="M189.251,154.749L166.18,177.82c-10.355,10.355-27.144,10.355-37.499,0L70.18,119.319
	c-10.355-10.355-10.355-27.144,0-37.499l23.071-23.071c10.355-10.355,27.144-10.355,37.499,0l58.501,58.501
	C199.606,127.606,199.606,144.394,189.251,154.749z"/>
<path fill="#2BB9EB" d="M424.387,390.358l-23.071,23.071c-10.355,10.355-27.144,10.355-37.499,0l-58.501-58.501
	c-10.355-10.355-10.355-27.144,0-37.499l23.071-23.071c10.355-10.355,27.144-10.355,37.499,0l58.501,58.501
	C434.742,363.214,434.742,380.003,424.387,390.358z"/>
<path fill="#1EABD1" d="M421.5,379.5l-29.061,29.061c-0.828,0.828-2.172,0.828-3,0l-1-1c-0.828-0.828-0.828-2.172,0-3L417.5,375.5
	c0.828-0.828,2.172-0.828,3,0l1,1C422.328,377.328,422.328,378.672,421.5,379.5z"/>
<g>
</g>
<g>
</g>
<g>
</g>
<g>
</g>
<g>
</g>
<g>
</g>
<g>
</g>
<g>
</g>
<g>
</g>
<g>
</g>
<g>
</g>
<g>
</g>
<g>
</g>
<g>
</g>
<g>
</g>
</svg>
