<?xml version="1.0" encoding="utf-8"?>
<!-- Generator: Adobe Illustrator 24.1.1, SVG Export Plug-In . SVG Version: 6.00 Build 0)  -->
<svg version="1.1" id="Layer_1" xmlns="http://www.w3.org/2000/svg" xmlns:xlink="http://www.w3.org/1999/xlink" x="0px" y="0px"
	 width="400px" height="400px" viewBox="0 0 400 400" enable-background="new 0 0 400 400" xml:space="preserve">
<g>
	<g>
		<g>
			<defs>
				<circle id="SVGID_1_" cx="204.607" cy="195.864" r="172"/>
			</defs>
			<clipPath id="SVGID_2_">
				<use xlink:href="#SVGID_1_"  overflow="visible"/>
			</clipPath>
			<path clip-path="url(#SVGID_2_)" fill="#CCE0F4" d="M32.607,23.864v344V23.864z"/>
			<rect x="32.607" y="23.864" clip-path="url(#SVGID_2_)" fill="#CCE0F4" width="0.246" height="344"/>
			<rect x="32.852" y="23.864" clip-path="url(#SVGID_2_)" fill="#C8DFF3" width="0.246" height="344"/>
			<rect x="33.098" y="23.864" clip-path="url(#SVGID_2_)" fill="#C5DDF3" width="0.246" height="344"/>
			<rect x="33.343" y="23.864" clip-path="url(#SVGID_2_)" fill="#C1DCF2" width="0.246" height="344"/>
			<rect x="33.589" y="23.864" clip-path="url(#SVGID_2_)" fill="#BEDBF2" width="0.246" height="344"/>
			<rect x="33.835" y="23.864" clip-path="url(#SVGID_2_)" fill="#BBD9F1" width="0.246" height="344"/>
			<rect x="34.08" y="23.864" clip-path="url(#SVGID_2_)" fill="#B7D8F1" width="0.246" height="344"/>
			<rect x="34.326" y="23.864" clip-path="url(#SVGID_2_)" fill="#B4D7F0" width="0.246" height="344"/>
			<rect x="34.571" y="23.864" clip-path="url(#SVGID_2_)" fill="#B1D5EF" width="0.246" height="344"/>
			<rect x="34.817" y="23.864" clip-path="url(#SVGID_2_)" fill="#AED4EF" width="0.246" height="344"/>
			<rect x="35.062" y="23.864" clip-path="url(#SVGID_2_)" fill="#ABD3EE" width="0.246" height="344"/>
			<rect x="35.308" y="23.864" clip-path="url(#SVGID_2_)" fill="#A7D2EE" width="0.246" height="344"/>
			<rect x="35.554" y="23.864" clip-path="url(#SVGID_2_)" fill="#A4D1ED" width="0.246" height="344"/>
			<rect x="35.799" y="23.864" clip-path="url(#SVGID_2_)" fill="#A1CFED" width="0.246" height="344"/>
			<rect x="36.045" y="23.864" clip-path="url(#SVGID_2_)" fill="#9FCEEC" width="0.246" height="344"/>
			<rect x="36.29" y="23.864" clip-path="url(#SVGID_2_)" fill="#9CCDEC" width="0.246" height="344"/>
			<rect x="36.536" y="23.864" clip-path="url(#SVGID_2_)" fill="#99CCEB" width="0.246" height="344"/>
			<rect x="36.781" y="23.864" clip-path="url(#SVGID_2_)" fill="#96CBEB" width="0.246" height="344"/>
			<rect x="37.027" y="23.864" clip-path="url(#SVGID_2_)" fill="#93CAEB" width="0.246" height="344"/>
			<rect x="37.273" y="23.864" clip-path="url(#SVGID_2_)" fill="#91C9EA" width="0.246" height="344"/>
			<rect x="37.518" y="23.864" clip-path="url(#SVGID_2_)" fill="#8EC8EA" width="0.246" height="344"/>
			<rect x="37.764" y="23.864" clip-path="url(#SVGID_2_)" fill="#8BC7E9" width="0.246" height="344"/>
			<rect x="38.009" y="23.864" clip-path="url(#SVGID_2_)" fill="#89C6E9" width="0.246" height="344"/>
			<rect x="38.255" y="23.864" clip-path="url(#SVGID_2_)" fill="#86C5E8" width="0.246" height="344"/>
			<rect x="38.5" y="23.864" clip-path="url(#SVGID_2_)" fill="#84C4E8" width="0.246" height="344"/>
			<rect x="38.746" y="23.864" clip-path="url(#SVGID_2_)" fill="#81C3E8" width="0.246" height="344"/>
			<rect x="38.992" y="23.864" clip-path="url(#SVGID_2_)" fill="#7FC2E7" width="0.246" height="344"/>
			<rect x="39.237" y="23.864" clip-path="url(#SVGID_2_)" fill="#7DC1E7" width="0.246" height="344"/>
			<rect x="39.483" y="23.864" clip-path="url(#SVGID_2_)" fill="#7AC0E6" width="0.246" height="344"/>
			<rect x="39.728" y="23.864" clip-path="url(#SVGID_2_)" fill="#78BFE6" width="0.246" height="344"/>
			<rect x="39.974" y="23.864" clip-path="url(#SVGID_2_)" fill="#76BEE6" width="0.246" height="344"/>
			<rect x="40.219" y="23.864" clip-path="url(#SVGID_2_)" fill="#74BDE5" width="0.246" height="344"/>
			<rect x="40.465" y="23.864" clip-path="url(#SVGID_2_)" fill="#72BDE5" width="0.246" height="344"/>
			<rect x="40.711" y="23.864" clip-path="url(#SVGID_2_)" fill="#6FBCE5" width="0.246" height="344"/>
			<rect x="40.956" y="23.864" clip-path="url(#SVGID_2_)" fill="#6DBBE4" width="0.246" height="344"/>
			<rect x="41.202" y="23.864" clip-path="url(#SVGID_2_)" fill="#6BBAE4" width="0.246" height="344"/>
			<rect x="41.447" y="23.864" clip-path="url(#SVGID_2_)" fill="#69B9E4" width="0.246" height="344"/>
			<rect x="41.693" y="23.864" clip-path="url(#SVGID_2_)" fill="#67B9E3" width="0.246" height="344"/>
			<rect x="41.938" y="23.864" clip-path="url(#SVGID_2_)" fill="#65B8E3" width="0.246" height="344"/>
			<rect x="42.184" y="23.864" clip-path="url(#SVGID_2_)" fill="#64B7E3" width="0.246" height="344"/>
			<rect x="42.43" y="23.864" clip-path="url(#SVGID_2_)" fill="#62B6E2" width="0.246" height="344"/>
			<rect x="42.675" y="23.864" clip-path="url(#SVGID_2_)" fill="#60B6E2" width="0.246" height="344"/>
			<rect x="42.921" y="23.864" clip-path="url(#SVGID_2_)" fill="#5EB5E2" width="0.246" height="344"/>
			<rect x="43.166" y="23.864" clip-path="url(#SVGID_2_)" fill="#5CB4E1" width="0.246" height="344"/>
			<rect x="43.412" y="23.864" clip-path="url(#SVGID_2_)" fill="#5BB4E1" width="0.246" height="344"/>
			<rect x="43.657" y="23.864" clip-path="url(#SVGID_2_)" fill="#59B3E1" width="0.246" height="344"/>
			<rect x="43.903" y="23.864" clip-path="url(#SVGID_2_)" fill="#57B2E1" width="0.246" height="344"/>
			<rect x="44.149" y="23.864" clip-path="url(#SVGID_2_)" fill="#56B2E0" width="0.246" height="344"/>
			<rect x="44.394" y="23.864" clip-path="url(#SVGID_2_)" fill="#54B1E0" width="0.246" height="344"/>
			<rect x="44.64" y="23.864" clip-path="url(#SVGID_2_)" fill="#53B1E0" width="0.246" height="344"/>
			<rect x="44.885" y="23.864" clip-path="url(#SVGID_2_)" fill="#51B0E0" width="0.246" height="344"/>
			<rect x="45.131" y="23.864" clip-path="url(#SVGID_2_)" fill="#50AFDF" width="0.246" height="344"/>
			<rect x="45.376" y="23.864" clip-path="url(#SVGID_2_)" fill="#4EAFDF" width="0.246" height="344"/>
			<rect x="45.622" y="23.864" clip-path="url(#SVGID_2_)" fill="#4DAEDF" width="0.246" height="344"/>
			<rect x="45.868" y="23.864" clip-path="url(#SVGID_2_)" fill="#4BAEDF" width="0.246" height="344"/>
			<rect x="46.113" y="23.864" clip-path="url(#SVGID_2_)" fill="#4AADDE" width="0.246" height="344"/>
			<rect x="46.359" y="23.864" clip-path="url(#SVGID_2_)" fill="#49ADDE" width="0.246" height="344"/>
			<rect x="46.604" y="23.864" clip-path="url(#SVGID_2_)" fill="#47ACDE" width="0.246" height="344"/>
			<rect x="46.85" y="23.864" clip-path="url(#SVGID_2_)" fill="#46ACDE" width="0.246" height="344"/>
			<rect x="47.095" y="23.864" clip-path="url(#SVGID_2_)" fill="#45ABDD" width="0.246" height="344"/>
			<rect x="47.341" y="23.864" clip-path="url(#SVGID_2_)" fill="#44ABDD" width="0.246" height="344"/>
			<rect x="47.587" y="23.864" clip-path="url(#SVGID_2_)" fill="#43AADD" width="0.246" height="344"/>
			<rect x="47.832" y="23.864" clip-path="url(#SVGID_2_)" fill="#41AADD" width="0.246" height="344"/>
			<rect x="48.078" y="23.864" clip-path="url(#SVGID_2_)" fill="#40A9DD" width="0.246" height="344"/>
			<rect x="48.323" y="23.864" clip-path="url(#SVGID_2_)" fill="#3FA9DD" width="0.246" height="344"/>
			<rect x="48.569" y="23.864" clip-path="url(#SVGID_2_)" fill="#3EA9DC" width="0.246" height="344"/>
			<rect x="48.814" y="23.864" clip-path="url(#SVGID_2_)" fill="#3DA8DC" width="0.246" height="344"/>
			<rect x="49.06" y="23.864" clip-path="url(#SVGID_2_)" fill="#3CA8DC" width="0.246" height="344"/>
			<rect x="49.306" y="23.864" clip-path="url(#SVGID_2_)" fill="#3BA7DC" width="0.246" height="344"/>
			<rect x="49.551" y="23.864" clip-path="url(#SVGID_2_)" fill="#3AA7DC" width="0.246" height="344"/>
			<rect x="49.797" y="23.864" clip-path="url(#SVGID_2_)" fill="#39A7DC" width="0.246" height="344"/>
			<rect x="50.042" y="23.864" clip-path="url(#SVGID_2_)" fill="#38A6DB" width="0.246" height="344"/>
			<rect x="50.288" y="23.864" clip-path="url(#SVGID_2_)" fill="#37A6DB" width="0.246" height="344"/>
			<rect x="50.533" y="23.864" clip-path="url(#SVGID_2_)" fill="#36A6DB" width="0.246" height="344"/>
			<rect x="50.779" y="23.864" clip-path="url(#SVGID_2_)" fill="#36A5DB" width="0.246" height="344"/>
			<rect x="51.025" y="23.864" clip-path="url(#SVGID_2_)" fill="#35A5DB" width="0.246" height="344"/>
			<rect x="51.27" y="23.864" clip-path="url(#SVGID_2_)" fill="#34A5DB" width="0.246" height="344"/>
			<rect x="51.516" y="23.864" clip-path="url(#SVGID_2_)" fill="#33A4DB" width="0.246" height="344"/>
			<rect x="51.761" y="23.864" clip-path="url(#SVGID_2_)" fill="#32A4DA" width="0.246" height="344"/>
			<rect x="52.007" y="23.864" clip-path="url(#SVGID_2_)" fill="#32A4DA" width="0.246" height="344"/>
			<rect x="52.252" y="23.864" clip-path="url(#SVGID_2_)" fill="#31A3DA" width="0.246" height="344"/>
			<rect x="52.498" y="23.864" clip-path="url(#SVGID_2_)" fill="#30A3DA" width="0.246" height="344"/>
			<rect x="52.743" y="23.864" clip-path="url(#SVGID_2_)" fill="#2FA3DA" width="0.246" height="344"/>
			<rect x="52.989" y="23.864" clip-path="url(#SVGID_2_)" fill="#2FA3DA" width="0.246" height="344"/>
			<rect x="53.235" y="23.864" clip-path="url(#SVGID_2_)" fill="#2EA2DA" width="0.246" height="344"/>
			<rect x="53.48" y="23.864" clip-path="url(#SVGID_2_)" fill="#2DA2DA" width="0.246" height="344"/>
			<rect x="53.726" y="23.864" clip-path="url(#SVGID_2_)" fill="#2DA2D9" width="0.246" height="344"/>
			<rect x="53.971" y="23.864" clip-path="url(#SVGID_2_)" fill="#2CA2D9" width="0.246" height="344"/>
			<rect x="54.217" y="23.864" clip-path="url(#SVGID_2_)" fill="#2CA1D9" width="0.246" height="344"/>
			<rect x="54.462" y="23.864" clip-path="url(#SVGID_2_)" fill="#2BA1D9" width="0.246" height="344"/>
			<rect x="54.708" y="23.864" clip-path="url(#SVGID_2_)" fill="#2AA1D9" width="0.246" height="344"/>
			<rect x="54.954" y="23.864" clip-path="url(#SVGID_2_)" fill="#2AA1D9" width="0.246" height="344"/>
			<rect x="55.199" y="23.864" clip-path="url(#SVGID_2_)" fill="#29A0D9" width="0.246" height="344"/>
			<rect x="55.445" y="23.864" clip-path="url(#SVGID_2_)" fill="#29A0D9" width="0.246" height="344"/>
			<rect x="55.69" y="23.864" clip-path="url(#SVGID_2_)" fill="#28A0D9" width="0.246" height="344"/>
			<rect x="55.936" y="23.864" clip-path="url(#SVGID_2_)" fill="#28A0D9" width="0.246" height="344"/>
			<rect x="56.181" y="23.864" clip-path="url(#SVGID_2_)" fill="#28A0D9" width="0.246" height="344"/>
			<rect x="56.427" y="23.864" clip-path="url(#SVGID_2_)" fill="#27A0D9" width="0.246" height="344"/>
			<rect x="56.673" y="23.864" clip-path="url(#SVGID_2_)" fill="#279FD8" width="0.246" height="344"/>
			<rect x="56.918" y="23.864" clip-path="url(#SVGID_2_)" fill="#269FD8" width="0.246" height="344"/>
			<rect x="57.164" y="23.864" clip-path="url(#SVGID_2_)" fill="#269FD8" width="0.246" height="344"/>
			<rect x="57.409" y="23.864" clip-path="url(#SVGID_2_)" fill="#259FD8" width="0.246" height="344"/>
			<rect x="57.655" y="23.864" clip-path="url(#SVGID_2_)" fill="#259FD8" width="0.246" height="344"/>
			<rect x="57.9" y="23.864" clip-path="url(#SVGID_2_)" fill="#259FD8" width="0.246" height="344"/>
			<rect x="58.146" y="23.864" clip-path="url(#SVGID_2_)" fill="#249FD8" width="0.246" height="344"/>
			<rect x="58.392" y="23.864" clip-path="url(#SVGID_2_)" fill="#249ED8" width="0.246" height="344"/>
			<rect x="58.637" y="23.864" clip-path="url(#SVGID_2_)" fill="#249ED8" width="0.246" height="344"/>
			<rect x="58.883" y="23.864" clip-path="url(#SVGID_2_)" fill="#239ED8" width="0.246" height="344"/>
			<rect x="59.128" y="23.864" clip-path="url(#SVGID_2_)" fill="#239ED8" width="0.246" height="344"/>
			<rect x="59.374" y="23.864" clip-path="url(#SVGID_2_)" fill="#239ED8" width="0.246" height="344"/>
			<rect x="59.619" y="23.864" clip-path="url(#SVGID_2_)" fill="#239ED8" width="0.246" height="344"/>
			<rect x="59.865" y="23.864" clip-path="url(#SVGID_2_)" fill="#229ED8" width="0.246" height="344"/>
			<rect x="60.111" y="23.864" clip-path="url(#SVGID_2_)" fill="#229ED8" width="0.246" height="344"/>
			<rect x="60.356" y="23.864" clip-path="url(#SVGID_2_)" fill="#229ED8" width="0.246" height="344"/>
			<rect x="60.602" y="23.864" clip-path="url(#SVGID_2_)" fill="#229DD8" width="0.246" height="344"/>
			<rect x="60.847" y="23.864" clip-path="url(#SVGID_2_)" fill="#219DD8" width="0.246" height="344"/>
			<rect x="61.093" y="23.864" clip-path="url(#SVGID_2_)" fill="#219DD8" width="0.246" height="344"/>
			<rect x="61.338" y="23.864" clip-path="url(#SVGID_2_)" fill="#219DD8" width="0.246" height="344"/>
			<rect x="61.584" y="23.864" clip-path="url(#SVGID_2_)" fill="#219DD7" width="0.246" height="344"/>
			<rect x="61.83" y="23.864" clip-path="url(#SVGID_2_)" fill="#219DD7" width="0.246" height="344"/>
			<rect x="62.075" y="23.864" clip-path="url(#SVGID_2_)" fill="#209DD7" width="0.246" height="344"/>
			<rect x="62.321" y="23.864" clip-path="url(#SVGID_2_)" fill="#209DD7" width="0.246" height="344"/>
			<rect x="62.566" y="23.864" clip-path="url(#SVGID_2_)" fill="#209DD7" width="0.246" height="344"/>
			<rect x="62.812" y="23.864" clip-path="url(#SVGID_2_)" fill="#209DD7" width="0.246" height="344"/>
			<rect x="63.057" y="23.864" clip-path="url(#SVGID_2_)" fill="#209DD7" width="0.246" height="344"/>
			<rect x="63.303" y="23.864" clip-path="url(#SVGID_2_)" fill="#209DD7" width="0.246" height="344"/>
			<rect x="63.549" y="23.864" clip-path="url(#SVGID_2_)" fill="#209DD7" width="0.246" height="344"/>
			<rect x="63.794" y="23.864" clip-path="url(#SVGID_2_)" fill="#209DD7" width="0.246" height="344"/>
			<rect x="64.04" y="23.864" clip-path="url(#SVGID_2_)" fill="#1F9DD7" width="0.246" height="344"/>
			<rect x="64.285" y="23.864" clip-path="url(#SVGID_2_)" fill="#1F9DD7" width="0.246" height="344"/>
			<rect x="64.531" y="23.864" clip-path="url(#SVGID_2_)" fill="#1F9CD7" width="0.246" height="344"/>
			<rect x="64.776" y="23.864" clip-path="url(#SVGID_2_)" fill="#1F9CD7" width="0.246" height="344"/>
			<rect x="65.022" y="23.864" clip-path="url(#SVGID_2_)" fill="#1F9CD7" width="0.246" height="344"/>
			<rect x="65.268" y="23.864" clip-path="url(#SVGID_2_)" fill="#1F9CD7" width="0.246" height="344"/>
			<rect x="65.513" y="23.864" clip-path="url(#SVGID_2_)" fill="#1F9CD7" width="0.246" height="344"/>
			<rect x="65.759" y="23.864" clip-path="url(#SVGID_2_)" fill="#1F9CD7" width="0.246" height="344"/>
			<rect x="66.004" y="23.864" clip-path="url(#SVGID_2_)" fill="#1F9CD7" width="0.246" height="344"/>
			<rect x="66.25" y="23.864" clip-path="url(#SVGID_2_)" fill="#1F9CD7" width="0.246" height="344"/>
			<rect x="66.495" y="23.864" clip-path="url(#SVGID_2_)" fill="#1F9CD7" width="0.246" height="344"/>
			<rect x="66.741" y="23.864" clip-path="url(#SVGID_2_)" fill="#1F9CD7" width="0.246" height="344"/>
			<rect x="66.987" y="23.864" clip-path="url(#SVGID_2_)" fill="#1E9CD7" width="0.246" height="344"/>
			<rect x="67.232" y="23.864" clip-path="url(#SVGID_2_)" fill="#1E9CD7" width="0.246" height="344"/>
			<rect x="67.478" y="23.864" clip-path="url(#SVGID_2_)" fill="#1E9CD7" width="0.246" height="344"/>
			<rect x="67.723" y="23.864" clip-path="url(#SVGID_2_)" fill="#1E9CD7" width="0.246" height="344"/>
			<rect x="67.969" y="23.864" clip-path="url(#SVGID_2_)" fill="#1E9CD7" width="0.246" height="344"/>
			<rect x="68.214" y="23.864" clip-path="url(#SVGID_2_)" fill="#1E9CD7" width="0.246" height="344"/>
			<rect x="68.46" y="23.864" clip-path="url(#SVGID_2_)" fill="#1E9CD7" width="0.246" height="344"/>
			<rect x="68.706" y="23.864" clip-path="url(#SVGID_2_)" fill="#1E9CD7" width="0.246" height="344"/>
			<rect x="68.951" y="23.864" clip-path="url(#SVGID_2_)" fill="#1E9CD7" width="0.246" height="344"/>
			<rect x="69.197" y="23.864" clip-path="url(#SVGID_2_)" fill="#1E9CD7" width="0.246" height="344"/>
			<rect x="69.442" y="23.864" clip-path="url(#SVGID_2_)" fill="#1E9CD7" width="0.246" height="344"/>
			<rect x="69.688" y="23.864" clip-path="url(#SVGID_2_)" fill="#1E9CD7" width="0.246" height="344"/>
			<rect x="69.933" y="23.864" clip-path="url(#SVGID_2_)" fill="#1E9CD7" width="0.246" height="344"/>
			<rect x="70.179" y="23.864" clip-path="url(#SVGID_2_)" fill="#1E9CD7" width="0.246" height="344"/>
			<rect x="70.425" y="23.864" clip-path="url(#SVGID_2_)" fill="#1E9CD7" width="0.246" height="344"/>
			<rect x="70.67" y="23.864" clip-path="url(#SVGID_2_)" fill="#1E9CD7" width="0.246" height="344"/>
			<rect x="70.916" y="23.864" clip-path="url(#SVGID_2_)" fill="#1E9CD7" width="0.246" height="344"/>
			<rect x="71.161" y="23.864" clip-path="url(#SVGID_2_)" fill="#1E9CD7" width="0.246" height="344"/>
			<rect x="71.407" y="23.864" clip-path="url(#SVGID_2_)" fill="#1E9CD7" width="0.246" height="344"/>
			<rect x="71.652" y="23.864" clip-path="url(#SVGID_2_)" fill="#1E9CD7" width="0.246" height="344"/>
			<rect x="71.898" y="23.864" clip-path="url(#SVGID_2_)" fill="#1E9CD7" width="0.246" height="344"/>
			<rect x="72.144" y="23.864" clip-path="url(#SVGID_2_)" fill="#1E9CD7" width="0.246" height="344"/>
			<rect x="72.389" y="23.864" clip-path="url(#SVGID_2_)" fill="#1E9CD7" width="0.246" height="344"/>
			<rect x="72.635" y="23.864" clip-path="url(#SVGID_2_)" fill="#1E9CD7" width="0.246" height="344"/>
			<rect x="72.88" y="23.864" clip-path="url(#SVGID_2_)" fill="#1E9CD7" width="0.246" height="344"/>
			<rect x="73.126" y="23.864" clip-path="url(#SVGID_2_)" fill="#1E9CD7" width="0.246" height="344"/>
			<rect x="73.371" y="23.864" clip-path="url(#SVGID_2_)" fill="#1E9CD7" width="0.246" height="344"/>
			<rect x="73.617" y="23.864" clip-path="url(#SVGID_2_)" fill="#1E9CD7" width="0.246" height="344"/>
			<rect x="73.863" y="23.864" clip-path="url(#SVGID_2_)" fill="#1E9CD7" width="0.246" height="344"/>
			<rect x="74.108" y="23.864" clip-path="url(#SVGID_2_)" fill="#1E9CD7" width="0.246" height="344"/>
			<rect x="74.354" y="23.864" clip-path="url(#SVGID_2_)" fill="#1E9CD7" width="0.246" height="344"/>
			<rect x="74.599" y="23.864" clip-path="url(#SVGID_2_)" fill="#1E9CD7" width="0.246" height="344"/>
			<rect x="74.845" y="23.864" clip-path="url(#SVGID_2_)" fill="#1E9CD7" width="0.246" height="344"/>
			<rect x="75.09" y="23.864" clip-path="url(#SVGID_2_)" fill="#1E9CD7" width="0.246" height="344"/>
			<rect x="75.336" y="23.864" clip-path="url(#SVGID_2_)" fill="#1E9CD7" width="2.626" height="344"/>
			<rect x="77.962" y="23.864" clip-path="url(#SVGID_2_)" fill="#1D9BD6" width="2.626" height="344"/>
			<rect x="80.589" y="23.864" clip-path="url(#SVGID_2_)" fill="#1C9AD6" width="2.626" height="344"/>
			<rect x="83.215" y="23.864" clip-path="url(#SVGID_2_)" fill="#1C99D5" width="2.626" height="344"/>
			<rect x="85.841" y="23.864" clip-path="url(#SVGID_2_)" fill="#1B98D4" width="2.626" height="344"/>
			<rect x="88.468" y="23.864" clip-path="url(#SVGID_2_)" fill="#1A97D4" width="2.626" height="344"/>
			<rect x="91.094" y="23.864" clip-path="url(#SVGID_2_)" fill="#1996D3" width="2.626" height="344"/>
			<rect x="93.72" y="23.864" clip-path="url(#SVGID_2_)" fill="#1895D2" width="2.626" height="344"/>
			<rect x="96.347" y="23.864" clip-path="url(#SVGID_2_)" fill="#1894D2" width="2.626" height="344"/>
			<rect x="98.973" y="23.864" clip-path="url(#SVGID_2_)" fill="#1793D1" width="2.626" height="344"/>
			<rect x="101.599" y="23.864" clip-path="url(#SVGID_2_)" fill="#1692D0" width="2.626" height="344"/>
			<rect x="104.226" y="23.864" clip-path="url(#SVGID_2_)" fill="#1591D0" width="2.626" height="344"/>
			<rect x="106.852" y="23.864" clip-path="url(#SVGID_2_)" fill="#1590CF" width="2.626" height="344"/>
			<rect x="109.478" y="23.864" clip-path="url(#SVGID_2_)" fill="#148FCE" width="2.626" height="344"/>
			<rect x="112.105" y="23.864" clip-path="url(#SVGID_2_)" fill="#138ECE" width="2.626" height="344"/>
			<rect x="114.731" y="23.864" clip-path="url(#SVGID_2_)" fill="#128DCD" width="2.626" height="344"/>
			<rect x="117.357" y="23.864" clip-path="url(#SVGID_2_)" fill="#118CCC" width="2.626" height="344"/>
			<rect x="119.984" y="23.864" clip-path="url(#SVGID_2_)" fill="#118BCC" width="2.626" height="344"/>
			<rect x="122.61" y="23.864" clip-path="url(#SVGID_2_)" fill="#108ACB" width="2.626" height="344"/>
			<rect x="125.236" y="23.864" clip-path="url(#SVGID_2_)" fill="#0F89CB" width="2.626" height="344"/>
			<rect x="127.863" y="23.864" clip-path="url(#SVGID_2_)" fill="#0E87CA" width="2.626" height="344"/>
			<rect x="130.489" y="23.864" clip-path="url(#SVGID_2_)" fill="#0D86C9" width="2.626" height="344"/>
			<rect x="133.115" y="23.864" clip-path="url(#SVGID_2_)" fill="#0D85C9" width="2.626" height="344"/>
			<rect x="135.742" y="23.864" clip-path="url(#SVGID_2_)" fill="#0C84C8" width="2.626" height="344"/>
			<rect x="138.368" y="23.864" clip-path="url(#SVGID_2_)" fill="#0B83C7" width="2.626" height="344"/>
			<rect x="140.994" y="23.864" clip-path="url(#SVGID_2_)" fill="#0A82C7" width="2.626" height="344"/>
			<rect x="143.62" y="23.864" clip-path="url(#SVGID_2_)" fill="#0981C6" width="2.626" height="344"/>
			<rect x="146.247" y="23.864" clip-path="url(#SVGID_2_)" fill="#0980C5" width="2.626" height="344"/>
			<rect x="148.873" y="23.864" clip-path="url(#SVGID_2_)" fill="#087FC5" width="2.626" height="344"/>
			<rect x="151.499" y="23.864" clip-path="url(#SVGID_2_)" fill="#077EC4" width="2.626" height="344"/>
			<rect x="154.126" y="23.864" clip-path="url(#SVGID_2_)" fill="#067DC3" width="2.626" height="344"/>
			<rect x="156.752" y="23.864" clip-path="url(#SVGID_2_)" fill="#067CC3" width="2.626" height="344"/>
			<rect x="159.378" y="23.864" clip-path="url(#SVGID_2_)" fill="#057BC2" width="2.626" height="344"/>
			<rect x="162.005" y="23.864" clip-path="url(#SVGID_2_)" fill="#047AC1" width="2.626" height="344"/>
			<rect x="164.631" y="23.864" clip-path="url(#SVGID_2_)" fill="#0379C1" width="2.626" height="344"/>
			<rect x="167.257" y="23.864" clip-path="url(#SVGID_2_)" fill="#0278C0" width="2.626" height="344"/>
			<rect x="169.884" y="23.864" clip-path="url(#SVGID_2_)" fill="#0277BF" width="2.626" height="344"/>
			<rect x="172.51" y="23.864" clip-path="url(#SVGID_2_)" fill="#0176BF" width="2.626" height="344"/>
			<rect x="175.136" y="23.864" clip-path="url(#SVGID_2_)" fill="#0075BE" width="2.626" height="344"/>
			<rect x="177.763" y="23.864" clip-path="url(#SVGID_2_)" fill="#0075BE" width="5.049" height="344"/>
			<rect x="182.812" y="23.864" clip-path="url(#SVGID_2_)" fill="#0074BD" width="5.049" height="344"/>
			<rect x="187.861" y="23.864" clip-path="url(#SVGID_2_)" fill="#0074BC" width="5.049" height="344"/>
			<rect x="192.91" y="23.864" clip-path="url(#SVGID_2_)" fill="#0073BB" width="5.049" height="344"/>
			<rect x="197.959" y="23.864" clip-path="url(#SVGID_2_)" fill="#0072BA" width="5.049" height="344"/>
			<rect x="203.008" y="23.864" clip-path="url(#SVGID_2_)" fill="#0072B9" width="5.049" height="344"/>
			<rect x="208.057" y="23.864" clip-path="url(#SVGID_2_)" fill="#0071B8" width="5.049" height="344"/>
			<rect x="213.106" y="23.864" clip-path="url(#SVGID_2_)" fill="#0070B7" width="5.049" height="344"/>
			<rect x="218.155" y="23.864" clip-path="url(#SVGID_2_)" fill="#0070B6" width="5.049" height="344"/>
			<rect x="223.204" y="23.864" clip-path="url(#SVGID_2_)" fill="#006FB5" width="5.049" height="344"/>
			<rect x="228.253" y="23.864" clip-path="url(#SVGID_2_)" fill="#006EB4" width="5.049" height="344"/>
			<rect x="233.302" y="23.864" clip-path="url(#SVGID_2_)" fill="#006DB3" width="5.049" height="344"/>
			<rect x="238.351" y="23.864" clip-path="url(#SVGID_2_)" fill="#006DB2" width="5.049" height="344"/>
			<rect x="243.4" y="23.864" clip-path="url(#SVGID_2_)" fill="#006CB1" width="5.049" height="344"/>
			<rect x="248.449" y="23.864" clip-path="url(#SVGID_2_)" fill="#006BB0" width="5.049" height="344"/>
			<rect x="253.498" y="23.864" clip-path="url(#SVGID_2_)" fill="#006BAF" width="5.049" height="344"/>
			<rect x="258.547" y="23.864" clip-path="url(#SVGID_2_)" fill="#006AAE" width="5.049" height="344"/>
			<rect x="263.596" y="23.864" clip-path="url(#SVGID_2_)" fill="#0069AD" width="5.049" height="344"/>
			<rect x="268.645" y="23.864" clip-path="url(#SVGID_2_)" fill="#0069AC" width="5.049" height="344"/>
			<rect x="273.694" y="23.864" clip-path="url(#SVGID_2_)" fill="#0068AB" width="5.049" height="344"/>
			<rect x="278.743" y="23.864" clip-path="url(#SVGID_2_)" fill="#0067A9" width="5.049" height="344"/>
			<rect x="283.792" y="23.864" clip-path="url(#SVGID_2_)" fill="#0067A8" width="5.049" height="344"/>
			<rect x="288.841" y="23.864" clip-path="url(#SVGID_2_)" fill="#0066A7" width="5.049" height="344"/>
			<rect x="293.89" y="23.864" clip-path="url(#SVGID_2_)" fill="#0065A6" width="5.049" height="344"/>
			<rect x="298.939" y="23.864" clip-path="url(#SVGID_2_)" fill="#0065A5" width="5.049" height="344"/>
			<rect x="303.988" y="23.864" clip-path="url(#SVGID_2_)" fill="#0064A4" width="5.049" height="344"/>
			<rect x="309.037" y="23.864" clip-path="url(#SVGID_2_)" fill="#0063A3" width="5.049" height="344"/>
			<rect x="314.086" y="23.864" clip-path="url(#SVGID_2_)" fill="#0063A2" width="5.049" height="344"/>
			<rect x="319.135" y="23.864" clip-path="url(#SVGID_2_)" fill="#0062A1" width="5.049" height="344"/>
			<rect x="324.184" y="23.864" clip-path="url(#SVGID_2_)" fill="#0061A0" width="5.049" height="344"/>
			<rect x="329.233" y="23.864" clip-path="url(#SVGID_2_)" fill="#00609F" width="5.049" height="344"/>
			<rect x="334.282" y="23.864" clip-path="url(#SVGID_2_)" fill="#00609E" width="5.049" height="344"/>
			<rect x="339.331" y="23.864" clip-path="url(#SVGID_2_)" fill="#005F9D" width="5.049" height="344"/>
			<rect x="344.38" y="23.864" clip-path="url(#SVGID_2_)" fill="#005E9C" width="5.049" height="344"/>
			<rect x="349.429" y="23.864" clip-path="url(#SVGID_2_)" fill="#005E9B" width="5.049" height="344"/>
			<rect x="354.478" y="23.864" clip-path="url(#SVGID_2_)" fill="#005D9A" width="5.049" height="344"/>
			<rect x="359.527" y="23.864" clip-path="url(#SVGID_2_)" fill="#005C99" width="5.049" height="344"/>
			<rect x="364.576" y="23.864" clip-path="url(#SVGID_2_)" fill="#005C98" width="5.049" height="344"/>
			<rect x="369.625" y="23.864" clip-path="url(#SVGID_2_)" fill="#005B97" width="5.049" height="344"/>
			<rect x="374.674" y="23.864" clip-path="url(#SVGID_2_)" fill="#005B97" width="1.933" height="344"/>
		</g>
	</g>
	<g>
		<path fill="#FFFFFF" d="M253.284,316.363h-97.355c-39.603,0-71.822-32.22-71.822-71.822v-97.355
			c0-39.603,32.219-71.822,71.822-71.822h97.355c39.603,0,71.822,32.219,71.822,71.822v97.355
			C325.106,284.144,292.887,316.363,253.284,316.363z M155.929,97.364c-27.472,0-49.822,22.35-49.822,49.822v97.355
			c0,27.472,22.35,49.822,49.822,49.822h97.355c27.472,0,49.822-22.351,49.822-49.822v-97.355c0-27.472-22.351-49.822-49.822-49.822
			H155.929z"/>
	</g>
	<g>
		<g>
			<path fill="#FFFFFF" d="M270.037,159.665l-84.358,84.358c-3.905,3.905-10.237,3.905-14.142,0l0,0
				c-3.905-3.905-3.905-10.237,0-14.142l84.358-84.358c3.905-3.905,10.237-3.905,14.142,0v0
				C273.942,149.428,273.942,155.759,270.037,159.665z"/>
		</g>
		<g>
			<path fill="#FFFFFF" d="M187.47,242.19l-5.281,5.171c-2.451,2.4-6.384,2.358-8.784-0.093l-35.384-36.139
				c-2.4-2.451-2.358-6.384,0.093-8.784l5.281-5.171c2.451-2.4,6.384-2.358,8.784,0.093l35.384,36.139
				C189.962,235.857,189.921,239.79,187.47,242.19z"/>
		</g>
	</g>
</g>
<g>
</g>
<g>
</g>
<g>
</g>
<g>
</g>
<g>
</g>
<g>
</g>
<g>
</g>
<g>
</g>
<g>
</g>
<g>
</g>
<g>
</g>
<g>
</g>
<g>
</g>
<g>
</g>
<g>
</g>
</svg>
