<?xml version="1.0" encoding="utf-8"?>
<!-- Generator: Adobe Illustrator 24.1.1, SVG Export Plug-In . SVG Version: 6.00 Build 0)  -->
<svg version="1.1" id="Layer_1" xmlns="http://www.w3.org/2000/svg" xmlns:xlink="http://www.w3.org/1999/xlink" x="0px" y="0px"
	 width="500px" height="500px" viewBox="0 0 500 500" enable-background="new 0 0 500 500" xml:space="preserve">
<g>
	<g>
		<path fill="#039E8F" d="M367,257c0,0,29.872,3.362,28.936,26.681c0,0-0.553,15.553-23.745,20.936C349,310,376,281,376,281l-15-2
			l-9-4v-7l8-8L367,257z"/>
	</g>
	<g>
		<path fill="#17C3B2" d="M396,281.4V280C396,280,396.05,280.51,396,281.4z"/>
	</g>
	<g>
		<path fill="#D0D0D0" d="M366,273c0,0,13,2,15,8s-10,11-22,12S366,273,366,273z"/>
	</g>
	<g>
		<g>
			<circle fill="#10ADFF" cx="243.777" cy="224.851" r="140"/>
		</g>
		<g>
			<g>
				<g>
					<path fill="#FFFFFF" d="M236.223,177.989c0,0,32-35,58,4s-58,99-58,99V177.989z"/>
				</g>
				<g>
					<path fill="#FFFFFF" d="M236.323,177.989c0,0-32-35-58,4s58,99,58,99V177.989z"/>
				</g>
			</g>
			<g>
				<g>
					<circle fill="#FFFFFF" cx="277.223" cy="249.149" r="37"/>
					<path fill="#10ADFF" d="M277.224,289.148c-22.056,0-40-17.944-40-40c0-22.056,17.944-40,40-40s40,17.944,40,40
						C317.224,271.204,299.279,289.148,277.224,289.148z M277.224,215.148c-18.748,0-34,15.252-34,34c0,18.748,15.252,34,34,34
						s34-15.252,34-34C311.224,230.401,295.972,215.148,277.224,215.148z"/>
				</g>
				<g>
					<g>
						<rect x="272.223" y="229.149" fill="#10ADFF" width="10" height="40"/>
					</g>
					<g>
						
							<rect x="272.223" y="229.149" transform="matrix(3.464102e-07 -1 1 3.464102e-07 28.0747 526.3719)" fill="#10ADFF" width="10" height="40"/>
					</g>
				</g>
			</g>
		</g>
	</g>
	<g>
		<path fill="#F9F9F9" d="M361.666,292.528c0,0,0.334,1.472-49.666-1.528l-118-5c0,0-8-1-7,15v85c0,0-1,9,9,9h41l125-51l19-32v-30
			C381,282,378.331,292.056,361.666,292.528z"/>
	</g>
	<g>
		<g>
			<path fill="#17C3B2" d="M396,281.4V392c-5,22-37,24-37,24H218c-8,1-8-8-8-8v-91c0-10,7-9,7-9h121c5.09,0.17,9.74,0.11,13.98-0.13
				c8.47-0.48,15.32-1.72,20.85-3.4c0.03-0.01,0.05-0.02,0.08-0.03c19.42-5.97,22.58-17.6,23.04-22.34
				C395.97,281.84,395.99,281.61,396,281.4z"/>
		</g>
		<g>
			<path fill="#FFFFFF" d="M282,332h-8c0,0-3,0-3-3s3-4,3-4h10c0,0,7,1,8,8v23h8c0,0,2,1,2,3s-2,3-2,3h-8v28c0,0,1,8,17,2
				s14-28,14-28s0-2-4-2s-4,0-4,0s-4-1-3-4s4-3,4-3h9c0,0,6,1,6,8c0,0,5,27-20,36s-26-9-26-9v-27v-1h-8c0,0-2-1-2-3s2-3,2-3h8v-22
				C285,334,284,332,282,332z"/>
		</g>
		<g>
			<path fill="#039E8F" d="M190,401L190,401z"/>
		</g>
		<g>
			<path fill="#039E8F" d="M210,343.26V317c0-10,7-9,7-9h26.85C247.7,348,210,343.26,210,343.26z"/>
		</g>
		<g>
			<path fill="#039E8F" d="M243.44,416H218c-8,1-8-8-8-8v-22.96C210,385.04,247.79,381.17,243.44,416z"/>
		</g>
		<g>
			<path fill="#039E8F" d="M396,330.02c-5.8,3.91-15.8,8.57-30,7.98c0,0-7,0-4,18s20,13,20,13s7.4-2.69,14-5.34V330.02z"/>
		</g>
	</g>
</g>
<g>
</g>
<g>
</g>
<g>
</g>
<g>
</g>
<g>
</g>
<g>
</g>
<g>
</g>
<g>
</g>
<g>
</g>
<g>
</g>
<g>
</g>
<g>
</g>
<g>
</g>
<g>
</g>
<g>
</g>
</svg>
