<?xml version="1.0" encoding="utf-8"?>
<!-- Generator: Adobe Illustrator 24.1.1, SVG Export Plug-In . SVG Version: 6.00 Build 0)  -->
<svg version="1.1" id="Layer_1" xmlns="http://www.w3.org/2000/svg" xmlns:xlink="http://www.w3.org/1999/xlink" x="0px" y="0px"
	 width="400px" height="400px" viewBox="0 0 400 400" enable-background="new 0 0 400 400" xml:space="preserve">
<g>
	<g>
		<path fill="#A3D4F7" d="M322.681,96H77.085c-1.216,0-2.202-0.986-2.202-2.202V53.202c0-1.216,0.986-2.202,2.202-2.202h245.596
			c1.216,0,2.202,0.986,2.202,2.202v40.596C324.883,95.014,323.897,96,322.681,96z"/>
		<path fill="#2D85CC" d="M322.681,100H77.085c-3.42,0-6.202-2.782-6.202-6.202V53.202c0-3.42,2.782-6.202,6.202-6.202h245.596
			c3.42,0,6.202,2.782,6.202,6.202v40.596C328.883,97.218,326.101,100,322.681,100z M78.883,92h242V55h-242V92z"/>
	</g>
	<g>
		<path fill="#A3D4F7" d="M130.893,254.04L30.568,80.272c-0.608-1.053-0.247-2.4,0.806-3.008l43.216-24.951
			c1.053-0.608,2.4-0.247,3.008,0.806l100.325,173.768c0.608,1.053,0.247,2.4-0.806,3.008l-43.216,24.951
			C132.848,255.454,131.501,255.093,130.893,254.04z"/>
		<path fill="#2D85CC" d="M132.811,259.14c-2.145,0-4.233-1.111-5.381-3.098l0-0.002L27.104,82.271
			c-0.829-1.434-1.049-3.105-0.62-4.706c0.429-1.6,1.455-2.938,2.89-3.766l43.215-24.95c1.434-0.828,3.107-1.049,4.707-0.62
			c1.6,0.429,2.938,1.455,3.766,2.89l100.325,173.767c1.709,2.962,0.691,6.763-2.269,8.473l-43.217,24.95
			C134.927,258.872,133.862,259.14,132.811,259.14z M134.356,252.04l0-0.002c0,0-0.001-0.001-0.001-0.002L134.356,252.04z
			 M34.931,79.829l98.526,170.654l40.103-23.152L75.032,56.676L34.931,79.829z"/>
	</g>
	<g>
		<path fill="#A3D4F7" d="M268.342,253.78L368.667,80.011c0.608-1.053,0.247-2.4-0.806-3.008l-43.216-24.951
			c-1.053-0.608-2.4-0.247-3.008,0.806L221.312,226.627c-0.608,1.053-0.247,2.4,0.806,3.008l43.216,24.951
			C266.387,255.194,267.734,254.833,268.342,253.78z"/>
		<path fill="#2D85CC" d="M266.423,258.879c-1.051,0-2.114-0.267-3.088-0.827l-43.217-24.953c-1.434-0.826-2.461-2.164-2.891-3.766
			c-0.429-1.601-0.209-3.272,0.621-4.708L318.173,50.859c0.829-1.435,2.166-2.461,3.766-2.89c1.603-0.429,3.274-0.208,4.708,0.62
			l43.214,24.95c2.961,1.708,3.98,5.508,2.271,8.47l-100.326,173.77C270.658,257.767,268.568,258.879,266.423,258.879z
			 M264.882,251.771c-0.001,0.003-0.003,0.005-0.004,0.008L264.882,251.771z M225.675,227.069l40.102,23.153l98.527-170.654
			l-40.102-23.153L225.675,227.069z"/>
	</g>
</g>
<g>
	<circle fill="#A3D4F7" cx="199.617" cy="273.5" r="77.5"/>
	<path fill="#2D85CC" d="M199.617,355c-44.939,0-81.5-36.561-81.5-81.5s36.561-81.5,81.5-81.5s81.5,36.561,81.5,81.5
		S244.557,355,199.617,355z M199.617,200c-40.528,0-73.5,32.972-73.5,73.5s32.972,73.5,73.5,73.5c40.528,0,73.5-32.972,73.5-73.5
		S240.146,200,199.617,200z"/>
</g>
<g>
	<line fill="#A3D4F7" x1="89.365" y1="73.5" x2="308.663" y2="73.5"/>
	<rect x="89.365" y="69.5" fill="#2D85CC" width="219.298" height="8"/>
</g>
<g>
	<line fill="#A3D4F7" x1="255.268" y1="219.57" x2="347.325" y2="65.147"/>
	
		<rect x="211.406" y="138.359" transform="matrix(0.512 -0.859 0.859 0.512 24.7452 328.2751)" fill="#2D85CC" width="179.78" height="7.999"/>
</g>
<g>
	<line fill="#A3D4F7" x1="141" y1="223" x2="52.361" y2="65.147"/>
	
		<rect x="92.68" y="53.555" transform="matrix(0.8719 -0.4896 0.4896 0.8719 -58.1599 65.7872)" fill="#2D85CC" width="8" height="181.037"/>
</g>
<g>
	<circle fill="#A3D4F7" cx="199.356" cy="273.878" r="55.644"/>
	<path fill="#2D85CC" d="M199.356,333.521c-32.888,0-59.644-26.756-59.644-59.644s26.756-59.644,59.644-59.644
		S259,240.99,259,273.878S232.244,333.521,199.356,333.521z M199.356,222.234c-28.477,0-51.644,23.167-51.644,51.644
		s23.167,51.644,51.644,51.644S251,302.354,251,273.878S227.833,222.234,199.356,222.234z"/>
</g>
<g>
	<path fill="#2D85CC" d="M172.563,311.078L181.043,282l-23.644-22.518l28.992-1.159l11.22-26.93l13.458,26.915l31.366,1.161
		l-23.413,21.072l4.549,29.568l-24.744-15.746L172.563,311.078z M198.826,284.882l14.154,9.008l-2.523-16.402l11.948-10.754
		l-16.372-0.606l-7.76-15.521l-6.461,15.506l-15.211,0.608l13.487,12.844l-3.896,13.357L198.826,284.882z"/>
</g>
<g>
</g>
<g>
</g>
<g>
</g>
<g>
</g>
<g>
</g>
<g>
</g>
<g>
</g>
<g>
</g>
<g>
</g>
<g>
</g>
<g>
</g>
<g>
</g>
<g>
</g>
<g>
</g>
<g>
</g>
</svg>
