<?xml version="1.0" encoding="utf-8"?>
<!-- Generator: Adobe Illustrator 24.1.1, SVG Export Plug-In . SVG Version: 6.00 Build 0)  -->
<svg version="1.1" id="Layer_1" xmlns="http://www.w3.org/2000/svg" xmlns:xlink="http://www.w3.org/1999/xlink" x="0px" y="0px"
	 width="400px" height="400px" viewBox="0 0 400 400" enable-background="new 0 0 400 400" xml:space="preserve">
<g>
	<g>
		<path fill="#01A1FA" d="M321.139,318.496H72.703c-20.602,0-37.362-16.761-37.362-37.362V106.862
			c0-20.602,16.76-37.362,37.362-37.362h248.436c20.602,0,37.361,16.76,37.361,37.362v174.272
			C358.5,301.735,341.74,318.496,321.139,318.496z M72.703,80.5c-14.536,0-26.362,11.826-26.362,26.362v174.272
			c0,14.536,11.826,26.362,26.362,26.362h248.436c14.536,0,26.361-11.826,26.361-26.362V106.862
			c0-14.536-11.825-26.362-26.361-26.362H72.703z"/>
	</g>
	<g>
		<path fill="#01A1FA" d="M116.353,189.047c-27.197,0-49.323-22.126-49.323-49.323c0-27.197,22.126-49.324,49.323-49.324
			c27.197,0,49.324,22.126,49.324,49.324C165.676,166.921,143.55,189.047,116.353,189.047z M116.353,101.4
			c-21.131,0-38.323,17.192-38.323,38.324c0,21.131,17.192,38.323,38.323,38.323c21.132,0,38.324-17.192,38.324-38.323
			C154.676,118.592,137.484,101.4,116.353,101.4z"/>
	</g>
	<g>
		<rect x="186.98" y="115.346" fill="#01A1FA" width="129.45" height="11"/>
	</g>
	<g>
		<g>
			<rect x="273.607" y="149.394" fill="#01A1FA" width="42.497" height="11"/>
		</g>
		<g>
			<rect x="187.306" y="149.394" fill="#01A1FA" width="64.728" height="11"/>
		</g>
	</g>
	<g>
		<path fill="#01A1FA" d="M285.018,285.459h-56.859c-8.547,0-15.5-6.953-15.5-15.5V213.1c0-8.547,6.953-15.5,15.5-15.5h56.859
			c8.547,0,15.5,6.953,15.5,15.5v56.859C300.518,278.506,293.564,285.459,285.018,285.459z M228.158,208.6
			c-2.481,0-4.5,2.019-4.5,4.5v56.859c0,2.481,2.019,4.5,4.5,4.5h56.859c2.481,0,4.5-2.019,4.5-4.5V213.1c0-2.481-2.019-4.5-4.5-4.5
			H228.158z"/>
	</g>
	<g>
		<path fill="#01A1FA" d="M256.42,252.761c-8.888,0-16.119-7.231-16.119-16.119s7.231-16.119,16.119-16.119
			s16.118,7.231,16.118,16.119S265.308,252.761,256.42,252.761z M256.42,231.522c-2.822,0-5.119,2.297-5.119,5.119
			s2.297,5.119,5.119,5.119s5.118-2.297,5.118-5.119S259.242,231.522,256.42,231.522z"/>
	</g>
	<g>
		<path fill="#01A1FA" d="M234.665,281.387c-0.514-1.91-4.776-18.981,3.479-30.054c2.799-3.755,8.245-8.288,18.296-8.56
			l0.297,10.996c-4.585,0.124-7.777,1.472-9.762,4.121c-4.329,5.781-2.683,16.868-1.684,20.652L234.665,281.387z"/>
	</g>
	<g>
		<path fill="#01A1FA" d="M277.202,281.52l-10.626-2.844c1-3.784,2.646-14.871-1.684-20.652c-1.983-2.649-5.177-3.997-9.762-4.121
			l0.297-10.996c10.051,0.271,15.497,4.805,18.297,8.559C281.979,262.538,277.716,279.609,277.202,281.52z"/>
	</g>
	<g>
		<path fill="#01A1FA" d="M158.934,305.485l-42.667-27.151l-42.496,25.498V198.948h85.163V305.485z M116.438,265.404l31.497,20.043
			v-75.499H84.771v74.456L116.438,265.404z"/>
	</g>
	<g>
		<path fill="#01A1FA" d="M138.708,253.098H94.672v-54.149h44.036V253.098z M105.672,242.098h22.036v-32.149h-22.036V242.098z"/>
	</g>
	<g>
		<path fill="#01A1FA" d="M131.966,166.125H99.391v-10.113H88.604v-33.249h10.787v-10.113h33.249v10.113h10.113v33.249h-10.788
			V166.125z M110.391,155.125h10.575v-10.113h10.788v-11.249H121.64v-10.113h-11.249v10.113H99.604v11.249h10.787V155.125z"/>
	</g>
	<g>
		<rect x="196.478" y="173.478" fill="#01A1FA" width="13.022" height="13.022"/>
	</g>
	<g>
		<rect x="218.052" y="173.478" fill="#01A1FA" width="13.022" height="13.022"/>
	</g>
	<g>
		<rect x="239.627" y="173.478" fill="#01A1FA" width="13.022" height="13.022"/>
	</g>
	<g>
		<rect x="273.093" y="173.478" fill="#01A1FA" width="13.023" height="13.022"/>
	</g>
	<g>
		<rect x="294.237" y="173.478" fill="#01A1FA" width="13.022" height="13.022"/>
	</g>
</g>
<g>
</g>
<g>
</g>
<g>
</g>
<g>
</g>
<g>
</g>
<g>
</g>
<g>
</g>
<g>
</g>
<g>
</g>
<g>
</g>
<g>
</g>
<g>
</g>
<g>
</g>
<g>
</g>
<g>
</g>
</svg>
