<?xml version="1.0" encoding="utf-8"?>
<!-- Generator: Adobe Illustrator 24.1.1, SVG Export Plug-In . SVG Version: 6.00 Build 0)  -->
<svg version="1.1" id="Layer_1" xmlns="http://www.w3.org/2000/svg" xmlns:xlink="http://www.w3.org/1999/xlink" x="0px" y="0px"
	 width="400px" height="400px" viewBox="0 0 400 400" enable-background="new 0 0 400 400" xml:space="preserve">
<g>
	<polygon fill="#2DCAFE" points="171,322 90,322 90,78 283.5,78 283.5,181 264.5,181 264.5,97 109,97 109,303 171,303 	"/>
</g>
<g>
	<polygon fill="#2DCAFE" points="324.5,340.5 168.5,340.5 168.5,242.5 173.5,242.5 173.5,335.5 319.5,335.5 319.5,183.5 
		256.5,183.5 256.5,178.5 324.5,178.5 	"/>
</g>
<g>
	<rect x="-9" y="72" fill="none" width="407" height="272"/>
</g>
<g>
	<path fill="#2DCAFE" d="M236.75,152.5h-100c-4.694,0-8.5-3.806-8.5-8.5v0c0-4.694,3.806-8.5,8.5-8.5h100c4.694,0,8.5,3.806,8.5,8.5
		v0C245.25,148.694,241.444,152.5,236.75,152.5z"/>
</g>
<g>
	<path fill="#2DCAFE" d="M236.75,190h-100c-4.694,0-8.5-3.806-8.5-8.5v0c0-4.694,3.806-8.5,8.5-8.5h100c4.694,0,8.5,3.806,8.5,8.5v0
		C245.25,186.194,241.444,190,236.75,190z"/>
</g>
<g>
	<path fill="#2DCAFE" d="M198.5,229h-60c-4.694,0-8.5-3.806-8.5-8.5v0c0-4.694,3.806-8.5,8.5-8.5h60c4.694,0,8.5,3.806,8.5,8.5v0
		C207,225.194,203.194,229,198.5,229z"/>
</g>
<g>
	<g>
		<path fill="#2DCAFE" d="M192.624,322.409l16.399-55.16l55.509-55.509l0.442-0.345c6.591-5.126,23.138-11.609,38.586,0.527
			c16.645,13.078,8.288,32.932,1.544,41.603l-0.427,0.549l-0.506,0.476l-53.548,50.459L192.624,322.409z M224.977,276.751
			l-5.601,18.84l22-6.6l49.865-46.988c1.646-2.318,7.271-11.154,1.198-15.926c-7.475-5.875-14.431-1.834-16.065-0.724
			L224.977,276.751z"/>
	</g>
	<g>
		
			<rect x="265.878" y="222.393" transform="matrix(0.708 -0.7062 0.7062 0.708 -90.8953 264.8799)" fill="#2DCAFE" width="17.999" height="39.937"/>
	</g>
</g>
<g>
</g>
<g>
</g>
<g>
</g>
<g>
</g>
<g>
</g>
<g>
</g>
<g>
</g>
<g>
</g>
<g>
</g>
<g>
</g>
<g>
</g>
<g>
</g>
<g>
</g>
<g>
</g>
<g>
</g>
</svg>
