<?xml version="1.0" encoding="utf-8"?>
<!-- Generator: Adobe Illustrator 24.1.1, SVG Export Plug-In . SVG Version: 6.00 Build 0)  -->
<svg version="1.1" id="Layer_1" xmlns="http://www.w3.org/2000/svg" xmlns:xlink="http://www.w3.org/1999/xlink" x="0px" y="0px"
	 width="500px" height="500px" viewBox="0 0 500 500" enable-background="new 0 0 500 500" xml:space="preserve">
<g>
	<g>
		<g>
			<path fill="#37AFFF" d="M204.458,363.187c-82.986,0-150.5-67.514-150.5-150.5s67.514-150.5,150.5-150.5
				c82.986,0,150.5,67.514,150.5,150.5S287.444,363.187,204.458,363.187z M204.458,76.187c-75.267,0-136.5,61.234-136.5,136.5
				s61.233,136.5,136.5,136.5s136.5-61.233,136.5-136.5S279.725,76.187,204.458,76.187z"/>
		</g>
		<g>
			<path fill="#37AFFF" d="M204.458,336.454c-68.246,0-123.767-55.521-123.767-123.767S136.212,88.919,204.458,88.919
				c68.246,0,123.768,55.522,123.768,123.768S272.704,336.454,204.458,336.454z M204.458,102.919
				c-60.526,0-109.767,49.242-109.767,109.768s49.241,109.767,109.767,109.767c60.526,0,109.768-49.241,109.768-109.767
				S264.984,102.919,204.458,102.919z"/>
		</g>
		<g>
			<path fill="#37AFFF" d="M317.082,349.739l-23.821-23.821l23.819-22.495l22.497,22.497L317.082,349.739z M304.739,326.082
				l12.179,12.179l11.505-12.181l-11.503-11.503L304.739,326.082z"/>
		</g>
		<g>
			<g>
				<path fill="#37AFFF" d="M402.879,437.009c-6.107,0-12.223-2.264-16.963-6.82l-66.998-64.401
					c-2.657-2.554-4.16-5.989-4.232-9.673c-0.072-3.685,1.294-7.177,3.848-9.833l17.607-18.318
					c5.271-5.483,14.022-5.657,19.506-0.386l70.29,67.565c7.918,7.611,8.168,20.245,0.558,28.162l-5.959,6.199
					C415.736,434.496,409.312,437.009,402.879,437.009z M328.768,355.836l66.85,64.259c4.169,4.007,10.818,3.877,14.824-0.293
					l5.959-6.198c2.262-2.353,2.188-6.106-0.165-8.367l-70.144-67.424L328.768,355.836z"/>
			</g>
			<g>
				
					<rect x="340.777" y="361.781" transform="matrix(0.707 -0.7072 0.7072 0.707 -155.238 362.8361)" fill="#37AFFF" width="39.049" height="14"/>
			</g>
			<g>
				
					<rect x="359.564" y="379.842" transform="matrix(0.7071 -0.7071 0.7071 0.7071 -162.5087 381.3539)" fill="#37AFFF" width="39.033" height="14.001"/>
			</g>
		</g>
	</g>
	<g>
		<g>
			<path fill="#37AFFF" d="M205,186c-18.748,0-34-15.252-34-34s15.252-34,34-34s34,15.252,34,34S223.748,186,205,186z M205,132
				c-11.028,0-20,8.972-20,20s8.972,20,20,20s20-8.972,20-20S216.028,132,205,132z"/>
		</g>
		<g>
			<path fill="#37AFFF" d="M259,246c-18.748,0-34-15.252-34-34s15.252-34,34-34c18.748,0,34,15.252,34,34S277.748,246,259,246z
				 M259,192c-11.028,0-20,8.972-20,20s8.972,20,20,20c11.028,0,20-8.972,20-20S270.028,192,259,192z"/>
		</g>
		<g>
			<path fill="#37AFFF" d="M205,306c-18.748,0-34-15.252-34-34s15.252-34,34-34s34,15.252,34,34S223.748,306,205,306z M205,252
				c-11.028,0-20,8.972-20,20s8.972,20,20,20s20-8.972,20-20S216.028,252,205,252z"/>
		</g>
	</g>
	<g>
		<rect x="224.485" y="126.32" fill="#37AFFF" width="65.611" height="14"/>
	</g>
	<g>
		<rect x="232" y="156.681" fill="#37AFFF" width="78.467" height="14"/>
	</g>
	<g>
		<path fill="#37AFFF" d="M180.813,171h-28.688l-1.624-0.937c-9.915-5.72-14.98-12.621-15.057-20.512
			c-0.124-12.77,13.397-21.295,14.94-22.225l1.667-1.006h33.462v14h-29.363c-2.795,2.094-6.75,5.942-6.708,9.109
			c0.03,2.211,2.379,4.924,6.511,7.57h24.858V171z"/>
	</g>
	<g>
		<rect x="277.315" y="189.171" fill="#37AFFF" width="39.685" height="14"/>
	</g>
	<g>
		<rect x="284.83" y="219.531" fill="#37AFFF" width="32.17" height="14"/>
	</g>
	<g>
		<path fill="#37AFFF" d="M233.644,233.851h-28.688l-1.624-0.937c-9.915-5.72-14.98-12.621-15.057-20.512
			c-0.124-12.77,13.397-21.295,14.94-22.225l1.667-1.006h33.462v14h-29.363c-2.795,2.094-6.75,5.942-6.708,9.109
			c0.03,2.211,2.379,4.924,6.511,7.57h24.858V233.851z"/>
	</g>
	<g>
		<rect x="325.646" y="126.171" fill="#37AFFF" width="65.611" height="14"/>
	</g>
	<g>
		<rect x="340.275" y="156.531" fill="#37AFFF" width="78.466" height="14"/>
	</g>
	<g>
		<path fill="#37AFFF" d="M422.615,170.851h-28.687v-14h24.856c4.141-2.652,6.49-5.37,6.512-7.584
			c0.029-3.071-3.778-6.93-6.688-9.095h-29.382v-14h33.462l1.668,1.006c1.542,0.93,15.063,9.455,14.939,22.225
			c-0.076,7.891-5.143,14.792-15.057,20.512L422.615,170.851z"/>
	</g>
	<g>
		<rect x="345.646" y="189.937" fill="#37AFFF" width="51.354" height="14"/>
	</g>
	<g>
		<rect x="348.275" y="220.297" fill="#37AFFF" width="62.725" height="14"/>
	</g>
	<g>
		<path fill="#37AFFF" d="M428.615,234.616h-28.687v-14h24.856c4.141-2.652,6.49-5.37,6.512-7.584
			c0.029-3.071-3.778-6.93-6.688-9.095h-29.382v-14h33.462l1.668,1.006c1.542,0.93,15.063,9.455,14.939,22.225
			c-0.076,7.891-5.143,14.792-15.057,20.512L428.615,234.616z"/>
	</g>
	<g>
		<rect x="226.315" y="252.469" fill="#37AFFF" width="85.685" height="14"/>
	</g>
	<g>
		<rect x="221.831" y="282.829" fill="#37AFFF" width="70.169" height="14"/>
	</g>
	<g>
		<path fill="#37AFFF" d="M177.991,297.148h-25.008l-1.777-1.202c-8.5-5.751-12.85-12.553-12.929-20.216
			c-0.129-12.463,11.485-21.04,12.81-21.977l1.817-1.285H182v14h-24.379c-2.233,2.043-5.398,5.698-5.345,9.145
			c0.044,2.854,2.53,5.524,5.115,7.535h20.601V297.148z"/>
	</g>
	<g>
		
			<rect x="168.68" y="283.074" transform="matrix(0.9999 -0.0112 0.0112 0.9999 -3.2263 1.9749)" fill="#37AFFF" width="13.32" height="14.001"/>
	</g>
	<g>
		<rect x="343.05" y="252.575" fill="#37AFFF" width="65.611" height="14"/>
	</g>
	<g>
		<rect x="322.68" y="282.936" fill="#37AFFF" width="78.466" height="14"/>
	</g>
	<g>
		<path fill="#37AFFF" d="M421.02,297.255h-28.687v-14h24.856c4.141-2.651,6.49-5.37,6.512-7.585
			c0.029-3.071-3.778-6.93-6.688-9.095h-29.382v-14h33.462l1.668,1.006c1.542,0.93,15.063,9.455,14.939,22.225
			c-0.076,7.892-5.143,14.793-15.057,20.513L421.02,297.255z"/>
	</g>
</g>
<g>
</g>
<g>
</g>
<g>
</g>
<g>
</g>
<g>
</g>
<g>
</g>
<g>
</g>
<g>
</g>
<g>
</g>
<g>
</g>
<g>
</g>
<g>
</g>
<g>
</g>
<g>
</g>
<g>
</g>
</svg>
