<?xml version="1.0" encoding="utf-8"?>
<!-- Generator: Adobe Illustrator 24.1.1, SVG Export Plug-In . SVG Version: 6.00 Build 0)  -->
<svg version="1.1" id="Layer_1" xmlns="http://www.w3.org/2000/svg" xmlns:xlink="http://www.w3.org/1999/xlink" x="0px" y="0px"
	 width="500px" height="500px" viewBox="0 0 500 500" enable-background="new 0 0 500 500" xml:space="preserve">
<path fill="#152028" d="M396.065,445.486H74.704c-20.335,0-36.819-16.484-36.819-36.819V87.305
	c0-20.335,16.484-36.819,36.819-36.819h321.362c20.335,0,36.819,16.484,36.819,36.819v321.362
	C432.885,429.002,416.4,445.486,396.065,445.486z"/>
<g>
	<path fill="#FFFFFF" d="M239.477,137.642l-132.179,96.393c-2.766,2.017-6.644,1.41-8.661-1.356l-0.603-0.827
		c-2.017-2.766-1.41-6.644,1.356-8.661l132.179-96.393c2.766-2.017,6.644-1.41,8.661,1.356l0.603,0.827
		C242.85,131.748,242.243,135.625,239.477,137.642z"/>
	<path fill="#FFFFFF" d="M231.285,137.666l132.185,96.398c2.766,2.017,6.644,1.41,8.661-1.356l0.603-0.827
		c2.017-2.766,1.41-6.644-1.356-8.661l-132.185-96.398c-2.766-2.017-6.644-1.41-8.661,1.356l-0.603,0.827
		C227.912,131.771,228.519,135.649,231.285,137.666z"/>
	<path fill="#FFFFFF" d="M140.831,241.275l0,122.882c0,3.423-2.775,6.199-6.199,6.199h-1.024c-3.423,0-6.199-2.775-6.199-6.199
		l0-122.882c0-3.423,2.775-6.199,6.199-6.199h1.024C138.055,235.077,140.831,237.852,140.831,241.275z"/>
	<path fill="#FFFFFF" d="M340.004,241.278l0,122.882c0,3.423-2.775,6.199-6.199,6.199h-1.024c-3.423,0-6.199-2.775-6.199-6.199
		l0-122.882c0-3.423,2.775-6.199,6.199-6.199h1.024C337.229,235.08,340.004,237.855,340.004,241.278z"/>
	<path fill="#FFFFFF" d="M206.034,370.365l-72.39,0c-3.423,0-6.199-2.775-6.199-6.199v-1.024c0-3.423,2.775-6.199,6.199-6.199
		l72.39,0c3.423,0,6.199,2.775,6.199,6.199v1.024C212.232,367.59,209.457,370.365,206.034,370.365z"/>
	<path fill="#FFFFFF" d="M333.559,370.365l-72.39,0c-3.423,0-6.199-2.775-6.199-6.199v-1.024c0-3.423,2.775-6.199,6.199-6.199
		l72.39,0c3.423,0,6.199,2.775,6.199,6.199v1.024C339.757,367.59,336.982,370.365,333.559,370.365z"/>
	<path fill="#FFFFFF" d="M212.232,290.136l0,72.39c0,3.423-2.775,6.199-6.199,6.199h-1.024c-3.423,0-6.199-2.775-6.199-6.199
		l0-72.39c0-3.423,2.775-6.199,6.199-6.199h1.024C209.457,283.938,212.232,286.713,212.232,290.136z"/>
	<path fill="#FFFFFF" d="M268.065,291.747l0,72.39c0,3.423-2.775,6.199-6.199,6.199h-1.024c-3.423,0-6.199-2.775-6.199-6.199
		l0-72.39c0-3.423,2.775-6.199,6.199-6.199h1.024C265.29,285.548,268.065,288.324,268.065,291.747z"/>
	<path fill="none" stroke="#FFFFFF" stroke-width="22" stroke-miterlimit="10" d="M206.751,283.936
		c5.165-11.188,15.3-18.795,26.956-18.795c12.208,0,22.747,8.343,27.659,20.406"/>
</g>
<g>
</g>
<g>
</g>
<g>
</g>
<g>
</g>
<g>
</g>
<g>
</g>
<g>
</g>
<g>
</g>
<g>
</g>
<g>
</g>
<g>
</g>
<g>
</g>
<g>
</g>
<g>
</g>
<g>
</g>
</svg>
