<?xml version="1.0" encoding="utf-8"?>
<!-- Generator: Adobe Illustrator 24.1.1, SVG Export Plug-In . SVG Version: 6.00 Build 0)  -->
<svg version="1.1" id="Layer_1" xmlns="http://www.w3.org/2000/svg" xmlns:xlink="http://www.w3.org/1999/xlink" x="0px" y="0px"
	 width="400px" height="400px" viewBox="0 0 400 400" enable-background="new 0 0 400 400" xml:space="preserve">
<rect x="199" y="155" opacity="0.26" width="171" height="21"/>
<rect x="40" y="168" fill="#99BBFF" width="159" height="171"/>
<rect x="30" y="155" fill="#FFF5F5" width="340" height="21"/>
<rect x="256" y="176" fill="#6699FF" width="104" height="163"/>
<rect x="118" y="71" fill="#B3D9FF" width="164" height="278"/>
<g>
	<rect x="178" y="115" fill="#FF4D4D" width="44" height="20"/>
	<rect x="178" y="115" transform="matrix(6.123234e-17 -1 1 6.123234e-17 75 325)" fill="#FF4D4D" width="44" height="20"/>
</g>
<rect x="170" y="171" fill="#1F5C99" width="20" height="26"/>
<rect x="170" y="217" fill="#1F5C99" width="20" height="26"/>
<rect x="210" y="171" fill="#1F5C99" width="20" height="26"/>
<rect x="210" y="217" fill="#1F5C99" width="20" height="26"/>
<rect x="163" y="273" fill="#143D66" width="73" height="69"/>
<rect x="184" y="293" fill="#1F5C99" width="32" height="49"/>
<rect x="199" y="81" opacity="0.08" width="83" height="269"/>
<rect x="109" y="68" fill="#FFF5F5" width="183" height="20"/>
<rect x="199" y="68" opacity="0.15" width="93" height="20"/>
<rect x="200" y="339" opacity="0.15" width="170" height="20"/>
<rect x="47" y="68" fill="#FFF5F5" width="20" height="20"/>
<rect x="80" y="115" fill="#FFF5F5" width="20" height="20"/>
<rect x="137" y="27" fill="#FFF5F5" width="20" height="20"/>
<rect x="80" y="19" fill="#FFF5F5" width="20" height="20"/>
<rect x="243" y="27" fill="#ECE6F2" width="20" height="20"/>
<rect x="300" y="19" fill="#ECE6F2" width="20" height="20"/>
<rect x="333" y="64" fill="#ECE6F2" width="20" height="20"/>
<rect x="298" y="111" fill="#ECE6F2" width="20" height="20"/>
<rect x="190" y="19" fill="#FFF5F5" width="10" height="20"/>
<rect x="199" y="19" fill="#ECE6F2" width="12" height="20"/>
<rect x="30" y="339" fill="#FFF5F5" width="340" height="20"/>
<rect x="70" y="217" fill="#1F5C99" width="20" height="26"/>
<rect x="310" y="217" fill="#1F5C99" width="20" height="26"/>
<rect x="308" y="260" fill="#1F5C99" width="20" height="26"/>
<rect x="70" y="260" fill="#1F5C99" width="20" height="26"/>
<g>
</g>
<g>
</g>
<g>
</g>
<g>
</g>
<g>
</g>
<g>
</g>
<g>
</g>
<g>
</g>
<g>
</g>
<g>
</g>
<g>
</g>
<g>
</g>
<g>
</g>
<g>
</g>
<g>
</g>
</svg>
