<?xml version="1.0" encoding="utf-8"?>
<!-- Generator: Adobe Illustrator 24.1.1, SVG Export Plug-In . SVG Version: 6.00 Build 0)  -->
<svg version="1.1" id="Layer_1" xmlns="http://www.w3.org/2000/svg" xmlns:xlink="http://www.w3.org/1999/xlink" x="0px" y="0px"
	 width="400px" height="400px" viewBox="0 0 400 400" enable-background="new 0 0 400 400" xml:space="preserve">
<g>
	<g>
		<path fill="#3498DB" d="M194.976,279"/>
	</g>
	<g>
		<path fill="#01A1FA" d="M194.515,304.814l-78.251-124.513c-21.714-32.185-23.467-73.587-4.45-105.534
			c24.575-41.285,70.316-45.744,75.451-46.117c5.568-0.406,55.285-2.77,85.559,37.796c24.383,32.674,24.745,78.416,0.917,113.872
			L194.515,304.814z M192.326,51.493c-1.931,0-3.133,0.078-3.398,0.097c-1.558,0.113-38.419,3.137-57.35,34.941
			c-14.508,24.372-13,56.181,3.842,81.037l0.216,0.332l59.001,93.883l59.946-94.192c18.459-27.38,18.382-62.499-0.192-87.389
			C234.679,53.789,202.8,51.493,192.326,51.493z"/>
	</g>
	<g>
		<rect x="126.976" y="317" fill="#01A1FA" width="136" height="27"/>
	</g>
	<g>
		<path fill="#01A1FA" d="M194.977,153.5c-20.678,0-37.5-16.822-37.5-37.5s16.822-37.5,37.5-37.5s37.5,16.822,37.5,37.5
			S215.654,153.5,194.977,153.5z M194.977,101.5c-7.995,0-14.5,6.505-14.5,14.5s6.505,14.5,14.5,14.5s14.5-6.505,14.5-14.5
			S202.972,101.5,194.977,101.5z"/>
	</g>
</g>
<g>
</g>
<g>
</g>
<g>
</g>
<g>
</g>
<g>
</g>
<g>
</g>
<g>
</g>
<g>
</g>
<g>
</g>
<g>
</g>
<g>
</g>
<g>
</g>
<g>
</g>
<g>
</g>
<g>
</g>
</svg>
