<?xml version="1.0" encoding="utf-8"?>
<!-- Generator: Adobe Illustrator 24.1.1, SVG Export Plug-In . SVG Version: 6.00 Build 0)  -->
<svg version="1.1" id="Layer_1" xmlns="http://www.w3.org/2000/svg" xmlns:xlink="http://www.w3.org/1999/xlink" x="0px" y="0px"
	 width="1366px" height="768px" viewBox="0 0 1366 768" enable-background="new 0 0 1366 768" xml:space="preserve">
<g>
	<g>
		<g>
			<path fill="#3498DB" d="M558.001,594.126c-10.879,0-24.771-3.928-38.235-18.878c-25.563-28.382-19.553-49.704-13.696-59.887
				c18.56-32.268,78.796-36.124,126.905-26.057l19.75,4.135l-8.527,18.288c-0.345,0.741-8.614,18.366-21.622,36.853
				c-18.994,26.992-38.434,42.146-57.78,45.038C562.706,593.931,560.429,594.126,558.001,594.126z M586.277,516.275
				c-28.523,0-48.021,7.309-52.469,15.041c-3.709,6.449,5.572,17.896,9.734,22.517c8.416,9.345,14.293,8.471,16.508,8.14
				c14.285-2.125,32.07-23.627,44.866-44.715C598.358,516.582,592.129,516.275,586.277,516.275z"/>
		</g>
		<g>
			<path fill="#3498DB" d="M611.266,526.326l-5.846-31.461c39.582-7.354,75.216-24.244,100.341-47.559
				c24.816-23.029,37.934-50.417,37.934-79.203c0-28.79-13.117-56.181-37.934-79.21c-25.124-23.315-60.759-40.205-100.341-47.559
				l5.846-31.462c96.813,17.988,164.429,83.055,164.429,158.231C775.695,443.275,708.079,508.338,611.266,526.326z"/>
		</g>
		<g>
			<path fill="#3498DB" d="M586.164,251.614c-34.753,0-67.309-8.745-80.095-30.974c-5.857-10.184-11.866-31.505,13.696-59.887
				c16.469-18.286,33.578-20.083,45.03-18.37c19.346,2.893,38.787,18.046,57.78,45.039c13.008,18.486,21.277,36.112,21.623,36.853
				l8.527,18.288l-19.75,4.134C618.007,249.828,601.858,251.614,586.164,251.614z M557.924,173.845
				c-2.96,0-7.924,1.153-14.381,8.323c-4.163,4.622-13.444,16.067-9.734,22.516c5.359,9.318,32.581,18.019,71.108,14.06
				c-12.796-21.088-30.582-42.591-44.866-44.716C559.536,173.952,558.822,173.845,557.924,173.845z"/>
		</g>
	</g>
	<g>
		<rect x="759.695" y="352" fill="#3498DB" width="101.439" height="32"/>
	</g>
	<g>
		<rect x="833.049" y="277.825" fill="#3498DB" width="32" height="180.35"/>
	</g>
</g>
</svg>
