<?xml version="1.0" encoding="utf-8"?>
<!-- Generator: Adobe Illustrator 24.1.1, SVG Export Plug-In . SVG Version: 6.00 Build 0)  -->
<svg version="1.1" id="Layer_1" xmlns="http://www.w3.org/2000/svg" xmlns:xlink="http://www.w3.org/1999/xlink" x="0px" y="0px"
	 width="1366px" height="768px" viewBox="0 0 1366 768" enable-background="new 0 0 1366 768" xml:space="preserve">
<g>
	<g>
		<g>
			<path fill="#3498DB" d="M200.099,610.126c-10.879,0-24.771-3.928-38.235-18.878c-25.563-28.382-19.553-49.704-13.696-59.887
				c18.56-32.268,78.796-36.124,126.905-26.057l19.75,4.135l-8.527,18.288c-0.345,0.741-8.614,18.366-21.622,36.853
				c-18.994,26.992-38.434,42.146-57.78,45.038C204.804,609.931,202.526,610.126,200.099,610.126z M228.375,532.274
				c-28.523,0-48.021,7.309-52.469,15.041c-3.709,6.449,5.572,17.896,9.734,22.517c8.416,9.345,14.293,8.471,16.508,8.14
				c14.285-2.125,32.07-23.627,44.866-44.715C240.456,532.582,234.227,532.274,228.375,532.274z"/>
		</g>
		<g>
			<path fill="#3498DB" d="M253.363,542.326l-5.846-31.461c39.582-7.354,75.216-24.244,100.341-47.559
				c24.816-23.029,37.934-50.417,37.934-79.203c0-28.79-13.117-56.181-37.934-79.21c-25.124-23.315-60.759-40.205-100.341-47.559
				l5.846-31.462c96.813,17.988,164.429,83.055,164.429,158.231C417.792,459.274,350.177,524.338,253.363,542.326z"/>
		</g>
		<g>
			<path fill="#3498DB" d="M228.262,267.613c-34.753,0-67.309-8.745-80.095-30.974c-5.857-10.184-11.866-31.505,13.696-59.887
				c16.469-18.286,33.578-20.083,45.03-18.37c19.346,2.893,38.787,18.046,57.78,45.039c13.008,18.486,21.277,36.112,21.623,36.853
				l8.527,18.288l-19.75,4.134C260.105,265.828,243.956,267.613,228.262,267.613z M200.021,189.845
				c-2.96,0-7.924,1.153-14.381,8.323c-4.163,4.622-13.444,16.067-9.734,22.516c5.359,9.318,32.581,18.019,71.108,14.06
				c-12.796-21.088-30.582-42.591-44.866-44.716C201.633,189.952,200.919,189.845,200.021,189.845z"/>
		</g>
	</g>
	<g>
		<rect x="401.792" y="368" fill="#3498DB" width="101.439" height="32"/>
	</g>
	<g>
		<rect x="475.147" y="293.825" fill="#3498DB" width="32" height="180.35"/>
	</g>
</g>
<g>
	<path fill="#3498DB" stroke="#3498DB" stroke-width="3" stroke-miterlimit="10" d="M665.091,453.184
		c-3.582,1.514-7.959,2.807-13.132,3.881c-5.175,1.074-10.625,1.611-16.356,1.611c-8.357,0-16.158-1.193-23.399-3.581
		c-7.243-2.389-13.571-6.009-18.982-10.864c-5.413-4.854-9.67-11.002-12.774-18.445c-3.104-7.441-4.656-16.136-4.656-26.086
		c0-11.142,1.791-20.693,5.373-28.652c3.582-7.958,8.217-14.425,13.908-19.4c5.689-4.973,12.097-8.635,19.221-10.983
		c7.122-2.347,14.147-3.522,21.071-3.522c5.173,0,10.148,0.459,14.923,1.373c4.775,0.916,9.112,2.169,13.013,3.761v23.041
		c-3.503-1.511-7.223-2.725-11.163-3.641c-3.94-0.914-8.178-1.373-12.715-1.373s-8.875,0.698-13.013,2.089
		c-4.14,1.394-7.801,3.602-10.983,6.626c-3.185,3.026-5.712,7.025-7.581,11.998c-1.871,4.975-2.806,10.965-2.806,17.968
		c0,5.094,0.716,9.89,2.149,14.386c1.433,4.497,3.522,8.338,6.268,11.521c2.746,3.185,6.248,5.751,10.506,7.7
		c4.257,1.951,9.292,2.925,15.103,2.925c5.173,0,9.868-0.517,14.087-1.552c4.218-1.033,8.197-2.308,11.938-3.82V453.184z"/>
	<path fill="#3498DB" stroke="#3498DB" stroke-width="3" stroke-miterlimit="10" d="M690.759,455.691V282.821h28.295v172.871
		H690.759z"/>
	<path fill="#3498DB" stroke="#3498DB" stroke-width="3" stroke-miterlimit="10" d="M861.6,397.908
		c0,9.073-1.354,17.353-4.059,24.833c-2.707,7.481-6.587,13.89-11.641,19.221c-5.055,5.333-11.162,9.452-18.325,12.356
		s-15.162,4.357-23.997,4.357c-9.073,0-17.212-1.453-24.414-4.357c-7.204-2.904-13.312-7.023-18.326-12.356
		c-5.014-5.331-8.854-11.739-11.521-19.221c-2.667-7.48-3.999-15.76-3.999-24.833s1.353-17.35,4.059-24.832
		c2.705-7.48,6.585-13.888,11.641-19.221c5.053-5.331,11.162-9.45,18.325-12.356c7.163-2.904,15.162-4.357,23.997-4.357
		c9.073,0,17.21,1.453,24.414,4.357c7.202,2.907,13.312,7.025,18.326,12.356c5.014,5.333,8.853,11.741,11.521,19.221
		C860.266,380.558,861.6,388.835,861.6,397.908z M832.351,397.908c0-6.127-0.717-11.539-2.149-16.236
		c-1.433-4.695-3.423-8.635-5.969-11.819c-2.549-3.183-5.611-5.57-9.193-7.164c-3.581-1.591-7.481-2.388-11.699-2.388
		c-4.14,0-7.98,0.797-11.521,2.388c-3.542,1.593-6.586,3.981-9.133,7.164c-2.548,3.184-4.536,7.124-5.969,11.819
		c-1.433,4.697-2.149,10.109-2.149,16.236c0,6.13,0.717,11.542,2.149,16.237c1.433,4.696,3.441,8.616,6.028,11.759
		c2.586,3.146,5.65,5.533,9.193,7.163c3.54,1.633,7.42,2.447,11.64,2.447c4.218,0,8.077-0.814,11.581-2.447
		c3.501-1.63,6.524-4.018,9.073-7.163c2.546-3.143,4.536-7.063,5.969-11.759C831.634,409.45,832.351,404.038,832.351,397.908z"/>
	<path fill="#3498DB" stroke="#3498DB" stroke-width="3" stroke-miterlimit="10" d="M1035.663,385.254
		c0-2.466-0.08-4.776-0.238-6.925c-0.16-2.149-0.438-4.018-0.836-5.611c-0.877-3.501-2.587-6.328-5.134-8.477
		c-2.548-2.149-6.129-3.263-10.744-3.343c-2.468,0-5.015,0.358-7.641,1.074c-2.627,0.716-5.234,1.731-7.82,3.044
		c-2.587,1.313-5.055,2.906-7.401,4.775c-2.349,1.871-4.478,3.96-6.388,6.268v79.63h-28.294v-70.438c0-2.466-0.08-4.776-0.238-6.925
		c-0.161-2.149-0.438-4.018-0.836-5.611c-0.877-3.501-2.567-6.328-5.074-8.477s-6.109-3.263-10.805-3.343
		c-2.468,0-5.014,0.358-7.641,1.074c-2.626,0.716-5.234,1.731-7.819,3.044c-2.587,1.313-5.056,2.906-7.402,4.775
		c-2.348,1.871-4.477,3.96-6.387,6.268v79.63h-28.294V340.006h23.399l2.626,16.117h0.478c1.672-2.388,3.779-4.734,6.328-7.044
		c2.546-2.307,5.432-4.337,8.655-6.088c3.223-1.75,6.764-3.164,10.625-4.238c3.859-1.075,7.939-1.612,12.237-1.612
		c7.641,0,14.505,1.692,20.594,5.074c6.089,3.384,10.724,8.656,13.908,15.819h0.478c2.228-3.104,4.716-5.928,7.462-8.477
		c2.746-2.546,5.79-4.734,9.133-6.566c3.343-1.83,6.943-3.263,10.805-4.298c3.859-1.034,7.978-1.552,12.356-1.552
		c8.276,0.08,15.222,1.812,20.832,5.193c5.611,3.384,9.928,8.02,12.954,13.908c0.794,1.513,1.472,3.164,2.029,4.955
		c0.556,1.791,1.015,3.802,1.373,6.029c0.357,2.229,0.615,4.697,0.775,7.402c0.159,2.707,0.239,5.811,0.239,9.312v71.751h-28.295
		V385.254z"/>
	<path fill="#3498DB" stroke="#3498DB" stroke-width="3" stroke-miterlimit="10" d="M1142.991,415.458l-29.846,40.233h-32.473
		l45.725-58.977l-42.979-56.708h33.309l26.981,38.204l27.459-38.204h33.428l-44.173,56.589l45.366,59.096h-33.069L1142.991,415.458z
		"/>
</g>
</svg>
