<?xml version="1.0" encoding="utf-8"?>
<!-- Generator: Adobe Illustrator 24.1.1, SVG Export Plug-In . SVG Version: 6.00 Build 0)  -->
<svg version="1.1" id="Layer_1" xmlns="http://www.w3.org/2000/svg" xmlns:xlink="http://www.w3.org/1999/xlink" x="0px" y="0px"
	 width="400px" height="400px" viewBox="0 0 400 400" enable-background="new 0 0 400 400" xml:space="preserve">
<g>
	<g>
		<defs>
			<path id="SVGID_1_" d="M73,125c0,0,1-22,25-26h204c0,0,21,3,25,26l-127,82L73,125z"/>
		</defs>
		<clipPath id="SVGID_2_">
			<use xlink:href="#SVGID_1_"  overflow="visible"/>
		</clipPath>
		<rect x="73" y="99" clip-path="url(#SVGID_2_)" fill="#005B97" width="254" height="108"/>
		<path clip-path="url(#SVGID_2_)" fill="#005B97" d="M297.035,153c0,13.398-2.715,26.161-7.625,37.77
			c-2.455,5.805-5.459,11.32-8.947,16.483c-1.744,2.581-3.609,5.074-5.586,7.47V208H125.123v6.723
			c-1.978-2.396-3.842-4.889-5.586-7.47c-3.488-5.162-6.491-10.678-8.947-16.483c-4.91-11.609-7.625-24.373-7.625-37.77
			s2.715-26.161,7.625-37.77c2.455-5.805,5.459-11.321,8.947-16.483c1.744-2.581,3.609-5.074,5.586-7.47V98h149.754v-6.723
			c1.978,2.396,3.842,4.889,5.586,7.47c3.488,5.162,6.491,10.678,8.947,16.483C294.32,126.839,297.035,139.602,297.035,153z"/>
		<path clip-path="url(#SVGID_2_)" fill="#005C98" d="M296.153,153c0,13.276-2.691,25.923-7.556,37.427
			c-2.433,5.752-5.409,11.218-8.865,16.333c-1.728,2.558-3.576,5.028-5.535,7.402V208H125.804v6.162
			c-1.96-2.374-3.807-4.844-5.535-7.402c-3.456-5.115-6.432-10.581-8.865-16.333c-4.866-11.504-7.556-24.151-7.556-37.427
			s2.691-25.923,7.556-37.427c2.433-5.752,5.409-11.218,8.865-16.333c1.728-2.558,3.576-5.028,5.535-7.402V98h148.392v-6.162
			c1.96,2.374,3.807,4.844,5.535,7.402c3.456,5.115,6.432,10.581,8.865,16.333C293.462,127.077,296.153,139.724,296.153,153z"/>
		<path clip-path="url(#SVGID_2_)" fill="#005C99" d="M295.27,153c0,13.154-2.666,25.685-7.487,37.083
			c-2.41,5.699-5.36,11.115-8.784,16.183c-1.712,2.534-3.543,4.982-5.484,7.334V208h-147.03v5.601
			c-1.942-2.353-3.772-4.8-5.484-7.334c-3.424-5.068-6.373-10.484-8.784-16.183c-4.821-11.398-7.487-23.929-7.487-37.083
			s2.666-25.685,7.487-37.083c2.41-5.699,5.36-11.115,8.784-16.183c1.712-2.534,3.543-4.982,5.484-7.334V98h147.03v-5.601
			c1.942,2.353,3.772,4.8,5.484,7.334c3.424,5.068,6.373,10.484,8.784,16.183C292.604,127.315,295.27,139.846,295.27,153z"/>
		<path clip-path="url(#SVGID_2_)" fill="#005D9A" d="M294.388,153c0,13.032-2.641,25.448-7.417,36.74
			c-2.388,5.646-5.31,11.012-8.702,16.033c-1.696,2.511-3.51,4.935-5.434,7.266V208H127.166v5.039
			c-1.924-2.331-3.737-4.756-5.434-7.266c-3.392-5.021-6.314-10.387-8.702-16.033c-4.776-11.292-7.417-23.708-7.417-36.74
			s2.641-25.448,7.417-36.74c2.388-5.646,5.31-11.012,8.702-16.033c1.696-2.511,3.51-4.935,5.434-7.266V98h145.668v-5.039
			c1.924,2.331,3.737,4.756,5.434,7.266c3.392,5.021,6.314,10.387,8.702,16.033C291.747,127.552,294.388,139.968,294.388,153z"/>
		<path clip-path="url(#SVGID_2_)" fill="#005E9B" d="M293.505,153c0,12.91-2.616,25.21-7.348,36.396
			c-2.366,5.593-5.26,10.909-8.621,15.883c-1.68,2.487-3.477,4.889-5.383,7.198V208H127.847v4.478
			c-1.906-2.309-3.702-4.711-5.383-7.198c-3.361-4.975-6.255-10.29-8.621-15.883c-4.732-11.187-7.348-23.486-7.348-36.396
			s2.616-25.21,7.348-36.396c2.366-5.593,5.26-10.909,8.621-15.883c1.68-2.487,3.477-4.889,5.383-7.198V98h144.306v-4.478
			c1.906,2.309,3.702,4.711,5.383,7.198c3.361,4.975,6.255,10.29,8.621,15.883C290.889,127.79,293.505,140.09,293.505,153z"/>
		<path clip-path="url(#SVGID_2_)" fill="#005E9C" d="M292.623,153c0,12.789-2.592,24.972-7.279,36.053
			c-2.344,5.541-5.211,10.806-8.54,15.733c-1.665,2.464-3.444,4.843-5.332,7.13V208H128.528v3.917
			c-1.888-2.287-3.668-4.667-5.332-7.13c-3.329-4.928-6.196-10.193-8.54-15.733c-4.687-11.081-7.279-23.264-7.279-36.053
			s2.592-24.972,7.279-36.053c2.343-5.541,5.211-10.806,8.54-15.733c1.665-2.464,3.444-4.843,5.332-7.13V98h142.945v-3.917
			c1.888,2.287,3.668,4.667,5.332,7.13c3.329,4.928,6.196,10.193,8.54,15.733C290.031,128.028,292.623,140.211,292.623,153z"/>
		<path clip-path="url(#SVGID_2_)" fill="#005F9D" d="M291.74,153c0,12.667-2.567,24.734-7.209,35.71
			c-2.321,5.488-5.161,10.703-8.458,15.583c-1.649,2.44-3.412,4.797-5.281,7.062V208H129.209v3.355
			c-1.87-2.265-3.633-4.622-5.281-7.062c-3.297-4.881-6.137-10.096-8.458-15.583c-4.642-10.976-7.209-23.043-7.209-35.71
			s2.567-24.734,7.209-35.71c2.321-5.488,5.161-10.703,8.458-15.583c1.649-2.44,3.412-4.797,5.281-7.062V98h141.583v-3.355
			c1.87,2.265,3.633,4.622,5.281,7.062c3.297,4.881,6.137,10.096,8.458,15.583C289.173,128.266,291.74,140.333,291.74,153z"/>
		<path clip-path="url(#SVGID_2_)" fill="#00609E" d="M290.858,153c0,12.545-2.542,24.496-7.14,35.366
			c-2.299,5.435-5.111,10.6-8.377,15.434c-1.633,2.417-3.379,4.751-5.23,6.995V208H129.89v2.794
			c-1.852-2.244-3.598-4.578-5.23-6.995c-3.266-4.834-6.078-9.998-8.377-15.434c-4.598-10.87-7.14-22.821-7.14-35.366
			s2.542-24.496,7.14-35.366c2.299-5.435,5.111-10.6,8.377-15.434c1.633-2.417,3.379-4.751,5.23-6.995V98H270.11v-2.794
			c1.852,2.244,3.598,4.578,5.23,6.995c3.266,4.834,6.078,9.998,8.377,15.434C288.316,128.504,290.858,140.455,290.858,153z"/>
		<path clip-path="url(#SVGID_2_)" fill="#00609F" d="M289.975,153c0,12.423-2.518,24.258-7.071,35.023
			c-2.277,5.382-5.062,10.497-8.296,15.284c-1.617,2.393-3.346,4.705-5.18,6.927V208H130.571v2.233
			c-1.834-2.222-3.563-4.533-5.18-6.927c-3.234-4.787-6.019-9.901-8.296-15.284c-4.553-10.765-7.071-22.6-7.071-35.023
			s2.518-24.258,7.071-35.023c2.277-5.382,5.062-10.497,8.296-15.284c1.617-2.393,3.346-4.705,5.18-6.927V98h138.859v-2.233
			c1.834,2.222,3.563,4.533,5.18,6.927c3.234,4.787,6.019,9.901,8.296,15.284C287.458,128.742,289.975,140.577,289.975,153z"/>
		<path clip-path="url(#SVGID_2_)" fill="#0061A0" d="M289.093,153c0,12.301-2.493,24.02-7.001,34.679
			c-2.254,5.329-5.012,10.394-8.214,15.134c-1.601,2.37-3.313,4.659-5.129,6.859V208H131.251v1.671
			c-1.816-2.2-3.528-4.489-5.129-6.859c-3.202-4.74-5.96-9.804-8.214-15.134c-4.508-10.659-7.001-22.378-7.001-34.679
			s2.493-24.02,7.001-34.679c2.254-5.329,5.012-10.394,8.214-15.134c1.601-2.37,3.313-4.659,5.129-6.859V98h137.497v-1.671
			c1.816,2.2,3.528,4.489,5.129,6.859c3.202,4.74,5.96,9.804,8.214,15.134C286.6,128.98,289.093,140.699,289.093,153z"/>
		<path clip-path="url(#SVGID_2_)" fill="#0062A1" d="M288.211,153c0,12.179-2.468,23.782-6.932,34.336
			c-2.232,5.277-4.963,10.291-8.133,14.984c-1.585,2.346-3.28,4.612-5.078,6.791V208H131.932v1.11
			c-1.798-2.178-3.493-4.444-5.078-6.791c-3.17-4.693-5.901-9.707-8.133-14.984c-4.464-10.553-6.932-22.156-6.932-34.336
			s2.468-23.782,6.932-34.336c2.232-5.277,4.963-10.291,8.133-14.984c1.585-2.346,3.28-4.612,5.078-6.791V98h136.135v-1.11
			c1.798,2.178,3.493,4.444,5.078,6.791c3.17,4.693,5.901,9.707,8.133,14.984C285.742,129.218,288.211,140.821,288.211,153z"/>
		<path clip-path="url(#SVGID_2_)" fill="#0063A2" d="M287.328,153c0,24.115-9.775,45.947-25.578,61.75V208H138.25v6.75
			c-15.803-15.803-25.578-37.635-25.578-61.75s9.775-45.947,25.578-61.75V98H261.75v-6.75
			C277.554,107.053,287.328,128.885,287.328,153z"/>
		<path clip-path="url(#SVGID_2_)" fill="#0063A3" d="M286.446,153c0,23.871-9.676,45.483-25.319,61.126V208H138.874v6.126
			c-15.644-15.644-25.319-37.255-25.319-61.126s9.676-45.483,25.319-61.126V98h122.253v-6.126
			C276.77,107.517,286.446,129.129,286.446,153z"/>
		<path clip-path="url(#SVGID_2_)" fill="#0064A4" d="M285.563,153c0,23.628-9.577,45.018-25.061,60.502V208H139.498v5.502
			c-15.484-15.484-25.061-36.875-25.061-60.502s9.577-45.018,25.061-60.502V98h121.005v-5.502
			C275.986,107.982,285.563,129.372,285.563,153z"/>
		<path clip-path="url(#SVGID_2_)" fill="#0065A5" d="M284.681,153c0,23.384-9.478,44.554-24.802,59.878V208H140.122v4.878
			c-15.324-15.324-24.802-36.494-24.802-59.878s9.478-44.554,24.802-59.878V98h119.757v-4.878
			C275.203,108.446,284.681,129.616,284.681,153z"/>
		<path clip-path="url(#SVGID_2_)" fill="#0065A6" d="M283.798,153c0,23.14-9.379,44.09-24.544,59.254V208H140.746v4.254
			C125.581,197.09,116.202,176.14,116.202,153s9.379-44.09,24.544-59.254V98h118.509v-4.254
			C274.419,108.91,283.798,129.86,283.798,153z"/>
		<path clip-path="url(#SVGID_2_)" fill="#0066A7" d="M282.916,153c0,22.897-9.281,43.626-24.286,58.63V208H141.37v3.63
			c-15.005-15.005-24.286-35.734-24.286-58.63s9.281-43.626,24.286-58.63V98H258.63v-3.63
			C273.635,109.374,282.916,130.103,282.916,153z"/>
		<path clip-path="url(#SVGID_2_)" fill="#0067A8" d="M282.033,153c0,22.653-9.182,43.161-24.027,58.006V208H141.994v3.006
			c-14.845-14.845-24.027-35.354-24.027-58.006s9.182-43.161,24.027-58.006V98h116.013v-3.006
			C272.852,109.839,282.033,130.347,282.033,153z"/>
		<path clip-path="url(#SVGID_2_)" fill="#0067A9" d="M281.151,153c0,22.409-9.083,42.697-23.769,57.382V208H142.618v2.382
			c-14.685-14.685-23.769-34.973-23.769-57.382s9.083-42.697,23.769-57.382V98h114.765v-2.382
			C272.068,110.303,281.151,130.591,281.151,153z"/>
		<path clip-path="url(#SVGID_2_)" fill="#0068AB" d="M280.269,153c0,22.166-8.984,42.233-23.51,56.758V208H143.242v1.758
			c-14.526-14.526-23.51-34.593-23.51-56.758s8.984-42.233,23.51-56.758V98h113.517v-1.758
			C271.284,110.767,280.269,130.834,280.269,153z"/>
		<path clip-path="url(#SVGID_2_)" fill="#0069AC" d="M279.386,153c0,21.922-8.886,41.768-23.252,56.134V208H143.866v1.134
			c-14.366-14.366-23.252-34.213-23.252-56.134s8.886-41.768,23.252-56.134V98h112.269v-1.134
			C270.501,111.232,279.386,131.078,279.386,153z"/>
		<path clip-path="url(#SVGID_2_)" fill="#0069AD" d="M278.504,153c0,21.678-8.787,41.304-22.993,55.51V208H144.49v0.51
			c-14.206-14.206-22.993-33.832-22.993-55.51s8.787-41.304,22.993-55.51V98H255.51v-0.51
			C269.717,111.696,278.504,131.322,278.504,153z"/>
		<path clip-path="url(#SVGID_2_)" fill="#006AAE" d="M277.621,153c0,21.435-8.688,40.84-22.735,54.887
			c-1.756,1.756-3.595,3.428-5.512,5.01V208h-98.749v4.896c-1.917-1.582-3.756-3.254-5.512-5.01
			c-14.047-14.047-22.735-33.452-22.735-54.887s8.688-40.84,22.735-54.886c1.756-1.756,3.595-3.428,5.512-5.01V98h98.749v-4.896
			c1.917,1.582,3.756,3.254,5.512,5.01C268.933,112.16,277.621,131.565,277.621,153z"/>
		<path clip-path="url(#SVGID_2_)" fill="#006BAF" d="M276.739,153c0,21.191-8.589,40.376-22.476,54.263
			c-1.736,1.736-3.555,3.389-5.45,4.953V208h-97.626v4.215c-1.895-1.564-3.714-3.217-5.45-4.953
			c-13.887-13.887-22.476-33.072-22.476-54.263s8.589-40.376,22.476-54.263c1.736-1.736,3.555-3.389,5.45-4.953V98h97.626v-4.215
			c1.895,1.564,3.714,3.217,5.45,4.953C268.15,112.624,276.739,131.809,276.739,153z"/>
		<path clip-path="url(#SVGID_2_)" fill="#006BB0" d="M275.856,153c0,20.947-8.491,39.911-22.218,53.639
			c-1.716,1.716-3.514,3.35-5.387,4.896V208h-96.503v3.534c-1.873-1.546-3.671-3.18-5.387-4.896
			c-13.727-13.727-22.218-32.691-22.218-53.639s8.491-39.911,22.218-53.639c1.716-1.716,3.514-3.35,5.387-4.896V98h96.503v-3.534
			c1.873,1.546,3.671,3.18,5.387,4.896C267.366,113.089,275.856,132.053,275.856,153z"/>
		<path clip-path="url(#SVGID_2_)" fill="#006CB1" d="M274.974,153c0,20.703-8.392,39.447-21.959,53.015
			c-1.696,1.696-3.473,3.311-5.324,4.839V208H152.31v2.854c-1.851-1.528-3.628-3.143-5.324-4.839
			c-13.568-13.568-21.959-32.311-21.959-53.015s8.392-39.447,21.959-53.015c1.696-1.696,3.473-3.311,5.324-4.839V98h95.381v-2.854
			c1.851,1.528,3.628,3.143,5.324,4.839C266.582,113.553,274.974,132.297,274.974,153z"/>
		<path clip-path="url(#SVGID_2_)" fill="#006DB2" d="M274.091,153c0,20.46-8.293,38.983-21.701,52.391
			c-3.352,3.352-7.024,6.384-10.965,9.047V208h-82.85v6.438c-3.942-2.663-7.613-5.695-10.965-9.047
			c-13.408-13.408-21.701-31.931-21.701-52.391s8.293-38.983,21.701-52.391c3.352-3.352,7.024-6.384,10.965-9.047V98h82.85v-6.438
			c3.942,2.663,7.613,5.695,10.965,9.047C265.798,114.017,274.091,132.54,274.091,153z"/>
		<path clip-path="url(#SVGID_2_)" fill="#006DB3" d="M273.209,153c0,20.216-8.194,38.518-21.442,51.767
			c-3.312,3.312-6.94,6.308-10.835,8.939V208h-81.864v5.706c-3.895-2.631-7.523-5.627-10.835-8.939
			c-13.248-13.248-21.442-31.55-21.442-51.767s8.194-38.518,21.442-51.767c3.312-3.312,6.94-6.308,10.835-8.939V98h81.864v-5.706
			c3.895,2.631,7.523,5.627,10.835,8.939C265.015,114.482,273.209,132.784,273.209,153z"/>
		<path clip-path="url(#SVGID_2_)" fill="#006EB4" d="M272.327,153c0,19.972-8.095,38.054-21.184,51.143
			c-3.272,3.272-6.856,6.232-10.704,8.832V208h-80.877v4.974c-3.848-2.6-7.432-5.56-10.704-8.832
			c-13.089-13.089-21.184-31.17-21.184-51.143s8.095-38.054,21.184-51.143c3.272-3.272,6.856-6.232,10.704-8.832V98h80.877v-4.974
			c3.848,2.6,7.432,5.56,10.704,8.832C264.231,114.946,272.327,133.028,272.327,153z"/>
		<path clip-path="url(#SVGID_2_)" fill="#006FB5" d="M271.444,153c0,19.729-7.997,37.59-20.925,50.519
			c-3.232,3.232-6.773,6.156-10.574,8.724V208h-79.89v4.243c-3.801-2.568-7.341-5.492-10.574-8.724
			c-12.929-12.929-20.925-30.79-20.925-50.519s7.997-37.59,20.925-50.519c3.232-3.232,6.773-6.156,10.574-8.724V98h79.89v-4.243
			c3.801,2.568,7.341,5.492,10.574,8.724C263.447,115.41,271.444,133.271,271.444,153z"/>
		<path clip-path="url(#SVGID_2_)" fill="#0070B6" d="M270.562,153c0,19.485-7.898,37.125-20.667,49.895
			c-3.192,3.192-6.689,6.08-10.443,8.616V208h-78.903v3.511c-3.754-2.536-7.251-5.424-10.443-8.616
			c-12.769-12.769-20.667-30.41-20.667-49.895s7.898-37.125,20.667-49.895c3.192-3.192,6.689-6.08,10.443-8.616V98h78.903v-3.511
			c3.754,2.536,7.251,5.424,10.443,8.616C262.664,115.875,270.562,133.515,270.562,153z"/>
		<path clip-path="url(#SVGID_2_)" fill="#0070B7" d="M269.679,153c0,19.241-7.799,36.661-20.409,49.271
			c-3.152,3.152-6.605,6.004-10.312,8.508V208h-77.917v2.779c-3.707-2.504-7.16-5.356-10.312-8.508
			c-12.609-12.609-20.409-30.029-20.409-49.271s7.799-36.661,20.409-49.271c3.152-3.152,6.605-6.004,10.312-8.508V98h77.917v-2.779
			c3.707,2.504,7.16,5.356,10.312,8.508C261.88,116.339,269.679,133.759,269.679,153z"/>
		<path clip-path="url(#SVGID_2_)" fill="#0071B8" d="M268.797,153c0,18.998-7.7,36.197-20.15,48.647
			c-3.112,3.112-6.522,5.928-10.182,8.401V208h-76.93v2.047c-3.66-2.473-7.069-5.288-10.182-8.401
			c-12.45-12.45-20.15-29.649-20.15-48.647s7.7-36.197,20.15-48.647c3.112-3.112,6.522-5.928,10.182-8.401V98h76.93v-2.047
			c3.66,2.473,7.069,5.288,10.182,8.401C261.096,116.803,268.797,134.002,268.797,153z"/>
		<path clip-path="url(#SVGID_2_)" fill="#0072B9" d="M267.914,153c0,18.754-7.602,35.733-19.892,48.023
			c-3.073,3.073-6.438,5.852-10.051,8.293V208h-75.943v1.316c-3.613-2.441-6.979-5.22-10.051-8.293
			c-12.29-12.29-19.892-29.269-19.892-48.023s7.602-35.733,19.892-48.023c3.073-3.073,6.438-5.852,10.051-8.293V98h75.943v-1.316
			c3.613,2.441,6.979,5.22,10.051,8.293C260.313,117.267,267.914,134.246,267.914,153z"/>
		<path clip-path="url(#SVGID_2_)" fill="#0072BA" d="M267.032,153c0,18.51-7.503,35.268-19.633,47.399
			c-6.065,6.065-13.287,10.973-21.307,14.365V208h-52.184v6.764c-8.02-3.392-15.242-8.3-21.307-14.365
			c-12.13-12.13-19.633-28.888-19.633-47.399s7.503-35.268,19.633-47.399c6.065-6.065,13.287-10.973,21.307-14.365V98h52.184v-6.764
			c8.02,3.392,15.242,8.3,21.307,14.365C259.529,117.732,267.032,134.49,267.032,153z"/>
		<path clip-path="url(#SVGID_2_)" fill="#0073BB" d="M266.149,153c0,18.267-7.404,34.804-19.375,46.775
			c-5.985,5.985-13.112,10.829-21.026,14.176V208h-51.497v5.951c-7.914-3.347-15.041-8.191-21.026-14.176
			c-11.971-11.971-19.375-28.508-19.375-46.775s7.404-34.804,19.375-46.775c5.985-5.985,13.112-10.829,21.026-14.176V98h51.497
			v-5.951c7.914,3.347,15.041,8.191,21.026,14.176C258.745,118.196,266.149,134.733,266.149,153z"/>
		<path clip-path="url(#SVGID_2_)" fill="#0074BC" d="M265.267,153c0,18.023-7.305,34.34-19.116,46.151
			c-5.906,5.906-12.937,10.685-20.746,13.987V208h-50.81v5.138c-7.808-3.303-14.84-8.082-20.746-13.987
			c-11.811-11.811-19.116-28.128-19.116-46.151s7.305-34.34,19.116-46.151c5.906-5.906,12.937-10.685,20.746-13.987V98h50.81v-5.138
			c7.808,3.303,14.84,8.082,20.746,13.987C257.962,118.66,265.267,134.977,265.267,153z"/>
		<path clip-path="url(#SVGID_2_)" fill="#0074BD" d="M264.385,153c0,17.779-7.206,33.875-18.858,45.527
			c-5.826,5.826-12.763,10.54-20.465,13.798V208h-50.123v4.325c-7.703-3.258-14.64-7.972-20.465-13.798
			c-11.651-11.651-18.858-27.747-18.858-45.527s7.206-33.875,18.858-45.527c5.826-5.826,12.763-10.54,20.465-13.798V98h50.123
			v-4.325c7.703,3.258,14.64,7.972,20.465,13.798C257.178,119.125,264.385,135.221,264.385,153z"/>
		<path clip-path="url(#SVGID_2_)" fill="#0075BE" d="M263.502,153c0,17.536-7.108,33.411-18.599,44.903
			c-5.746,5.746-12.588,10.396-20.185,13.609V208h-49.436v3.512c-7.597-3.213-14.439-7.863-20.185-13.609
			c-11.492-11.492-18.599-27.367-18.599-44.903s7.108-33.411,18.599-44.903c5.746-5.746,12.588-10.396,20.185-13.609V98h49.436
			v-3.512c7.597,3.213,14.439,7.863,20.185,13.609C256.394,119.589,263.502,135.464,263.502,153z"/>
		<path clip-path="url(#SVGID_2_)" fill="#0075BE" d="M262.62,153c0,17.292-7.009,32.947-18.341,44.279
			c-5.666,5.666-12.413,10.251-19.904,13.42V208h-48.749v2.699c-7.492-3.169-14.238-7.754-19.904-13.42
			C144.389,185.947,137.38,170.292,137.38,153s7.009-32.947,18.341-44.279c5.666-5.666,12.413-10.251,19.904-13.42V98h48.749v-2.699
			c7.492,3.169,14.238,7.754,19.904,13.42C255.611,120.053,262.62,135.708,262.62,153z"/>
		<circle clip-path="url(#SVGID_2_)" fill="#0075BE" cx="200" cy="153" r="61.772"/>
		<circle clip-path="url(#SVGID_2_)" fill="#0075BE" cx="200" cy="153" r="60.925"/>
		<circle clip-path="url(#SVGID_2_)" fill="#0075BE" cx="200" cy="153" r="60.077"/>
		<circle clip-path="url(#SVGID_2_)" fill="#0076BE" cx="200" cy="153" r="59.23"/>
		<circle clip-path="url(#SVGID_2_)" fill="#0176BE" cx="200" cy="153" r="58.382"/>
		<circle clip-path="url(#SVGID_2_)" fill="#0176BF" cx="200" cy="153" r="57.534"/>
		<circle clip-path="url(#SVGID_2_)" fill="#0176BF" cx="200" cy="153" r="56.687"/>
		<circle clip-path="url(#SVGID_2_)" fill="#0177BF" cx="200" cy="153" r="55.839"/>
		<circle clip-path="url(#SVGID_2_)" fill="#0277C0" cx="200" cy="153" r="54.992"/>
		<circle clip-path="url(#SVGID_2_)" fill="#0278C0" cx="200" cy="153" r="54.144"/>
		<circle clip-path="url(#SVGID_2_)" fill="#0379C0" cx="200" cy="153" r="53.297"/>
		<circle clip-path="url(#SVGID_2_)" fill="#0379C1" cx="200" cy="153" r="52.449"/>
		<circle clip-path="url(#SVGID_2_)" fill="#047AC1" cx="200" cy="153" r="51.602"/>
		<circle clip-path="url(#SVGID_2_)" fill="#047BC2" cx="200" cy="153" r="50.754"/>
		<circle clip-path="url(#SVGID_2_)" fill="#057BC2" cx="200" cy="153" r="49.907"/>
		<circle clip-path="url(#SVGID_2_)" fill="#067CC3" cx="200" cy="153" r="49.059"/>
		<circle clip-path="url(#SVGID_2_)" fill="#067DC3" cx="200" cy="153" r="48.212"/>
		<circle clip-path="url(#SVGID_2_)" fill="#077EC4" cx="200" cy="153" r="47.364"/>
		<circle clip-path="url(#SVGID_2_)" fill="#087FC5" cx="200" cy="153" r="46.517"/>
		<circle clip-path="url(#SVGID_2_)" fill="#0980C5" cx="200" cy="153" r="45.669"/>
		<circle clip-path="url(#SVGID_2_)" fill="#0A81C6" cx="200" cy="153" r="44.822"/>
		<circle clip-path="url(#SVGID_2_)" fill="#0A83C7" cx="200" cy="153" r="43.974"/>
		<circle clip-path="url(#SVGID_2_)" fill="#0B84C7" cx="200" cy="153" r="43.127"/>
		<circle clip-path="url(#SVGID_2_)" fill="#0C85C8" cx="200" cy="153" r="42.279"/>
		<circle clip-path="url(#SVGID_2_)" fill="#0D86C9" cx="200" cy="153" r="41.432"/>
		<circle clip-path="url(#SVGID_2_)" fill="#0E88CA" cx="200" cy="153" r="40.584"/>
		<circle clip-path="url(#SVGID_2_)" fill="#0F89CB" cx="200" cy="153" r="39.736"/>
		<circle clip-path="url(#SVGID_2_)" fill="#118BCC" cx="200" cy="153" r="38.889"/>
		<circle clip-path="url(#SVGID_2_)" fill="#128CCD" cx="200" cy="153" r="38.041"/>
		<circle clip-path="url(#SVGID_2_)" fill="#138ECE" cx="200" cy="153" r="37.194"/>
		<circle clip-path="url(#SVGID_2_)" fill="#148FCF" cx="200" cy="153" r="36.346"/>
		<circle clip-path="url(#SVGID_2_)" fill="#1691D0" cx="200" cy="153" r="35.499"/>
		<circle clip-path="url(#SVGID_2_)" fill="#1793D1" cx="200" cy="153" r="34.651"/>
		<circle clip-path="url(#SVGID_2_)" fill="#1894D2" cx="200" cy="153" r="33.804"/>
		<circle clip-path="url(#SVGID_2_)" fill="#1A96D3" cx="200" cy="153" r="32.956"/>
		<circle clip-path="url(#SVGID_2_)" fill="#1B98D5" cx="200" cy="153" r="32.109"/>
		<circle clip-path="url(#SVGID_2_)" fill="#1C9AD6" cx="200" cy="153" r="31.261"/>
		<circle clip-path="url(#SVGID_2_)" fill="#1E9CD7" cx="200" cy="153" r="30.414"/>
		<circle clip-path="url(#SVGID_2_)" fill="#1E9CD7" cx="200" cy="153" r="29.566"/>
		<circle clip-path="url(#SVGID_2_)" fill="#1E9CD7" cx="200" cy="153" r="29.396"/>
		<circle clip-path="url(#SVGID_2_)" fill="#1E9CD7" cx="200" cy="153" r="29.226"/>
		<circle clip-path="url(#SVGID_2_)" fill="#1E9CD7" cx="200" cy="153" r="29.056"/>
		<circle clip-path="url(#SVGID_2_)" fill="#1E9CD7" cx="200" cy="153" r="28.887"/>
		<circle clip-path="url(#SVGID_2_)" fill="#1E9CD7" cx="200" cy="153" r="28.717"/>
		<circle clip-path="url(#SVGID_2_)" fill="#1E9CD7" cx="200" cy="153" r="28.547"/>
		<circle clip-path="url(#SVGID_2_)" fill="#1E9CD7" cx="200" cy="153" r="28.377"/>
		<circle clip-path="url(#SVGID_2_)" fill="#1E9CD7" cx="200" cy="153" r="28.207"/>
		<circle clip-path="url(#SVGID_2_)" fill="#1E9CD7" cx="200" cy="153" r="28.037"/>
		<circle clip-path="url(#SVGID_2_)" fill="#1E9CD7" cx="200" cy="153" r="27.867"/>
		<circle clip-path="url(#SVGID_2_)" fill="#1E9CD7" cx="200" cy="153" r="27.697"/>
		<circle clip-path="url(#SVGID_2_)" fill="#1E9CD7" cx="200" cy="153" r="27.527"/>
		<circle clip-path="url(#SVGID_2_)" fill="#1E9CD7" cx="200" cy="153" r="27.357"/>
		<circle clip-path="url(#SVGID_2_)" fill="#1E9CD7" cx="200" cy="153" r="27.187"/>
		<circle clip-path="url(#SVGID_2_)" fill="#1E9CD7" cx="200" cy="153" r="27.017"/>
		<circle clip-path="url(#SVGID_2_)" fill="#1E9CD7" cx="200" cy="153" r="26.847"/>
		<circle clip-path="url(#SVGID_2_)" fill="#1E9CD7" cx="200" cy="153" r="26.678"/>
		<circle clip-path="url(#SVGID_2_)" fill="#1E9CD7" cx="200" cy="153" r="26.508"/>
		<circle clip-path="url(#SVGID_2_)" fill="#1E9CD7" cx="200" cy="153" r="26.338"/>
		<circle clip-path="url(#SVGID_2_)" fill="#1E9CD7" cx="200" cy="153" r="26.168"/>
		<circle clip-path="url(#SVGID_2_)" fill="#1E9CD7" cx="200" cy="153" r="25.998"/>
		<circle clip-path="url(#SVGID_2_)" fill="#1E9CD7" cx="200" cy="153" r="25.828"/>
		<circle clip-path="url(#SVGID_2_)" fill="#1E9CD7" cx="200" cy="153" r="25.658"/>
		<circle clip-path="url(#SVGID_2_)" fill="#1E9CD7" cx="200" cy="153" r="25.488"/>
		<circle clip-path="url(#SVGID_2_)" fill="#1E9CD7" cx="200" cy="153" r="25.318"/>
		<circle clip-path="url(#SVGID_2_)" fill="#1E9CD7" cx="200" cy="153" r="25.148"/>
		<circle clip-path="url(#SVGID_2_)" fill="#1E9CD7" cx="200" cy="153" r="24.978"/>
		<circle clip-path="url(#SVGID_2_)" fill="#1E9CD7" cx="200" cy="153" r="24.808"/>
		<circle clip-path="url(#SVGID_2_)" fill="#1E9CD7" cx="200" cy="153" r="24.638"/>
		<circle clip-path="url(#SVGID_2_)" fill="#1E9CD7" cx="200" cy="153" r="24.469"/>
		<circle clip-path="url(#SVGID_2_)" fill="#1E9CD7" cx="200" cy="153" r="24.299"/>
		<circle clip-path="url(#SVGID_2_)" fill="#1E9CD7" cx="200" cy="153" r="24.129"/>
		<circle clip-path="url(#SVGID_2_)" fill="#1E9CD7" cx="200" cy="153" r="23.959"/>
		<circle clip-path="url(#SVGID_2_)" fill="#1E9CD7" cx="200" cy="153" r="23.789"/>
		<circle clip-path="url(#SVGID_2_)" fill="#1E9CD7" cx="200" cy="153" r="23.619"/>
		<circle clip-path="url(#SVGID_2_)" fill="#1E9CD7" cx="200" cy="153" r="23.449"/>
		<circle clip-path="url(#SVGID_2_)" fill="#1E9CD7" cx="200" cy="153" r="23.279"/>
		<circle clip-path="url(#SVGID_2_)" fill="#1E9CD7" cx="200" cy="153" r="23.109"/>
		<circle clip-path="url(#SVGID_2_)" fill="#1F9CD7" cx="200" cy="153" r="22.939"/>
		<circle clip-path="url(#SVGID_2_)" fill="#1F9CD7" cx="200" cy="153" r="22.769"/>
		<circle clip-path="url(#SVGID_2_)" fill="#1F9CD7" cx="200" cy="153" r="22.599"/>
		<circle clip-path="url(#SVGID_2_)" fill="#1F9CD7" cx="200" cy="153" r="22.43"/>
		<circle clip-path="url(#SVGID_2_)" fill="#1F9CD7" cx="200" cy="153" r="22.26"/>
		<circle clip-path="url(#SVGID_2_)" fill="#1F9CD7" cx="200" cy="153" r="22.09"/>
		<circle clip-path="url(#SVGID_2_)" fill="#1F9CD7" cx="200" cy="153" r="21.92"/>
		<circle clip-path="url(#SVGID_2_)" fill="#1F9CD7" cx="200" cy="153" r="21.75"/>
		<circle clip-path="url(#SVGID_2_)" fill="#1F9CD7" cx="200" cy="153" r="21.58"/>
		<circle clip-path="url(#SVGID_2_)" fill="#1F9CD7" cx="200" cy="153" r="21.41"/>
		<circle clip-path="url(#SVGID_2_)" fill="#1F9CD7" cx="200" cy="153" r="21.24"/>
		<circle clip-path="url(#SVGID_2_)" fill="#1F9DD7" cx="200" cy="153" r="21.07"/>
		<circle clip-path="url(#SVGID_2_)" fill="#1F9DD7" cx="200" cy="153" r="20.9"/>
		<circle clip-path="url(#SVGID_2_)" fill="#209DD7" cx="200" cy="153" r="20.73"/>
		<circle clip-path="url(#SVGID_2_)" fill="#209DD7" cx="200" cy="153" r="20.56"/>
		<circle clip-path="url(#SVGID_2_)" fill="#209DD7" cx="200" cy="153" r="20.39"/>
		<circle clip-path="url(#SVGID_2_)" fill="#209DD7" cx="200" cy="153" r="20.221"/>
		<circle clip-path="url(#SVGID_2_)" fill="#209DD7" cx="200" cy="153" r="20.051"/>
		<circle clip-path="url(#SVGID_2_)" fill="#209DD7" cx="200" cy="153" r="19.881"/>
		<circle clip-path="url(#SVGID_2_)" fill="#209DD7" cx="200" cy="153" r="19.711"/>
		<circle clip-path="url(#SVGID_2_)" fill="#219DD7" cx="200" cy="153" r="19.541"/>
		<circle clip-path="url(#SVGID_2_)" fill="#219DD7" cx="200" cy="153" r="19.371"/>
		<circle clip-path="url(#SVGID_2_)" fill="#219DD7" cx="200" cy="153" r="19.201"/>
		<circle clip-path="url(#SVGID_2_)" fill="#219DD8" cx="200" cy="153" r="19.031"/>
		<circle clip-path="url(#SVGID_2_)" fill="#219DD8" cx="200" cy="153" r="18.861"/>
		<circle clip-path="url(#SVGID_2_)" fill="#229DD8" cx="200" cy="153" r="18.691"/>
		<circle clip-path="url(#SVGID_2_)" fill="#229DD8" cx="200" cy="153" r="18.521"/>
		<circle clip-path="url(#SVGID_2_)" fill="#229ED8" cx="200" cy="153" r="18.351"/>
		<circle clip-path="url(#SVGID_2_)" fill="#229ED8" cx="200" cy="153" r="18.182"/>
		<circle clip-path="url(#SVGID_2_)" fill="#239ED8" cx="200" cy="153" r="18.012"/>
		<circle clip-path="url(#SVGID_2_)" fill="#239ED8" cx="200" cy="153" r="17.842"/>
		<circle clip-path="url(#SVGID_2_)" fill="#239ED8" cx="200" cy="153" r="17.672"/>
		<circle clip-path="url(#SVGID_2_)" fill="#239ED8" cx="200" cy="153" r="17.502"/>
		<circle clip-path="url(#SVGID_2_)" fill="#249ED8" cx="200" cy="153" r="17.332"/>
		<circle clip-path="url(#SVGID_2_)" fill="#249ED8" cx="200" cy="153" r="17.162"/>
		<circle clip-path="url(#SVGID_2_)" fill="#249ED8" cx="200" cy="153" r="16.992"/>
		<circle clip-path="url(#SVGID_2_)" fill="#259FD8" cx="200" cy="153" r="16.822"/>
		<circle clip-path="url(#SVGID_2_)" fill="#259FD8" cx="200" cy="153" r="16.652"/>
		<circle clip-path="url(#SVGID_2_)" fill="#259FD8" cx="200" cy="153" r="16.482"/>
		<circle clip-path="url(#SVGID_2_)" fill="#269FD8" cx="200" cy="153" r="16.312"/>
		<circle clip-path="url(#SVGID_2_)" fill="#269FD8" cx="200" cy="153" r="16.142"/>
		<circle clip-path="url(#SVGID_2_)" fill="#279FD8" cx="200" cy="153" r="15.973"/>
		<circle clip-path="url(#SVGID_2_)" fill="#279FD8" cx="200" cy="153" r="15.803"/>
		<circle clip-path="url(#SVGID_2_)" fill="#27A0D9" cx="200" cy="153" r="15.633"/>
		<circle clip-path="url(#SVGID_2_)" fill="#28A0D9" cx="200" cy="153" r="15.463"/>
		<circle clip-path="url(#SVGID_2_)" fill="#28A0D9" cx="200" cy="153" r="15.293"/>
		<circle clip-path="url(#SVGID_2_)" fill="#29A0D9" cx="200" cy="153" r="15.123"/>
		<circle clip-path="url(#SVGID_2_)" fill="#29A0D9" cx="200" cy="153" r="14.953"/>
		<circle clip-path="url(#SVGID_2_)" fill="#2AA1D9" cx="200" cy="153" r="14.783"/>
		<circle clip-path="url(#SVGID_2_)" fill="#2AA1D9" cx="200" cy="153" r="14.613"/>
		<circle clip-path="url(#SVGID_2_)" fill="#2BA1D9" cx="200" cy="153" r="14.443"/>
		<circle clip-path="url(#SVGID_2_)" fill="#2BA1D9" cx="200" cy="153" r="14.273"/>
		<circle clip-path="url(#SVGID_2_)" fill="#2CA2D9" cx="200" cy="153" r="14.103"/>
		<circle clip-path="url(#SVGID_2_)" fill="#2DA2D9" cx="200" cy="153" r="13.933"/>
		<circle clip-path="url(#SVGID_2_)" fill="#2DA2DA" cx="200" cy="153" r="13.764"/>
		<circle clip-path="url(#SVGID_2_)" fill="#2EA2DA" cx="200" cy="153" r="13.594"/>
		<circle clip-path="url(#SVGID_2_)" fill="#2FA3DA" cx="200" cy="153" r="13.424"/>
		<circle clip-path="url(#SVGID_2_)" fill="#2FA3DA" cx="200" cy="153" r="13.254"/>
		<circle clip-path="url(#SVGID_2_)" fill="#30A3DA" cx="200" cy="153" r="13.084"/>
		<circle clip-path="url(#SVGID_2_)" fill="#31A3DA" cx="200" cy="153" r="12.914"/>
		<circle clip-path="url(#SVGID_2_)" fill="#32A4DA" cx="200" cy="153" r="12.744"/>
		<circle clip-path="url(#SVGID_2_)" fill="#32A4DA" cx="200" cy="153" r="12.574"/>
		<circle clip-path="url(#SVGID_2_)" fill="#33A4DB" cx="200" cy="153" r="12.404"/>
		<circle clip-path="url(#SVGID_2_)" fill="#34A5DB" cx="200" cy="153" r="12.234"/>
		<circle clip-path="url(#SVGID_2_)" fill="#35A5DB" cx="200" cy="153" r="12.064"/>
		<circle clip-path="url(#SVGID_2_)" fill="#36A5DB" cx="200" cy="153" r="11.894"/>
		<circle clip-path="url(#SVGID_2_)" fill="#37A6DB" cx="200" cy="153" r="11.725"/>
		<circle clip-path="url(#SVGID_2_)" fill="#38A6DB" cx="200" cy="153" r="11.555"/>
		<circle clip-path="url(#SVGID_2_)" fill="#39A6DB" cx="200" cy="153" r="11.385"/>
		<circle clip-path="url(#SVGID_2_)" fill="#3AA7DC" cx="200" cy="153" r="11.215"/>
		<circle clip-path="url(#SVGID_2_)" fill="#3BA7DC" cx="200" cy="153" r="11.045"/>
		<circle clip-path="url(#SVGID_2_)" fill="#3CA8DC" cx="200" cy="153" r="10.875"/>
		<circle clip-path="url(#SVGID_2_)" fill="#3DA8DC" cx="200" cy="153" r="10.705"/>
		<circle clip-path="url(#SVGID_2_)" fill="#3EA8DC" cx="200" cy="153" r="10.535"/>
		<circle clip-path="url(#SVGID_2_)" fill="#3FA9DC" cx="200" cy="153" r="10.365"/>
		<circle clip-path="url(#SVGID_2_)" fill="#40A9DD" cx="200" cy="153" r="10.195"/>
		<circle clip-path="url(#SVGID_2_)" fill="#41AADD" cx="200" cy="153" r="10.025"/>
		<circle clip-path="url(#SVGID_2_)" fill="#42AADD" cx="200" cy="153" r="9.855"/>
		<circle clip-path="url(#SVGID_2_)" fill="#44ABDD" cx="200" cy="153" r="9.685"/>
		<circle clip-path="url(#SVGID_2_)" fill="#45ABDD" cx="200" cy="153" r="9.516"/>
		<circle clip-path="url(#SVGID_2_)" fill="#46ACDE" cx="200" cy="153" r="9.346"/>
		<circle clip-path="url(#SVGID_2_)" fill="#48ACDE" cx="200" cy="153" r="9.176"/>
		<circle clip-path="url(#SVGID_2_)" fill="#49ADDE" cx="200" cy="153" r="9.006"/>
		<circle clip-path="url(#SVGID_2_)" fill="#4AADDE" cx="200" cy="153" r="8.836"/>
		<circle clip-path="url(#SVGID_2_)" fill="#4CAEDF" cx="200" cy="153" r="8.666"/>
		<circle clip-path="url(#SVGID_2_)" fill="#4DAEDF" cx="200" cy="153" r="8.496"/>
		<circle clip-path="url(#SVGID_2_)" fill="#4FAFDF" cx="200" cy="153" r="8.326"/>
		<circle clip-path="url(#SVGID_2_)" fill="#50B0DF" cx="200" cy="153" r="8.156"/>
		<circle clip-path="url(#SVGID_2_)" fill="#52B0E0" cx="200" cy="153" r="7.986"/>
		<circle clip-path="url(#SVGID_2_)" fill="#54B1E0" cx="200" cy="153" r="7.816"/>
		<circle clip-path="url(#SVGID_2_)" fill="#55B2E0" cx="200" cy="153" r="7.646"/>
		<circle clip-path="url(#SVGID_2_)" fill="#57B2E0" cx="200" cy="153" r="7.477"/>
		<circle clip-path="url(#SVGID_2_)" fill="#59B3E1" cx="200" cy="153" r="7.307"/>
		<circle clip-path="url(#SVGID_2_)" fill="#5AB4E1" cx="200" cy="153" r="7.137"/>
		<circle clip-path="url(#SVGID_2_)" fill="#5CB4E1" cx="200" cy="153" r="6.967"/>
		<circle clip-path="url(#SVGID_2_)" fill="#5EB5E2" cx="200" cy="153" r="6.797"/>
		<circle clip-path="url(#SVGID_2_)" fill="#60B6E2" cx="200" cy="153" r="6.627"/>
		<circle clip-path="url(#SVGID_2_)" fill="#62B7E2" cx="200" cy="153" r="6.457"/>
		<circle clip-path="url(#SVGID_2_)" fill="#64B7E3" cx="200" cy="153" r="6.287"/>
		<circle clip-path="url(#SVGID_2_)" fill="#66B8E3" cx="200" cy="153" r="6.117"/>
		<circle clip-path="url(#SVGID_2_)" fill="#68B9E3" cx="200" cy="153" r="5.947"/>
		<circle clip-path="url(#SVGID_2_)" fill="#6ABAE4" cx="200" cy="153" r="5.777"/>
		<circle clip-path="url(#SVGID_2_)" fill="#6CBBE4" cx="200" cy="153" r="5.607"/>
		<circle clip-path="url(#SVGID_2_)" fill="#6EBBE4" cx="200" cy="153" r="5.437"/>
		<circle clip-path="url(#SVGID_2_)" fill="#71BCE5" cx="200" cy="153" r="5.268"/>
		<circle clip-path="url(#SVGID_2_)" fill="#73BDE5" cx="200" cy="153" r="5.098"/>
		<circle clip-path="url(#SVGID_2_)" fill="#75BEE6" cx="200" cy="153" r="4.928"/>
		<circle clip-path="url(#SVGID_2_)" fill="#78BFE6" cx="200" cy="153" r="4.758"/>
		<circle clip-path="url(#SVGID_2_)" fill="#7AC0E6" cx="200" cy="153" r="4.588"/>
		<circle clip-path="url(#SVGID_2_)" fill="#7CC1E7" cx="200" cy="153" r="4.418"/>
		<circle clip-path="url(#SVGID_2_)" fill="#7FC2E7" cx="200" cy="153" r="4.248"/>
		<circle clip-path="url(#SVGID_2_)" fill="#82C3E8" cx="200" cy="153" r="4.078"/>
		<circle clip-path="url(#SVGID_2_)" fill="#84C4E8" cx="200" cy="153" r="3.908"/>
		<circle clip-path="url(#SVGID_2_)" fill="#87C5E8" cx="200" cy="153" r="3.738"/>
		<circle clip-path="url(#SVGID_2_)" fill="#8AC6E9" cx="200" cy="153" r="3.568"/>
		<circle clip-path="url(#SVGID_2_)" fill="#8CC7E9" cx="200" cy="153" r="3.398"/>
		<circle clip-path="url(#SVGID_2_)" fill="#8FC8EA" cx="200" cy="153" r="3.228"/>
		<circle clip-path="url(#SVGID_2_)" fill="#92C9EA" cx="200" cy="153" r="3.059"/>
		<circle clip-path="url(#SVGID_2_)" fill="#95CBEB" cx="200" cy="153" r="2.889"/>
		<circle clip-path="url(#SVGID_2_)" fill="#98CCEB" cx="200" cy="153" r="2.719"/>
		<circle clip-path="url(#SVGID_2_)" fill="#9BCDEC" cx="200" cy="153" r="2.549"/>
		<circle clip-path="url(#SVGID_2_)" fill="#9ECEEC" cx="200" cy="153" r="2.379"/>
		<circle clip-path="url(#SVGID_2_)" fill="#A1CFED" cx="200" cy="153" r="2.209"/>
		<circle clip-path="url(#SVGID_2_)" fill="#A5D1ED" cx="200" cy="153" r="2.039"/>
		<circle clip-path="url(#SVGID_2_)" fill="#A8D2EE" cx="200" cy="153" r="1.869"/>
		<circle clip-path="url(#SVGID_2_)" fill="#ABD3EF" cx="200" cy="153" r="1.699"/>
		<circle clip-path="url(#SVGID_2_)" fill="#AFD4EF" cx="200" cy="153" r="1.529"/>
		<circle clip-path="url(#SVGID_2_)" fill="#B2D6F0" cx="200" cy="153" r="1.359"/>
		<circle clip-path="url(#SVGID_2_)" fill="#B6D7F0" cx="200" cy="153" r="1.189"/>
		<circle clip-path="url(#SVGID_2_)" fill="#B9D9F1" cx="200" cy="153" r="1.02"/>
		<circle clip-path="url(#SVGID_2_)" fill="#BDDAF1" cx="200" cy="153" r="0.85"/>
		<circle clip-path="url(#SVGID_2_)" fill="#C0DBF2" cx="200" cy="153" r="0.68"/>
		<circle clip-path="url(#SVGID_2_)" fill="#C4DDF3" cx="200" cy="153" r="0.51"/>
		<circle clip-path="url(#SVGID_2_)" fill="#C8DEF3" cx="200" cy="153" r="0.34"/>
		<circle clip-path="url(#SVGID_2_)" fill="#CCE0F4" cx="200" cy="153" r="0.17"/>
	</g>
	<radialGradient id="SVGID_3_" cx="200.0049" cy="153.0117" r="97.7076" gradientUnits="userSpaceOnUse">
		<stop  offset="0" style="stop-color:#CCE0F4"/>
		<stop  offset="0.0641" style="stop-color:#C3DCF2"/>
		<stop  offset="0.1706" style="stop-color:#A9D2EE"/>
		<stop  offset="0.3066" style="stop-color:#80C2E7"/>
		<stop  offset="0.4649" style="stop-color:#47ACDE"/>
		<stop  offset="0.5674" style="stop-color:#1E9CD7"/>
		<stop  offset="0.8652" style="stop-color:#0075BE"/>
		<stop  offset="0.9944" style="stop-color:#005B97"/>
	</radialGradient>
	<path fill="url(#SVGID_3_)" d="M200,207.148l-0.068-0.043l-127.06-82.04l0.003-0.072c0.002-0.055,0.289-5.597,3.515-11.554
		c2.979-5.499,9.142-12.489,21.589-14.564L302,98.875c0.07,0.009,5.36,0.797,11.066,4.394c5.268,3.321,11.982,9.783,14.057,21.709
		l0.015,0.082l-0.07,0.045L200,207.148z M73.129,124.935L200,206.852l126.862-81.912c-2.074-11.783-8.716-18.173-13.929-21.459
		c-5.662-3.57-10.899-4.35-10.951-4.357L98,99.125c-12.322,2.056-18.433,8.979-21.385,14.425
		C73.61,119.093,73.174,124.271,73.129,124.935z"/>
</g>
<g>
	<g>
		<defs>
			<path id="SVGID_4_" d="M73,140l125,81c0,0,3,1,4,0l125-81v128c0,0,1,26-30,29H101c0,0-25-1-28-29V140z"/>
		</defs>
		<clipPath id="SVGID_5_">
			<use xlink:href="#SVGID_4_"  overflow="visible"/>
		</clipPath>
		<rect x="73" y="140" clip-path="url(#SVGID_5_)" fill="#005B97" width="255" height="157"/>
		<path clip-path="url(#SVGID_5_)" fill="#005B97" d="M304.983,218.5c0,28.99-11.75,55.235-30.748,74.233
			c-2.375,2.375-4.863,4.636-7.455,6.776V298H133.224v1.508c-2.592-2.139-5.08-4.401-7.455-6.776
			c-18.998-18.998-30.748-45.243-30.748-74.233s11.75-55.235,30.748-74.233c2.375-2.375,4.863-4.636,7.455-6.776V139h133.555v-1.508
			c2.592,2.139,5.08,4.401,7.455,6.776C293.232,163.265,304.983,189.51,304.983,218.5z"/>
		<path clip-path="url(#SVGID_5_)" fill="#005C98" d="M304.109,218.5c0,28.748-11.653,54.775-30.492,73.615
			c-4.71,4.71-9.869,8.971-15.408,12.712V298H141.795v6.827c-5.539-3.742-10.698-8.002-15.408-12.712
			c-18.84-18.84-30.492-44.866-30.492-73.615s11.653-54.775,30.492-73.615c4.71-4.71,9.869-8.971,15.408-12.712V139h116.414v-6.827
			c5.539,3.742,10.698,8.002,15.408,12.712C292.456,163.725,304.109,189.752,304.109,218.5z"/>
		<path clip-path="url(#SVGID_5_)" fill="#005C99" d="M303.235,218.5c0,28.507-11.555,54.315-30.236,72.997
			c-4.67,4.67-9.786,8.895-15.278,12.606V298H142.283v6.102c-5.492-3.71-10.608-7.935-15.278-12.606
			c-18.681-18.681-30.236-44.49-30.236-72.997s11.555-54.315,30.236-72.997c4.67-4.67,9.786-8.895,15.278-12.606V139H257.72v-6.102
			c5.492,3.71,10.608,7.935,15.278,12.606C291.68,164.185,303.235,189.993,303.235,218.5z"/>
		<path clip-path="url(#SVGID_5_)" fill="#005D9A" d="M302.361,218.5c0,28.266-11.457,53.855-29.98,72.379
			c-4.631,4.631-9.703,8.82-15.149,12.499V298H142.772v5.377c-5.446-3.679-10.518-7.868-15.149-12.499
			c-18.523-18.523-29.98-44.113-29.98-72.379s11.457-53.855,29.98-72.379c4.631-4.631,9.703-8.82,15.149-12.499V139h114.459v-5.377
			c5.446,3.679,10.518,7.868,15.149,12.499C290.904,164.645,302.361,190.234,302.361,218.5z"/>
		<path clip-path="url(#SVGID_5_)" fill="#005E9B" d="M301.486,218.5c0,28.024-11.359,53.395-29.724,71.76
			c-4.591,4.591-9.62,8.745-15.019,12.392V298H143.261v4.653c-5.399-3.648-10.428-7.801-15.019-12.392
			c-18.365-18.365-29.724-43.736-29.724-71.76s11.359-53.395,29.724-71.76c4.591-4.591,9.62-8.745,15.019-12.392V139h113.482v-4.653
			c5.399,3.648,10.428,7.801,15.019,12.392C290.127,165.105,301.486,190.476,301.486,218.5z"/>
		<path clip-path="url(#SVGID_5_)" fill="#005E9C" d="M300.612,218.5c0,27.783-11.261,52.935-29.468,71.142
			c-4.552,4.552-9.538,8.669-14.89,12.285V298H143.75v3.928c-5.353-3.616-10.338-7.734-14.89-12.285
			c-18.207-18.207-29.468-43.36-29.468-71.142s11.261-52.935,29.468-71.142c4.552-4.552,9.538-8.669,14.89-12.285V139h112.505
			v-3.928c5.353,3.616,10.338,7.734,14.89,12.285C289.351,165.565,300.612,190.717,300.612,218.5z"/>
		<path clip-path="url(#SVGID_5_)" fill="#005F9D" d="M299.738,218.5c0,27.541-11.163,52.476-29.212,70.524
			c-4.512,4.512-9.455,8.594-14.761,12.179V298H144.238v3.203c-5.306-3.585-10.249-7.667-14.761-12.179
			c-18.049-18.049-29.212-42.983-29.212-70.524s11.163-52.476,29.212-70.524c4.512-4.512,9.455-8.594,14.761-12.179V139h111.527
			v-3.203c5.306,3.585,10.249,7.667,14.761,12.179C288.575,166.024,299.738,190.959,299.738,218.5z"/>
		<path clip-path="url(#SVGID_5_)" fill="#00609E" d="M298.864,218.5c0,27.3-11.066,52.016-28.956,69.906
			c-4.473,4.473-9.372,8.519-14.631,12.072V298h-110.55v2.478c-5.26-3.553-10.159-7.599-14.631-12.072
			c-17.891-17.891-28.956-42.606-28.956-69.906s11.066-52.016,28.956-69.906c4.473-4.473,9.372-8.519,14.631-12.072V139h110.55
			v-2.478c5.26,3.553,10.159,7.599,14.631,12.072C287.799,166.484,298.864,191.2,298.864,218.5z"/>
		<path clip-path="url(#SVGID_5_)" fill="#00609F" d="M297.99,218.5c0,27.059-10.968,51.556-28.7,69.288
			c-4.433,4.433-9.289,8.443-14.502,11.965V298H145.216v1.754c-5.213-3.522-10.069-7.532-14.502-11.965
			c-17.732-17.732-28.7-42.23-28.7-69.288s10.968-51.556,28.7-69.288c4.433-4.433,9.289-8.443,14.502-11.965V139h109.573v-1.754
			c5.213,3.522,10.069,7.532,14.502,11.965C287.023,166.944,297.99,191.441,297.99,218.5z"/>
		<path clip-path="url(#SVGID_5_)" fill="#0061A0" d="M297.116,218.5c0,26.817-10.87,51.096-28.444,68.67
			c-4.394,4.394-9.206,8.368-14.373,11.859V298H145.704v1.029c-5.167-3.49-9.979-7.465-14.373-11.859
			c-17.574-17.574-28.444-41.853-28.444-68.67s10.87-51.096,28.444-68.67c4.394-4.394,9.206-8.368,14.373-11.859V139h108.595v-1.029
			c5.167,3.49,9.979,7.465,14.373,11.859C286.246,167.404,297.116,191.683,297.116,218.5z"/>
		<path clip-path="url(#SVGID_5_)" fill="#0062A1" d="M296.242,218.5c0,26.576-10.772,50.636-28.188,68.052
			c-4.354,4.354-9.123,8.293-14.243,11.752V298H146.193v0.304c-5.12-3.459-9.889-7.398-14.243-11.752
			c-17.416-17.416-28.188-41.476-28.188-68.052s10.772-50.636,28.188-68.052c4.354-4.354,9.123-8.293,14.243-11.752V139h107.618
			v-0.304c5.12,3.459,9.889,7.398,14.243,11.752C285.47,167.864,296.242,191.924,296.242,218.5z"/>
		<path clip-path="url(#SVGID_5_)" fill="#0063A2" d="M295.368,218.5c0,26.335-10.674,50.176-27.932,67.434
			c-4.314,4.314-9.04,8.217-14.114,11.645c-2.537,1.714-5.16,3.309-7.863,4.777V298h-90.914v4.356
			c-2.703-1.468-5.326-3.063-7.863-4.777c-5.074-3.428-9.799-7.331-14.114-11.645c-17.258-17.258-27.932-41.099-27.932-67.434
			s10.674-50.176,27.932-67.434c4.314-4.314,9.04-8.217,14.114-11.645c2.537-1.714,5.16-3.309,7.863-4.777V139h90.914v-4.356
			c2.703,1.468,5.326,3.063,7.863,4.777c5.074,3.428,9.799,7.331,14.114,11.645C284.694,168.324,295.368,192.165,295.368,218.5z"/>
		<path clip-path="url(#SVGID_5_)" fill="#0063A3" d="M294.494,218.5c0,26.093-10.576,49.716-27.676,66.816
			c-4.275,4.275-8.958,8.142-13.985,11.538c-2.514,1.698-5.113,3.278-7.791,4.733V298h-90.081v3.588
			c-2.678-1.455-5.277-3.035-7.791-4.733c-5.027-3.396-9.71-7.263-13.985-11.538c-17.1-17.1-27.676-40.723-27.676-66.816
			s10.576-49.716,27.676-66.816c4.275-4.275,8.958-8.142,13.985-11.538c2.514-1.698,5.113-3.278,7.791-4.733V139h90.081v-3.588
			c2.678,1.455,5.277,3.035,7.791,4.733c5.027,3.396,9.71,7.263,13.985,11.538C283.918,168.784,294.494,192.407,294.494,218.5z"/>
		<path clip-path="url(#SVGID_5_)" fill="#0064A4" d="M293.62,218.5c0,25.852-10.479,49.256-27.42,66.198
			c-8.471,8.471-18.557,15.326-29.758,20.063V298h-72.881v6.761c-11.2-4.737-21.287-11.592-29.758-20.063
			c-16.942-16.942-27.42-40.346-27.42-66.198s10.479-49.256,27.42-66.198c8.471-8.471,18.557-15.326,29.758-20.063V139h72.881
			v-6.761c11.2,4.737,21.287,11.592,29.758,20.063C283.141,169.244,293.62,192.648,293.62,218.5z"/>
		<path clip-path="url(#SVGID_5_)" fill="#0065A5" d="M292.746,218.5c0,25.611-10.381,48.797-27.164,65.58
			c-8.392,8.392-18.384,15.183-29.48,19.876V298h-72.2v5.956c-11.096-4.693-21.088-11.484-29.48-19.876
			c-16.783-16.783-27.164-39.969-27.164-65.58s10.381-48.797,27.164-65.58c8.392-8.392,18.384-15.183,29.48-19.876V139h72.2v-5.956
			c11.096,4.693,21.088,11.484,29.48,19.876C282.365,169.703,292.746,192.889,292.746,218.5z"/>
		<path clip-path="url(#SVGID_5_)" fill="#0065A6" d="M291.872,218.5c0,25.369-10.283,48.337-26.908,64.962
			c-8.313,8.313-18.211,15.04-29.202,19.689V298h-71.52v5.15c-10.991-4.649-20.889-11.376-29.202-19.689
			c-16.625-16.625-26.908-39.593-26.908-64.962s10.283-48.337,26.908-64.962c8.313-8.313,18.211-15.04,29.202-19.689V139h71.52
			v-5.15c10.991,4.649,20.889,11.376,29.202,19.689C281.589,170.163,291.872,193.131,291.872,218.5z"/>
		<path clip-path="url(#SVGID_5_)" fill="#0066A7" d="M290.998,218.5c0,25.128-10.185,47.877-26.652,64.344
			c-8.234,8.234-18.038,14.897-28.924,19.501V298h-70.839v4.345c-10.887-4.605-20.691-11.268-28.924-19.501
			c-16.467-16.467-26.652-39.216-26.652-64.344s10.185-47.877,26.652-64.344c8.234-8.234,18.038-14.897,28.924-19.501V139h70.839
			v-4.345c10.887,4.605,20.691,11.268,28.924,19.501C280.813,170.623,290.998,193.372,290.998,218.5z"/>
		<path clip-path="url(#SVGID_5_)" fill="#0067A8" d="M290.124,218.5c0,24.886-10.087,47.417-26.396,63.726
			c-8.154,8.154-17.864,14.753-28.646,19.314V298h-70.159v3.54c-10.782-4.56-20.492-11.159-28.646-19.314
			c-16.309-16.309-26.396-38.839-26.396-63.726s10.087-47.417,26.396-63.726c8.154-8.154,17.864-14.753,28.646-19.314V139h70.159
			v-3.54c10.782,4.56,20.492,11.159,28.646,19.314C280.037,171.083,290.124,193.614,290.124,218.5z"/>
		<path clip-path="url(#SVGID_5_)" fill="#0067A9" d="M289.25,218.5c0,24.645-9.989,46.957-26.14,63.108
			c-8.075,8.075-17.691,14.61-28.368,19.127V298h-69.479v2.734c-10.677-4.516-20.293-11.051-28.368-19.127
			c-16.151-16.151-26.14-38.463-26.14-63.108s9.989-46.957,26.14-63.108c8.075-8.075,17.691-14.61,28.368-19.127V139h69.479v-2.734
			c10.677,4.516,20.293,11.051,28.368,19.127C279.26,171.543,289.25,193.855,289.25,218.5z"/>
		<path clip-path="url(#SVGID_5_)" fill="#0068AB" d="M288.376,218.5c0,24.404-9.892,46.497-25.884,62.49
			c-7.996,7.996-17.518,14.467-28.091,18.939V298h-68.798v1.929c-10.573-4.472-20.094-10.943-28.091-18.939
			c-15.993-15.993-25.884-38.086-25.884-62.49s9.892-46.497,25.884-62.49c7.996-7.996,17.518-14.467,28.091-18.939V139h68.798
			v-1.929c10.573,4.472,20.094,10.943,28.091,18.939C278.484,172.003,288.376,194.096,288.376,218.5z"/>
		<path clip-path="url(#SVGID_5_)" fill="#0069AC" d="M287.502,218.5c0,24.162-9.794,46.037-25.628,61.872
			c-7.917,7.917-17.344,14.324-27.813,18.752V298h-68.118v1.124c-10.468-4.428-19.896-10.835-27.813-18.752
			c-15.834-15.834-25.628-37.709-25.628-61.872s9.794-46.037,25.628-61.872c7.917-7.917,17.344-14.324,27.813-18.752V139h68.118
			v-1.124c10.468,4.428,19.896,10.835,27.813,18.752C277.708,172.463,287.502,194.338,287.502,218.5z"/>
		<path clip-path="url(#SVGID_5_)" fill="#0069AD" d="M286.628,218.5c0,23.921-9.696,45.577-25.372,61.254
			c-7.838,7.838-17.171,14.181-27.535,18.565V298h-67.437v0.318c-10.364-4.384-19.697-10.727-27.535-18.565
			c-15.676-15.676-25.372-37.333-25.372-61.254s9.696-45.577,25.372-61.254c7.838-7.838,17.171-14.181,27.535-18.565V139h67.437
			v-0.318c10.364,4.384,19.697,10.727,27.535,18.565C276.932,172.923,286.628,194.579,286.628,218.5z"/>
		<circle clip-path="url(#SVGID_5_)" fill="#006AAE" cx="200.002" cy="218.5" r="85.752"/>
		<circle clip-path="url(#SVGID_5_)" fill="#006BAF" cx="200.002" cy="218.5" r="84.878"/>
		<circle clip-path="url(#SVGID_5_)" fill="#006BB0" cx="200.002" cy="218.5" r="84.004"/>
		<circle clip-path="url(#SVGID_5_)" fill="#006CB1" cx="200.002" cy="218.5" r="83.13"/>
		<circle clip-path="url(#SVGID_5_)" fill="#006DB2" cx="200.002" cy="218.5" r="82.255"/>
		<circle clip-path="url(#SVGID_5_)" fill="#006DB3" cx="200.002" cy="218.5" r="81.381"/>
		<circle clip-path="url(#SVGID_5_)" fill="#006EB4" cx="200.002" cy="218.5" r="80.507"/>
		<circle clip-path="url(#SVGID_5_)" fill="#006FB5" cx="200.002" cy="218.5" r="79.633"/>
		<circle clip-path="url(#SVGID_5_)" fill="#0070B6" cx="200.002" cy="218.5" r="78.759"/>
		<circle clip-path="url(#SVGID_5_)" fill="#0070B7" cx="200.002" cy="218.5" r="77.885"/>
		<circle clip-path="url(#SVGID_5_)" fill="#0071B8" cx="200.002" cy="218.5" r="77.011"/>
		<circle clip-path="url(#SVGID_5_)" fill="#0072B9" cx="200.002" cy="218.5" r="76.137"/>
		<circle clip-path="url(#SVGID_5_)" fill="#0072BA" cx="200.002" cy="218.5" r="75.263"/>
		<circle clip-path="url(#SVGID_5_)" fill="#0073BB" cx="200.002" cy="218.5" r="74.389"/>
		<circle clip-path="url(#SVGID_5_)" fill="#0074BC" cx="200.002" cy="218.5" r="73.515"/>
		<circle clip-path="url(#SVGID_5_)" fill="#0074BD" cx="200.002" cy="218.5" r="72.641"/>
		<circle clip-path="url(#SVGID_5_)" fill="#0075BE" cx="200.002" cy="218.5" r="71.767"/>
		<circle clip-path="url(#SVGID_5_)" fill="#0075BE" cx="200.002" cy="218.5" r="70.893"/>
		<circle clip-path="url(#SVGID_5_)" fill="#0176BF" cx="200.002" cy="218.5" r="69.633"/>
		<circle clip-path="url(#SVGID_5_)" fill="#0277BF" cx="200.002" cy="218.5" r="68.373"/>
		<circle clip-path="url(#SVGID_5_)" fill="#0278C0" cx="200.002" cy="218.5" r="67.114"/>
		<circle clip-path="url(#SVGID_5_)" fill="#0379C1" cx="200.002" cy="218.5" r="65.854"/>
		<circle clip-path="url(#SVGID_5_)" fill="#047AC1" cx="200.002" cy="218.5" r="64.594"/>
		<circle clip-path="url(#SVGID_5_)" fill="#057BC2" cx="200.002" cy="218.5" r="63.335"/>
		<circle clip-path="url(#SVGID_5_)" fill="#067CC3" cx="200.002" cy="218.5" r="62.075"/>
		<circle clip-path="url(#SVGID_5_)" fill="#067DC3" cx="200.002" cy="218.5" r="60.815"/>
		<circle clip-path="url(#SVGID_5_)" fill="#077EC4" cx="200.002" cy="218.5" r="59.555"/>
		<circle clip-path="url(#SVGID_5_)" fill="#087FC5" cx="200.002" cy="218.5" r="58.296"/>
		<circle clip-path="url(#SVGID_5_)" fill="#0980C5" cx="200.002" cy="218.5" r="57.036"/>
		<circle clip-path="url(#SVGID_5_)" fill="#0981C6" cx="200.002" cy="218.5" r="55.776"/>
		<circle clip-path="url(#SVGID_5_)" fill="#0A82C7" cx="200.002" cy="218.5" r="54.517"/>
		<circle clip-path="url(#SVGID_5_)" fill="#0B83C7" cx="200.002" cy="218.5" r="53.257"/>
		<circle clip-path="url(#SVGID_5_)" fill="#0C84C8" cx="200.002" cy="218.5" r="51.997"/>
		<circle clip-path="url(#SVGID_5_)" fill="#0D85C9" cx="200.002" cy="218.5" r="50.737"/>
		<circle clip-path="url(#SVGID_5_)" fill="#0D86C9" cx="200.002" cy="218.5" r="49.478"/>
		<circle clip-path="url(#SVGID_5_)" fill="#0E87CA" cx="200.002" cy="218.5" r="48.218"/>
		<circle clip-path="url(#SVGID_5_)" fill="#0F89CB" cx="200.002" cy="218.5" r="46.958"/>
		<circle clip-path="url(#SVGID_5_)" fill="#108ACB" cx="200.002" cy="218.5" r="45.699"/>
		<circle clip-path="url(#SVGID_5_)" fill="#118BCC" cx="200.002" cy="218.5" r="44.439"/>
		<circle clip-path="url(#SVGID_5_)" fill="#118CCC" cx="200.002" cy="218.5" r="43.179"/>
		<circle clip-path="url(#SVGID_5_)" fill="#128DCD" cx="200.002" cy="218.5" r="41.919"/>
		<circle clip-path="url(#SVGID_5_)" fill="#138ECE" cx="200.002" cy="218.5" r="40.66"/>
		<circle clip-path="url(#SVGID_5_)" fill="#148FCE" cx="200.002" cy="218.5" r="39.4"/>
		<circle clip-path="url(#SVGID_5_)" fill="#1590CF" cx="200.002" cy="218.5" r="38.14"/>
		<circle clip-path="url(#SVGID_5_)" fill="#1591D0" cx="200.002" cy="218.5" r="36.881"/>
		<circle clip-path="url(#SVGID_5_)" fill="#1692D0" cx="200.002" cy="218.5" r="35.621"/>
		<circle clip-path="url(#SVGID_5_)" fill="#1793D1" cx="200.002" cy="218.5" r="34.361"/>
		<circle clip-path="url(#SVGID_5_)" fill="#1894D2" cx="200.002" cy="218.5" r="33.101"/>
		<circle clip-path="url(#SVGID_5_)" fill="#1895D2" cx="200.002" cy="218.5" r="31.842"/>
		<circle clip-path="url(#SVGID_5_)" fill="#1996D3" cx="200.002" cy="218.5" r="30.582"/>
		<circle clip-path="url(#SVGID_5_)" fill="#1A97D4" cx="200.002" cy="218.5" r="29.322"/>
		<circle clip-path="url(#SVGID_5_)" fill="#1B98D4" cx="200.002" cy="218.5" r="28.063"/>
		<circle clip-path="url(#SVGID_5_)" fill="#1C99D5" cx="200.002" cy="218.5" r="26.803"/>
		<circle clip-path="url(#SVGID_5_)" fill="#1C9AD6" cx="200.002" cy="218.5" r="25.543"/>
		<circle clip-path="url(#SVGID_5_)" fill="#1D9BD6" cx="200.002" cy="218.5" r="24.283"/>
		<circle clip-path="url(#SVGID_5_)" fill="#1E9CD7" cx="200.002" cy="218.5" r="23.024"/>
		<circle clip-path="url(#SVGID_5_)" fill="#1E9CD7" cx="200.002" cy="218.5" r="21.764"/>
		<circle clip-path="url(#SVGID_5_)" fill="#1E9CD7" cx="200.002" cy="218.5" r="21.639"/>
		<circle clip-path="url(#SVGID_5_)" fill="#1E9CD7" cx="200.002" cy="218.5" r="21.514"/>
		<circle clip-path="url(#SVGID_5_)" fill="#1E9CD7" cx="200.002" cy="218.5" r="21.389"/>
		<circle clip-path="url(#SVGID_5_)" fill="#1E9CD7" cx="200.002" cy="218.5" r="21.264"/>
		<circle clip-path="url(#SVGID_5_)" fill="#1E9CD7" cx="200.002" cy="218.5" r="21.139"/>
		<circle clip-path="url(#SVGID_5_)" fill="#1E9CD7" cx="200.002" cy="218.5" r="21.014"/>
		<circle clip-path="url(#SVGID_5_)" fill="#1E9CD7" cx="200.002" cy="218.5" r="20.888"/>
		<circle clip-path="url(#SVGID_5_)" fill="#1E9CD7" cx="200.002" cy="218.5" r="20.763"/>
		<circle clip-path="url(#SVGID_5_)" fill="#1E9CD7" cx="200.002" cy="218.5" r="20.638"/>
		<circle clip-path="url(#SVGID_5_)" fill="#1E9CD7" cx="200.002" cy="218.5" r="20.513"/>
		<circle clip-path="url(#SVGID_5_)" fill="#1E9CD7" cx="200.002" cy="218.5" r="20.388"/>
		<circle clip-path="url(#SVGID_5_)" fill="#1E9CD7" cx="200.002" cy="218.5" r="20.263"/>
		<circle clip-path="url(#SVGID_5_)" fill="#1E9CD7" cx="200.002" cy="218.5" r="20.138"/>
		<circle clip-path="url(#SVGID_5_)" fill="#1E9CD7" cx="200.002" cy="218.5" r="20.013"/>
		<circle clip-path="url(#SVGID_5_)" fill="#1E9CD7" cx="200.002" cy="218.5" r="19.888"/>
		<circle clip-path="url(#SVGID_5_)" fill="#1E9CD7" cx="200.002" cy="218.5" r="19.763"/>
		<circle clip-path="url(#SVGID_5_)" fill="#1E9CD7" cx="200.002" cy="218.5" r="19.638"/>
		<circle clip-path="url(#SVGID_5_)" fill="#1E9CD7" cx="200.002" cy="218.5" r="19.513"/>
		<circle clip-path="url(#SVGID_5_)" fill="#1E9CD7" cx="200.002" cy="218.5" r="19.388"/>
		<circle clip-path="url(#SVGID_5_)" fill="#1E9CD7" cx="200.002" cy="218.5" r="19.262"/>
		<circle clip-path="url(#SVGID_5_)" fill="#1E9CD7" cx="200.002" cy="218.5" r="19.137"/>
		<circle clip-path="url(#SVGID_5_)" fill="#1E9CD7" cx="200.002" cy="218.5" r="19.012"/>
		<circle clip-path="url(#SVGID_5_)" fill="#1E9CD7" cx="200.002" cy="218.5" r="18.887"/>
		<circle clip-path="url(#SVGID_5_)" fill="#1E9CD7" cx="200.002" cy="218.5" r="18.762"/>
		<circle clip-path="url(#SVGID_5_)" fill="#1E9CD7" cx="200.002" cy="218.5" r="18.637"/>
		<circle clip-path="url(#SVGID_5_)" fill="#1E9CD7" cx="200.002" cy="218.5" r="18.512"/>
		<circle clip-path="url(#SVGID_5_)" fill="#1F9CD7" cx="200.002" cy="218.5" r="18.387"/>
		<circle clip-path="url(#SVGID_5_)" fill="#1F9CD7" cx="200.002" cy="218.5" r="18.262"/>
		<circle clip-path="url(#SVGID_5_)" fill="#1F9CD7" cx="200.002" cy="218.5" r="18.137"/>
		<circle clip-path="url(#SVGID_5_)" fill="#1F9CD7" cx="200.002" cy="218.5" r="18.012"/>
		<circle clip-path="url(#SVGID_5_)" fill="#1F9CD7" cx="200.002" cy="218.5" r="17.887"/>
		<circle clip-path="url(#SVGID_5_)" fill="#1F9CD7" cx="200.002" cy="218.5" r="17.761"/>
		<circle clip-path="url(#SVGID_5_)" fill="#1F9CD7" cx="200.002" cy="218.5" r="17.636"/>
		<circle clip-path="url(#SVGID_5_)" fill="#1F9CD7" cx="200.002" cy="218.5" r="17.511"/>
		<circle clip-path="url(#SVGID_5_)" fill="#1F9CD7" cx="200.002" cy="218.5" r="17.386"/>
		<circle clip-path="url(#SVGID_5_)" fill="#1F9CD7" cx="200.002" cy="218.5" r="17.261"/>
		<circle clip-path="url(#SVGID_5_)" fill="#1F9DD7" cx="200.002" cy="218.5" r="17.136"/>
		<circle clip-path="url(#SVGID_5_)" fill="#1F9DD7" cx="200.002" cy="218.5" r="17.011"/>
		<circle clip-path="url(#SVGID_5_)" fill="#209DD7" cx="200.002" cy="218.5" r="16.886"/>
		<circle clip-path="url(#SVGID_5_)" fill="#209DD7" cx="200.002" cy="218.5" r="16.761"/>
		<circle clip-path="url(#SVGID_5_)" fill="#209DD7" cx="200.002" cy="218.5" r="16.636"/>
		<circle clip-path="url(#SVGID_5_)" fill="#209DD7" cx="200.002" cy="218.5" r="16.511"/>
		<circle clip-path="url(#SVGID_5_)" fill="#209DD7" cx="200.002" cy="218.5" r="16.386"/>
		<circle clip-path="url(#SVGID_5_)" fill="#209DD7" cx="200.002" cy="218.5" r="16.26"/>
		<circle clip-path="url(#SVGID_5_)" fill="#219DD7" cx="200.002" cy="218.5" r="16.135"/>
		<circle clip-path="url(#SVGID_5_)" fill="#219DD7" cx="200.002" cy="218.5" r="16.01"/>
		<circle clip-path="url(#SVGID_5_)" fill="#219DD7" cx="200.002" cy="218.5" r="15.885"/>
		<circle clip-path="url(#SVGID_5_)" fill="#219DD8" cx="200.002" cy="218.5" r="15.76"/>
		<circle clip-path="url(#SVGID_5_)" fill="#219DD8" cx="200.002" cy="218.5" r="15.635"/>
		<circle clip-path="url(#SVGID_5_)" fill="#229DD8" cx="200.002" cy="218.5" r="15.51"/>
		<circle clip-path="url(#SVGID_5_)" fill="#229DD8" cx="200.002" cy="218.5" r="15.385"/>
		<circle clip-path="url(#SVGID_5_)" fill="#229ED8" cx="200.002" cy="218.5" r="15.26"/>
		<circle clip-path="url(#SVGID_5_)" fill="#229ED8" cx="200.002" cy="218.5" r="15.135"/>
		<circle clip-path="url(#SVGID_5_)" fill="#229ED8" cx="200.002" cy="218.5" r="15.01"/>
		<circle clip-path="url(#SVGID_5_)" fill="#239ED8" cx="200.002" cy="218.5" r="14.885"/>
		<circle clip-path="url(#SVGID_5_)" fill="#239ED8" cx="200.002" cy="218.5" r="14.76"/>
		<circle clip-path="url(#SVGID_5_)" fill="#239ED8" cx="200.002" cy="218.5" r="14.634"/>
		<circle clip-path="url(#SVGID_5_)" fill="#249ED8" cx="200.002" cy="218.5" r="14.509"/>
		<circle clip-path="url(#SVGID_5_)" fill="#249ED8" cx="200.002" cy="218.5" r="14.384"/>
		<circle clip-path="url(#SVGID_5_)" fill="#249ED8" cx="200.002" cy="218.5" r="14.259"/>
		<circle clip-path="url(#SVGID_5_)" fill="#259FD8" cx="200.002" cy="218.5" r="14.134"/>
		<circle clip-path="url(#SVGID_5_)" fill="#259FD8" cx="200.002" cy="218.5" r="14.009"/>
		<circle clip-path="url(#SVGID_5_)" fill="#259FD8" cx="200.002" cy="218.5" r="13.884"/>
		<circle clip-path="url(#SVGID_5_)" fill="#269FD8" cx="200.002" cy="218.5" r="13.759"/>
		<circle clip-path="url(#SVGID_5_)" fill="#269FD8" cx="200.002" cy="218.5" r="13.634"/>
		<circle clip-path="url(#SVGID_5_)" fill="#269FD8" cx="200.002" cy="218.5" r="13.509"/>
		<circle clip-path="url(#SVGID_5_)" fill="#279FD8" cx="200.002" cy="218.5" r="13.384"/>
		<circle clip-path="url(#SVGID_5_)" fill="#27A0D9" cx="200.002" cy="218.5" r="13.259"/>
		<circle clip-path="url(#SVGID_5_)" fill="#28A0D9" cx="200.002" cy="218.5" r="13.133"/>
		<circle clip-path="url(#SVGID_5_)" fill="#28A0D9" cx="200.002" cy="218.5" r="13.008"/>
		<circle clip-path="url(#SVGID_5_)" fill="#29A0D9" cx="200.002" cy="218.5" r="12.883"/>
		<circle clip-path="url(#SVGID_5_)" fill="#29A0D9" cx="200.002" cy="218.5" r="12.758"/>
		<circle clip-path="url(#SVGID_5_)" fill="#2AA1D9" cx="200.002" cy="218.5" r="12.633"/>
		<circle clip-path="url(#SVGID_5_)" fill="#2AA1D9" cx="200.002" cy="218.5" r="12.508"/>
		<circle clip-path="url(#SVGID_5_)" fill="#2BA1D9" cx="200.002" cy="218.5" r="12.383"/>
		<circle clip-path="url(#SVGID_5_)" fill="#2BA1D9" cx="200.002" cy="218.5" r="12.258"/>
		<circle clip-path="url(#SVGID_5_)" fill="#2CA1D9" cx="200.002" cy="218.5" r="12.133"/>
		<circle clip-path="url(#SVGID_5_)" fill="#2CA2D9" cx="200.002" cy="218.5" r="12.008"/>
		<circle clip-path="url(#SVGID_5_)" fill="#2DA2D9" cx="200.002" cy="218.5" r="11.883"/>
		<circle clip-path="url(#SVGID_5_)" fill="#2DA2DA" cx="200.002" cy="218.5" r="11.758"/>
		<circle clip-path="url(#SVGID_5_)" fill="#2EA2DA" cx="200.002" cy="218.5" r="11.633"/>
		<circle clip-path="url(#SVGID_5_)" fill="#2FA3DA" cx="200.002" cy="218.5" r="11.507"/>
		<circle clip-path="url(#SVGID_5_)" fill="#2FA3DA" cx="200.002" cy="218.5" r="11.382"/>
		<circle clip-path="url(#SVGID_5_)" fill="#30A3DA" cx="200.002" cy="218.5" r="11.257"/>
		<circle clip-path="url(#SVGID_5_)" fill="#31A3DA" cx="200.002" cy="218.5" r="11.132"/>
		<circle clip-path="url(#SVGID_5_)" fill="#31A4DA" cx="200.002" cy="218.5" r="11.007"/>
		<circle clip-path="url(#SVGID_5_)" fill="#32A4DA" cx="200.002" cy="218.5" r="10.882"/>
		<circle clip-path="url(#SVGID_5_)" fill="#33A4DA" cx="200.002" cy="218.5" r="10.757"/>
		<circle clip-path="url(#SVGID_5_)" fill="#34A4DB" cx="200.002" cy="218.5" r="10.632"/>
		<circle clip-path="url(#SVGID_5_)" fill="#34A5DB" cx="200.002" cy="218.5" r="10.507"/>
		<circle clip-path="url(#SVGID_5_)" fill="#35A5DB" cx="200.002" cy="218.5" r="10.382"/>
		<circle clip-path="url(#SVGID_5_)" fill="#36A5DB" cx="200.002" cy="218.5" r="10.257"/>
		<circle clip-path="url(#SVGID_5_)" fill="#37A6DB" cx="200.002" cy="218.5" r="10.132"/>
		<circle clip-path="url(#SVGID_5_)" fill="#38A6DB" cx="200.002" cy="218.5" r="10.006"/>
		<circle clip-path="url(#SVGID_5_)" fill="#38A6DB" cx="200.002" cy="218.5" r="9.881"/>
		<circle clip-path="url(#SVGID_5_)" fill="#39A7DC" cx="200.002" cy="218.5" r="9.756"/>
		<circle clip-path="url(#SVGID_5_)" fill="#3AA7DC" cx="200.002" cy="218.5" r="9.631"/>
		<circle clip-path="url(#SVGID_5_)" fill="#3BA7DC" cx="200.002" cy="218.5" r="9.506"/>
		<circle clip-path="url(#SVGID_5_)" fill="#3CA8DC" cx="200.002" cy="218.5" r="9.381"/>
		<circle clip-path="url(#SVGID_5_)" fill="#3DA8DC" cx="200.002" cy="218.5" r="9.256"/>
		<circle clip-path="url(#SVGID_5_)" fill="#3EA9DC" cx="200.002" cy="218.5" r="9.131"/>
		<circle clip-path="url(#SVGID_5_)" fill="#3FA9DD" cx="200.002" cy="218.5" r="9.006"/>
		<circle clip-path="url(#SVGID_5_)" fill="#40A9DD" cx="200.002" cy="218.5" r="8.881"/>
		<circle clip-path="url(#SVGID_5_)" fill="#41AADD" cx="200.002" cy="218.5" r="8.756"/>
		<circle clip-path="url(#SVGID_5_)" fill="#42AADD" cx="200.002" cy="218.5" r="8.631"/>
		<circle clip-path="url(#SVGID_5_)" fill="#43ABDD" cx="200.002" cy="218.5" r="8.505"/>
		<circle clip-path="url(#SVGID_5_)" fill="#44ABDD" cx="200.002" cy="218.5" r="8.38"/>
		<circle clip-path="url(#SVGID_5_)" fill="#46ABDE" cx="200.002" cy="218.5" r="8.255"/>
		<circle clip-path="url(#SVGID_5_)" fill="#47ACDE" cx="200.002" cy="218.5" r="8.13"/>
		<circle clip-path="url(#SVGID_5_)" fill="#48ACDE" cx="200.002" cy="218.5" r="8.005"/>
		<circle clip-path="url(#SVGID_5_)" fill="#49ADDE" cx="200.002" cy="218.5" r="7.88"/>
		<circle clip-path="url(#SVGID_5_)" fill="#4AADDE" cx="200.002" cy="218.5" r="7.755"/>
		<circle clip-path="url(#SVGID_5_)" fill="#4CAEDF" cx="200.002" cy="218.5" r="7.63"/>
		<circle clip-path="url(#SVGID_5_)" fill="#4DAEDF" cx="200.002" cy="218.5" r="7.505"/>
		<circle clip-path="url(#SVGID_5_)" fill="#4EAFDF" cx="200.002" cy="218.5" r="7.38"/>
		<circle clip-path="url(#SVGID_5_)" fill="#50AFDF" cx="200.002" cy="218.5" r="7.255"/>
		<circle clip-path="url(#SVGID_5_)" fill="#51B0DF" cx="200.002" cy="218.5" r="7.13"/>
		<circle clip-path="url(#SVGID_5_)" fill="#52B0E0" cx="200.002" cy="218.5" r="7.005"/>
		<circle clip-path="url(#SVGID_5_)" fill="#54B1E0" cx="200.002" cy="218.5" r="6.879"/>
		<circle clip-path="url(#SVGID_5_)" fill="#55B2E0" cx="200.002" cy="218.5" r="6.754"/>
		<circle clip-path="url(#SVGID_5_)" fill="#57B2E0" cx="200.002" cy="218.5" r="6.629"/>
		<circle clip-path="url(#SVGID_5_)" fill="#58B3E1" cx="200.002" cy="218.5" r="6.504"/>
		<circle clip-path="url(#SVGID_5_)" fill="#5AB3E1" cx="200.002" cy="218.5" r="6.379"/>
		<circle clip-path="url(#SVGID_5_)" fill="#5BB4E1" cx="200.002" cy="218.5" r="6.254"/>
		<circle clip-path="url(#SVGID_5_)" fill="#5DB5E1" cx="200.002" cy="218.5" r="6.129"/>
		<circle clip-path="url(#SVGID_5_)" fill="#5EB5E2" cx="200.002" cy="218.5" r="6.004"/>
		<circle clip-path="url(#SVGID_5_)" fill="#60B6E2" cx="200.002" cy="218.5" r="5.879"/>
		<circle clip-path="url(#SVGID_5_)" fill="#62B6E2" cx="200.002" cy="218.5" r="5.754"/>
		<circle clip-path="url(#SVGID_5_)" fill="#63B7E3" cx="200.002" cy="218.5" r="5.629"/>
		<circle clip-path="url(#SVGID_5_)" fill="#65B8E3" cx="200.002" cy="218.5" r="5.504"/>
		<circle clip-path="url(#SVGID_5_)" fill="#67B8E3" cx="200.002" cy="218.5" r="5.378"/>
		<circle clip-path="url(#SVGID_5_)" fill="#68B9E3" cx="200.002" cy="218.5" r="5.253"/>
		<circle clip-path="url(#SVGID_5_)" fill="#6ABAE4" cx="200.002" cy="218.5" r="5.128"/>
		<circle clip-path="url(#SVGID_5_)" fill="#6CBAE4" cx="200.002" cy="218.5" r="5.003"/>
		<circle clip-path="url(#SVGID_5_)" fill="#6EBBE4" cx="200.002" cy="218.5" r="4.878"/>
		<circle clip-path="url(#SVGID_5_)" fill="#70BCE5" cx="200.002" cy="218.5" r="4.753"/>
		<circle clip-path="url(#SVGID_5_)" fill="#72BDE5" cx="200.002" cy="218.5" r="4.628"/>
		<circle clip-path="url(#SVGID_5_)" fill="#74BDE5" cx="200.002" cy="218.5" r="4.503"/>
		<circle clip-path="url(#SVGID_5_)" fill="#76BEE6" cx="200.002" cy="218.5" r="4.378"/>
		<circle clip-path="url(#SVGID_5_)" fill="#78BFE6" cx="200.002" cy="218.5" r="4.253"/>
		<circle clip-path="url(#SVGID_5_)" fill="#7AC0E6" cx="200.002" cy="218.5" r="4.128"/>
		<circle clip-path="url(#SVGID_5_)" fill="#7CC1E7" cx="200.002" cy="218.5" r="4.003"/>
		<circle clip-path="url(#SVGID_5_)" fill="#7EC1E7" cx="200.002" cy="218.5" r="3.878"/>
		<circle clip-path="url(#SVGID_5_)" fill="#80C2E7" cx="200.002" cy="218.5" r="3.752"/>
		<circle clip-path="url(#SVGID_5_)" fill="#82C3E8" cx="200.002" cy="218.5" r="3.627"/>
		<circle clip-path="url(#SVGID_5_)" fill="#84C4E8" cx="200.002" cy="218.5" r="3.502"/>
		<circle clip-path="url(#SVGID_5_)" fill="#86C5E8" cx="200.002" cy="218.5" r="3.377"/>
		<circle clip-path="url(#SVGID_5_)" fill="#89C6E9" cx="200.002" cy="218.5" r="3.252"/>
		<circle clip-path="url(#SVGID_5_)" fill="#8BC7E9" cx="200.002" cy="218.5" r="3.127"/>
		<circle clip-path="url(#SVGID_5_)" fill="#8DC7EA" cx="200.002" cy="218.5" r="3.002"/>
		<circle clip-path="url(#SVGID_5_)" fill="#90C8EA" cx="200.002" cy="218.5" r="2.877"/>
		<circle clip-path="url(#SVGID_5_)" fill="#92C9EA" cx="200.002" cy="218.5" r="2.752"/>
		<circle clip-path="url(#SVGID_5_)" fill="#94CAEB" cx="200.002" cy="218.5" r="2.627"/>
		<circle clip-path="url(#SVGID_5_)" fill="#97CBEB" cx="200.002" cy="218.5" r="2.502"/>
		<circle clip-path="url(#SVGID_5_)" fill="#99CCEC" cx="200.002" cy="218.5" r="2.377"/>
		<circle clip-path="url(#SVGID_5_)" fill="#9CCDEC" cx="200.002" cy="218.5" r="2.251"/>
		<circle clip-path="url(#SVGID_5_)" fill="#9ECEEC" cx="200.002" cy="218.5" r="2.126"/>
		<circle clip-path="url(#SVGID_5_)" fill="#A1CFED" cx="200.002" cy="218.5" r="2.001"/>
		<circle clip-path="url(#SVGID_5_)" fill="#A3D0ED" cx="200.002" cy="218.5" r="1.876"/>
		<circle clip-path="url(#SVGID_5_)" fill="#A6D1EE" cx="200.002" cy="218.5" r="1.751"/>
		<circle clip-path="url(#SVGID_5_)" fill="#A9D2EE" cx="200.002" cy="218.5" r="1.626"/>
		<circle clip-path="url(#SVGID_5_)" fill="#ACD3EF" cx="200.002" cy="218.5" r="1.501"/>
		<circle clip-path="url(#SVGID_5_)" fill="#AED4EF" cx="200.002" cy="218.5" r="1.376"/>
		<circle clip-path="url(#SVGID_5_)" fill="#B1D5F0" cx="200.002" cy="218.5" r="1.251"/>
		<circle clip-path="url(#SVGID_5_)" fill="#B4D7F0" cx="200.002" cy="218.5" r="1.126"/>
		<circle clip-path="url(#SVGID_5_)" fill="#B7D8F0" cx="200.002" cy="218.5" r="1.001"/>
		<circle clip-path="url(#SVGID_5_)" fill="#BAD9F1" cx="200.002" cy="218.5" r="0.876"/>
		<circle clip-path="url(#SVGID_5_)" fill="#BDDAF1" cx="200.002" cy="218.5" r="0.75"/>
		<circle clip-path="url(#SVGID_5_)" fill="#C0DBF2" cx="200.002" cy="218.5" r="0.625"/>
		<circle clip-path="url(#SVGID_5_)" fill="#C3DCF2" cx="200.002" cy="218.5" r="0.5"/>
		<circle clip-path="url(#SVGID_5_)" fill="#C6DEF3" cx="200.002" cy="218.5" r="0.375"/>
		<circle clip-path="url(#SVGID_5_)" fill="#C9DFF3" cx="200.002" cy="218.5" r="0.25"/>
		<circle clip-path="url(#SVGID_5_)" fill="#CCE0F4" cx="200.002" cy="218.5" r="0.125"/>
	</g>
	<path fill="#2D85CC" d="M101,297.125c-0.068-0.003-6.361-0.294-12.937-4.017c-6.07-3.436-13.632-10.578-15.188-25.095l0-128.244
		l125.179,81.116c0.227,0.074,2.959,0.924,3.858,0.026l125.213-81.142V268c0.002,0.061,0.21,6.607-3.39,13.434
		c-3.321,6.3-10.654,14.136-26.724,15.69L101,297.125z M73.125,140.23V268c1.543,14.393,9.037,21.479,15.052,24.886
		c6.524,3.696,12.766,3.987,12.828,3.989H297c15.94-1.543,23.215-9.307,26.509-15.549c3.572-6.767,3.369-13.257,3.366-13.321V140.23
		l-124.807,80.875c-1.024,1.027-3.982,0.057-4.108,0.014l-0.028-0.014L73.125,140.23z"/>
</g>
<g>
</g>
<g>
</g>
<g>
</g>
<g>
</g>
<g>
</g>
<g>
</g>
<g>
</g>
<g>
</g>
<g>
</g>
<g>
</g>
<g>
</g>
<g>
</g>
<g>
</g>
<g>
</g>
<g>
</g>
</svg>
