<?xml version="1.0" encoding="utf-8"?>
<!-- Generator: Adobe Illustrator 24.1.1, SVG Export Plug-In . SVG Version: 6.00 Build 0)  -->
<svg version="1.1" id="Layer_1" xmlns="http://www.w3.org/2000/svg" xmlns:xlink="http://www.w3.org/1999/xlink" x="0px" y="0px"
	 width="500px" height="500px" viewBox="0 0 500 500" enable-background="new 0 0 500 500" xml:space="preserve">
<g>
	<path fill="#152028" d="M417.806,460.937H96.444c-20.335,0-36.819-16.484-36.819-36.819V102.757
		c0-20.335,16.484-36.819,36.819-36.819h321.362c20.335,0,36.819,16.484,36.819,36.819v321.362
		C454.625,444.453,438.141,460.937,417.806,460.937z"/>
</g>
<g>
	<g>
		<path fill="#FFFFFF" d="M204.292,331.035c-20.631,0-37.417-16.785-37.417-37.417c0-2.856,0.322-5.696,0.957-8.441l0.029-0.122
			l21.389,5.148l-0.006,0.026c-0.237,1.026-0.368,2.198-0.368,3.389c0,8.501,6.916,15.417,15.417,15.417V331.035z"/>
	</g>
	<g>
		<path fill="none" stroke="#FFFFFF" stroke-width="22" stroke-miterlimit="10" d="M178.535,299.562"/>
	</g>
	<g>
		
			<rect x="132.132" y="222.812" transform="matrix(0.1495 -0.9888 0.9888 0.1495 -72.4032 383.4509)" fill="#FFFFFF" width="109.119" height="22"/>
	</g>
	<g>
		<path fill="#FFFFFF" d="M311.494,196.982c-0.07-4.819-0.752-9.578-2.026-14.144l-0.188-0.676
			c-6.763-23.201-27.977-39.346-51.824-39.346c-23.891,0-45.137,16.202-51.859,39.47l-0.153,0.553
			c-1.198,4.291-1.875,8.766-2.01,13.301l-21.99-0.659c0.173-5.783,0.982-11.51,2.406-17.046v-0.055l0.402-1.459
			c9.189-33.033,39.292-56.104,73.205-56.104s64.017,23.071,73.205,56.104l0.402,1.514c1.522,5.92,2.339,12.044,2.43,18.226
			L311.494,196.982z"/>
	</g>
	<g>
		<path fill="#FFFFFF" d="M309.958,331.035c-1.147,0-2.279-0.052-3.363-0.154l2.064-21.902c0.4,0.037,0.838,0.057,1.299,0.057
			c8.501,0,15.417-6.916,15.417-15.417c0-1.486-0.208-2.942-0.617-4.325l21.094-6.248c1.011,3.413,1.523,6.971,1.523,10.573
			C347.375,314.25,330.59,331.035,309.958,331.035z"/>
	</g>
	<g>
		
			<rect x="317.219" y="179.284" transform="matrix(0.9899 -0.142 0.142 0.9899 -30.2822 48.9884)" fill="#FFFFFF" width="22" height="114.916"/>
	</g>
	<g>
		
			<rect x="204.291" y="308.981" transform="matrix(1 -0.0011 0.0011 1 -0.3407 0.2729)" fill="#FFFFFF" width="103.338" height="22"/>
	</g>
	<g>
		<path fill="#FFFFFF" d="M257.785,401.559c-17.058,0-30.935-13.878-30.935-30.936s13.877-30.936,30.935-30.936
			s30.936,13.878,30.936,30.936S274.843,401.559,257.785,401.559z M257.785,352.688c-9.89,0-17.935,8.046-17.935,17.936
			s8.045,17.936,17.935,17.936s17.936-8.046,17.936-17.936S267.675,352.688,257.785,352.688z"/>
	</g>
</g>
<g>
</g>
<g>
</g>
<g>
</g>
<g>
</g>
<g>
</g>
<g>
</g>
<g>
</g>
<g>
</g>
<g>
</g>
<g>
</g>
<g>
</g>
<g>
</g>
<g>
</g>
<g>
</g>
<g>
</g>
</svg>
