<?xml version="1.0" encoding="utf-8"?>
<!-- Generator: Adobe Illustrator 24.1.1, SVG Export Plug-In . SVG Version: 6.00 Build 0)  -->
<svg version="1.1" id="Layer_1" xmlns="http://www.w3.org/2000/svg" xmlns:xlink="http://www.w3.org/1999/xlink" x="0px" y="0px"
	 width="400px" height="400px" viewBox="0 0 400 400" enable-background="new 0 0 400 400" xml:space="preserve">
<g>
	<g>
		<path fill="#49B1FE" d="M167,347c-84.916,0-154-69.084-154-154S82.084,39,167,39s154,69.084,154,154
			c0,0.743-0.001,1.476-0.012,2.219c-0.45,31.386-10.28,61.459-28.426,86.967l-24.445-17.391
			c14.602-20.525,22.512-44.734,22.875-70.01c0.009-0.6,0.008-1.188,0.008-1.785c0-68.374-55.626-124-124-124S43,124.626,43,193
			s55.626,124,124,124c27.806,0,54.072-8.985,75.959-25.986l18.402,23.693C234.163,335.833,201.533,347,167,347z"/>
	</g>
	<g>
		<path fill="#49B1FE" d="M167,237c-23.159,0-42-18.841-42-42c0-23.159,18.841-42,42-42s42,18.841,42,42
			C209,218.159,190.159,237,167,237z M167,183c-6.617,0-12,5.383-12,12c0,6.617,5.383,12,12,12s12-5.383,12-12
			C179,188.383,173.617,183,167,183z"/>
	</g>
	<g>
		<rect x="194" y="180" fill="#49B1FE" width="149" height="30"/>
	</g>
	<g>
		<path fill="#49B1FE" d="M383.947,178.846l-16.32-9.422c-10.961-6.328-24.663,1.582-24.663,14.239v18.845
			c0,12.657,13.702,20.568,24.663,14.239l16.32-9.422C394.908,200.995,394.908,185.174,383.947,178.846z"/>
		<path fill="#49B1FE" d="M359.405,221.98c-3.339,0-6.677-0.879-9.72-2.636c-6.088-3.514-9.722-9.809-9.722-16.838v-18.845
			c0-7.029,3.634-13.323,9.721-16.837s13.354-3.514,19.441,0l16.32,9.422c6.087,3.514,9.722,9.809,9.722,16.837
			c0,7.029-3.635,13.323-9.722,16.837l-16.32,9.422C366.083,221.102,362.744,221.98,359.405,221.98z M359.405,170.199
			c-2.309,0-4.616,0.607-6.721,1.822c-4.208,2.43-6.721,6.782-6.721,11.641v18.845c0,4.86,2.513,9.212,6.722,11.642
			c4.208,2.431,9.232,2.43,13.44,0l16.32-9.422c4.209-2.431,6.722-6.783,6.722-11.642s-2.513-9.211-6.722-11.641l-16.32-9.422
			C364.021,170.807,361.714,170.199,359.405,170.199z"/>
	</g>
</g>
<g>
</g>
<g>
</g>
<g>
</g>
<g>
</g>
<g>
</g>
<g>
</g>
<g>
</g>
<g>
</g>
<g>
</g>
<g>
</g>
<g>
</g>
<g>
</g>
<g>
</g>
<g>
</g>
<g>
</g>
</svg>
