<?xml version="1.0" encoding="utf-8"?>
<!-- Generator: Adobe Illustrator 24.1.1, SVG Export Plug-In . SVG Version: 6.00 Build 0)  -->
<svg version="1.1" id="Layer_1" xmlns="http://www.w3.org/2000/svg" xmlns:xlink="http://www.w3.org/1999/xlink" x="0px" y="0px"
	 width="500px" height="500px" viewBox="0 0 500 500" enable-background="new 0 0 500 500" xml:space="preserve">
<g>
	<g>
		<path d="M223,323c-60.654,0-110-49.346-110-110s49.346-110,110-110s110,49.346,110,110S283.654,323,223,323z M223,128
			c-46.869,0-85,38.131-85,85s38.131,85,85,85s85-38.131,85-85S269.869,128,223,128z"/>
	</g>
	<g>
		<g>
			<ellipse transform="matrix(0.0124 -0.9999 0.9999 0.0124 59.8346 364.5647)" cx="214.477" cy="151.991" rx="12.776" ry="9"/>
		</g>
		<g>
			<ellipse transform="matrix(0.9723 -0.2339 0.2339 0.9723 -40.8083 71.4164)" cx="280.634" cy="207.726" rx="12.5" ry="8.538"/>
		</g>
		<g>
			<path d="M268.628,211.439c-1.268-5.682-3.383-11.187-6.286-16.362c-10.421-18.58-29.369-30.121-50.686-30.871l0.879-24.984
				c30.113,1.06,56.884,17.368,71.611,43.625c4.095,7.299,7.083,15.087,8.882,23.147L268.628,211.439z"/>
		</g>
	</g>
	<g>
		<path d="M395.305,371.912l-4.344,4.344c-7.098,7.098-18.606,7.098-25.704,0l-78.365-78.365l30.289-30.289l78.125,78.125
			C402.535,352.958,402.535,364.681,395.305,371.912z"/>
	</g>
</g>
<g>
</g>
<g>
</g>
<g>
</g>
<g>
</g>
<g>
</g>
<g>
</g>
<g>
</g>
<g>
</g>
<g>
</g>
<g>
</g>
<g>
</g>
<g>
</g>
<g>
</g>
<g>
</g>
<g>
</g>
</svg>
