<?xml version="1.0" encoding="utf-8"?>
<!-- Generator: Adobe Illustrator 24.1.1, SVG Export Plug-In . SVG Version: 6.00 Build 0)  -->
<svg version="1.1" id="Layer_1" xmlns="http://www.w3.org/2000/svg" xmlns:xlink="http://www.w3.org/1999/xlink" x="0px" y="0px"
	 width="500px" height="500px" viewBox="0 0 500 500" enable-background="new 0 0 500 500" xml:space="preserve">
<path fill="#152028" d="M401.783,436.37H80.422c-20.335,0-36.819-16.484-36.819-36.819V78.189c0-20.335,16.484-36.819,36.819-36.819
	h321.362c20.335,0,36.819,16.484,36.819,36.819v321.362C438.602,419.886,422.118,436.37,401.783,436.37z"/>
<g>
	<circle fill="none" stroke="#FFFFFF" stroke-width="23" stroke-miterlimit="10" cx="241.102" cy="166.05" r="47.373"/>
	<path fill="none" stroke="#FFFFFF" stroke-width="23" stroke-miterlimit="10" d="M342.362,330.959v19.494
		c0,2.908-0.142,5.78-0.42,8.61H140.263c-0.278-2.831-0.42-5.703-0.42-8.61v-19.494c0-48.581,39.379-87.96,87.96-87.96h26.6
		C302.983,242.999,342.362,282.378,342.362,330.959z"/>
</g>
<g>
</g>
<g>
</g>
<g>
</g>
<g>
</g>
<g>
</g>
<g>
</g>
<g>
</g>
<g>
</g>
<g>
</g>
<g>
</g>
<g>
</g>
<g>
</g>
<g>
</g>
<g>
</g>
<g>
</g>
</svg>
